<?xml version="1.0" encoding="UTF-8"?>
<!DOCTYPE svg PUBLIC "-//W3C//DTD SVG 1.1//EN" "http://www.w3.org/Graphics/SVG/1.1/DTD/svg11.dtd">
<!-- Creator: CorelDRAW 2019 (64-Bit) -->
<svg xmlns="http://www.w3.org/2000/svg" xml:space="preserve" width="160mm" height="160mm" version="1.1" style="shape-rendering:geometricPrecision; text-rendering:geometricPrecision; image-rendering:optimizeQuality; fill-rule:evenodd; clip-rule:evenodd"
viewBox="0 0 8466.66 8466.66"
 xmlns:xlink="http://www.w3.org/1999/xlink">
 <defs>
  <style type="text/css">
   <![CDATA[
    .fil1 {fill:#0C0A0D}
    .fil3 {fill:#1C1A1C}
    .fil5 {fill:#313131}
    .fil4 {fill:#5D5D5D}
    .fil7 {fill:#787878}
    .fil11 {fill:#939393}
    .fil10 {fill:#ACACAC}
    .fil6 {fill:#BCBCBC}
    .fil9 {fill:#E2E2E2}
    .fil8 {fill:#FBFBFB}
    .fil2 {fill:#FEFEFE}
    .fil0 {fill:#FFC702}
   ]]>
  </style>
 </defs>
 <g id="Capa_x0020_1">
  <metadata id="CorelCorpID_0Corel-Layer"/>
  <path class="fil0" d="M4222.48 4766.13c-28.58,17.44 -69.91,-29.37 -91.95,-49.77 -28.21,-26.1 -52.95,-50.34 -77.63,-75.32 -117.38,-118.79 -338.82,-439.93 -285.51,-592.79 97.89,0.32 8.31,109.27 207.31,399.75 42.41,61.91 84.64,109.82 135.15,161.75 75.24,77.35 165.07,124.37 112.63,156.38zm-465.73 -855.34c-28.59,-92.97 76.68,-92.97 53.28,-6.23 -17.81,9.72 -31.97,11.72 -53.28,6.23zm38.28 -215.7c-62.27,-117.87 232,-424.92 284.02,-394.74 45.43,26.36 -82.31,99.36 -152.46,177.73 -136.57,152.59 -43.8,217.72 -131.56,217.01zm567.68 1864.41l316.45 -22.84c3.26,-70.86 -20.21,-214.61 -23.98,-299.38 -4.67,-104.88 -1.81,-208.78 3.68,-313.15 10.56,-200.74 49.54,-391.93 66.74,-584.69 -238.66,44.5 -85.57,-42.93 -229.86,-7.79 6.37,80.19 36.4,188.05 47.13,278.58 10.65,89.74 61.19,887.75 49.7,906.41 -32.91,-11.55 -23.56,-45.02 -30.11,-131.19 -3.81,-50.06 -5.99,-102.14 -9.64,-153.14 -7.28,-101.55 -10.23,-212.7 -13.62,-316.57 -5.07,-155.58 -27.76,-440.56 -75.42,-574.55 -112.71,-1.74 -172.64,-10.98 -160.38,-132.54 46.29,-30.5 72.49,-50.02 123.76,-1.2 44.14,42.03 44.74,123.3 89.05,89.48 13.71,-19.68 3.57,8.08 5.94,-18 2.48,-27.34 -12.07,-46.72 2.31,-83.71 14.57,-37.47 44.71,-51.81 79.99,-37.75 69.45,54.19 -13.15,113.91 -27.4,147.06 46.81,26.31 110.75,36.36 151.16,-8.75 18.04,-33.95 16.1,-89 34.12,-125.82 44.4,-90.78 190.83,-95.69 61.56,77.9 -42.59,57.19 -61.32,31.48 -74.86,127.16 -51.33,362.77 -106.35,802.66 -36.62,1160.66l163.63 -3.06c-57.72,-894.83 182.05,-694.87 533.55,-1496.28 116.5,-265.61 58.19,-576.06 -156.69,-756.38 -168.43,-141.34 -546.04,-248.41 -794.86,-227.73 -326.13,27.1 -541.58,131.65 -690.46,334.68 -150.57,205.31 -208.81,523.66 -121.51,829.25 137.75,482.15 614.42,699.22 678.14,867.14 18.3,48.22 37.47,399.13 38.5,476.2z"/>
  <path class="fil1" d="M4567.12 6192.2c-37.58,0.09 -91.01,-0.21 -123.81,-15.63 -36.65,-17.23 -59.6,-48.24 -30.33,-83.43 16.25,-6.71 197.54,-18.5 238.51,-23.88 55.16,-7.25 177.47,-40.73 223.91,-26.88 39.34,11.73 99.27,102.26 -53.96,129.93 -65.69,11.86 -186.31,19.22 -254.32,19.89zm431.68 -281.49c-39.26,68.66 -469.91,119.69 -608.35,105.47 -57.54,-5.91 -154.58,-54.84 -116.75,-118.66 18.68,-31.51 353.83,-66.35 410.66,-73.65 66.54,-8.56 143.56,-22.1 208,-28.97 75.22,-8.01 148.95,41.46 106.44,115.81zm-820.11 -206.49c41.01,-20.64 55.3,-68.4 187.58,-87.81 78.99,-11.6 178.88,-15.03 259.9,-18.21 90.66,-3.55 181.07,-7.93 271.84,-8.04 69.34,-0.09 225.51,-9.9 168.62,88.21 -31.93,55.04 -145.31,54.23 -219.61,57.32 -264.62,11.01 -660.81,179.33 -668.33,-31.47zm274.47 -1394.02c-35.9,5.1 -72.45,1.48 -97.22,-14.53 -29.34,-18.96 -40.68,-57.96 -14.58,-80.64 43.96,-38.19 103.69,52.75 111.8,95.17zm105.47 -38.43c-28.69,-37.68 -3.25,-94.81 25.17,-91.06 43.09,5.69 1.68,76.14 -25.17,91.06zm208.62 -11.26c9.69,-67.57 23.09,-114.81 82.47,-124.16 -8.33,43.51 -47.72,100.78 -82.47,124.16zm108.79 1272.11l-163.63 3.06c-69.73,-358 -14.71,-797.89 36.62,-1160.66 13.54,-95.68 32.27,-69.97 74.86,-127.16 129.27,-173.59 -17.16,-168.68 -61.56,-77.9 -18.02,36.82 -16.08,91.87 -34.12,125.82 -40.41,45.11 -104.35,35.06 -151.16,8.75 14.25,-33.15 96.85,-92.87 27.4,-147.06 -35.28,-14.06 -65.42,0.28 -79.99,37.75 -14.38,36.99 0.17,56.37 -2.31,83.71 -2.37,26.08 7.77,-1.68 -5.94,18 -44.31,33.82 -44.91,-47.45 -89.05,-89.48 -51.27,-48.82 -77.47,-29.3 -123.76,1.2 -12.26,121.56 47.67,130.8 160.38,132.54 47.66,133.99 70.35,418.97 75.42,574.55 3.39,103.87 6.34,215.02 13.62,316.57 3.65,51 5.83,103.08 9.64,153.14 6.55,86.17 -2.8,119.64 30.11,131.19 11.49,-18.66 -39.05,-816.67 -49.7,-906.41 -10.73,-90.53 -40.76,-198.39 -47.13,-278.58 144.29,-35.14 -8.8,52.29 229.86,7.79 -17.2,192.76 -56.18,383.95 -66.74,584.69 -5.49,104.37 -8.35,208.27 -3.68,313.15 3.77,84.77 27.24,228.52 23.98,299.38l-316.45 22.84 -100.15 21.74c-19.68,-187.88 28.21,-338.82 -57.77,-506.2 -43.71,-85.09 -186.35,-213.55 -266.48,-293.77 -49.05,-49.11 -85.79,-99.21 -133.97,-146.28 -17.15,-16.76 -23.71,-19.1 -38.18,-37.6 -13.3,-17.01 -14.11,-21.12 -30.11,-38.26 -88.9,-95.25 -214.64,-288.14 -259.94,-426.68 -110.28,-337.25 -49.32,-575.82 192.57,-810.58 15.8,-15.34 20.06,-21.64 37.08,-39.18 50.96,-52.51 220.9,-161.93 286.45,-197.11 115.43,-61.95 260.04,-114.98 412.82,-137.16 512.96,-74.49 1328.67,280.46 1158.9,1004.64 -138.7,591.65 -635.02,739.4 -610.07,1344.85 3.66,88.81 31.39,163.16 37.19,234.48l-115.01 0.23zm-669.06 83.05c-45.64,12.95 -85.07,57.66 -69.9,128.01 14.46,67.07 53.19,79.45 100.94,105.67 -75.42,170.52 60.74,186.98 128.59,220.59 -84.82,204.55 236.57,177.02 336.4,170.2 75.99,-5.18 157.84,-2.3 221.66,-41.15 83.38,-50.76 48.28,-120.29 17.89,-189.68 56.29,-22.19 92.6,-36.48 116.08,-84.51 31.83,-65.12 1.25,-119.52 -29.06,-151.81 23.5,-15.31 149.23,-73.2 96.48,-176.57 -22.92,-44.93 -58.37,-37.07 -73.09,-70.79 -9.28,-21.24 -23.92,-95.45 -28.94,-124.33 -31.12,-178.87 -5.1,-359.68 66.83,-504.66 150.18,-302.7 614.2,-690.19 549.02,-1238.23 -27.99,-235.32 -133.89,-349.08 -270.44,-477.91 -175.33,-165.41 -509.09,-289.64 -759.52,-301.88 -355.23,-17.36 -683.64,149.51 -886.27,311.59 -107.86,86.28 -68.53,64.95 -113.8,106.84 -378.32,350.12 -276.59,833.14 19.14,1224.9 146.13,193.58 450.7,469.1 507.57,552.85 87.85,129.36 63.39,359.63 70.42,540.87z"/>
  <path class="fil2" d="M4178.69 5704.22c7.52,210.8 403.71,42.48 668.33,31.47 74.3,-3.09 187.68,-2.28 219.61,-57.32 56.89,-98.11 -99.28,-88.3 -168.62,-88.21 -90.77,0.11 -181.18,4.49 -271.84,8.04 -81.02,3.18 -180.91,6.61 -259.9,18.21 -132.28,19.41 -146.57,67.17 -187.58,87.81z"/>
  <path class="fil2" d="M4998.8 5910.71c42.51,-74.35 -31.22,-123.82 -106.44,-115.81 -64.44,6.87 -141.46,20.41 -208,28.97 -56.83,7.3 -391.98,42.14 -410.66,73.65 -37.83,63.82 59.21,112.75 116.75,118.66 138.44,14.22 569.09,-36.81 608.35,-105.47z"/>
  <path class="fil2" d="M4567.12 6192.2c68.01,-0.67 188.63,-8.03 254.32,-19.89 153.23,-27.67 93.3,-118.2 53.96,-129.93 -46.44,-13.85 -168.75,19.63 -223.91,26.88 -40.97,5.38 -222.26,17.17 -238.51,23.88 -29.27,35.19 -6.32,66.2 30.33,83.43 32.8,15.42 86.23,15.72 123.81,15.63z"/>
  <path class="fil2" d="M3767.39 4048.25c-53.31,152.86 168.13,474 285.51,592.79 24.68,24.98 49.42,49.22 77.63,75.32 22.04,20.4 63.37,67.21 91.95,49.77 52.44,-32.01 -37.39,-79.03 -112.63,-156.38 -50.51,-51.93 -92.74,-99.84 -135.15,-161.75 -199,-290.48 -109.42,-399.43 -207.31,-399.75z"/>
  <path class="fil2" d="M3795.03 3695.09c87.76,0.71 -5.01,-64.42 131.56,-217.01 70.15,-78.37 197.89,-151.37 152.46,-177.73 -52.02,-30.18 -346.29,276.87 -284.02,394.74z"/>
  <path class="fil3" d="M5729.53 4457.9c6.72,22.47 -12.32,7.5 45.55,39.48 61.4,33.92 397.69,185.54 447.24,180.6 19.42,-1.94 10.32,-1.87 20.84,-7.97 -13.37,-16.45 16.2,-5.52 -59.56,-30.95 -109.28,-36.67 -295.03,-108.07 -391.15,-168.13 -30.19,-18.86 -34.28,-32.17 -62.92,-13.03z"/>
  <path class="fil3" d="M5571.58 3045.96c35.49,3.64 76.69,-45.53 95.41,-67.46 35.1,-41.12 60.95,-57.5 92.84,-85.43 31.53,-27.63 52.23,-57.86 85.41,-83.88 28.84,-22.62 76.65,-54.97 80.51,-98.68 -41.66,8.96 -24.31,5.87 -51.69,33.73 -36.18,36.8 -50.99,30.68 -135.73,127.19 -25.63,29.2 -168.73,132.63 -166.75,174.53z"/>
  <path class="fil3" d="M5093.21 2734.27c33.36,-3.97 21.64,-4.59 65.17,-69.65 37.45,-55.97 164.43,-225.09 160.33,-264.91 -31.47,-1.71 -18.73,-3.74 -37.25,23.8l-142.12 214.33c-18.41,27.74 -50.54,55.01 -46.13,96.43z"/>
  <path class="fil3" d="M2704.34 3889.44c13.02,15.34 -14.74,19.3 89.37,10.1 132.39,-11.71 151.18,-6.8 276.42,4.8 38.23,3.54 21.64,9.51 44.6,-6.44 -22.1,-48.61 -360.06,-43.04 -410.39,-8.46z"/>
  <path class="fil3" d="M4592.57 2644.07c6.19,-7.51 13.65,-3 12.07,-43.78 -0.68,-17.64 -5.43,-39.9 -7.17,-58.57 -6.6,-71.04 -8.53,-281.15 -45.17,-295.1 -15.04,45.99 3.85,152.84 8.8,205.98 3.1,33.16 6.06,67.28 8.83,100.44l5.77 71.4c11.5,32.11 -2.59,6.86 16.87,19.63z"/>
  <path class="fil3" d="M5845.36 3600.97c9.81,13.16 -21.11,17.84 79.22,19.33l184.56 -5.51c38.33,-2.85 58.36,2.9 75.14,-22.3 -26.35,-20.82 -117.88,-3.87 -157.57,-2.94 -62.24,1.46 -153.58,-10.65 -181.35,11.42z"/>
  <path class="fil3" d="M3336.12 3117.36c-15.86,-34.8 -7.51,-13.07 -65.42,-44.93 -27.18,-14.95 -47.91,-28.83 -73.03,-45.2 -31.82,-20.72 -104.91,-80.6 -137.14,-83.96 -8.87,37.3 -13.08,11.93 14.92,36.6 16.17,14.25 19.82,15.61 34.12,25.72l145.84 91.98c33.03,17.09 51.36,41.36 80.71,19.79z"/>
  <path class="fil0" d="M4453.16 4310.2c-8.11,-42.42 -67.84,-133.36 -111.8,-95.17 -26.1,22.68 -14.76,61.68 14.58,80.64 24.77,16.01 61.32,19.63 97.22,14.53z"/>
  <path class="fil3" d="M3067.52 4838.15c39.76,-1.23 60.49,-56.36 122.12,-103.35 23.24,-17.72 38.18,-37.03 59.18,-59.4 22.96,-24.49 43.78,-33.24 49.85,-76.67 -39.48,5.89 -13.19,-7.67 -41.13,17.77l-82.57 95.5c-35.98,45.01 -89.46,67.81 -107.45,126.15z"/>
  <path class="fil3" d="M3732.02 2529.91c-3.44,25.34 53.17,90.72 70.58,113.14l67.08 85.25c23.63,24.54 -9.36,14.41 36.52,16.99 -8.14,-50.81 -91.01,-132.69 -121.94,-176.62 -6.9,-9.81 -17.43,-34.5 -36.14,-39.85 -13.33,-3.81 -12,0.01 -16.1,1.09z"/>
  <path class="fil0" d="M4767.25 4260.51c34.75,-23.38 74.14,-80.65 82.47,-124.16 -59.38,9.35 -72.78,56.59 -82.47,124.16z"/>
  <path class="fil2" d="M3756.75 3910.79c21.31,5.49 35.47,3.49 53.28,-6.23 23.4,-86.74 -81.87,-86.74 -53.28,6.23z"/>
  <path class="fil0" d="M4558.63 4271.77c26.85,-14.92 68.26,-85.37 25.17,-91.06 -28.42,-3.75 -53.86,53.38 -25.17,91.06z"/>
  <path class="fil4" d="M5874.97 5920.8c27.4,28.64 673.77,269.71 791.95,321.72l803.84 306.24c14.69,-3.23 43.7,-44.41 52.43,-59.16 22,-37.19 12.27,-56.79 9.24,-102.14 -5.65,-84.66 -12.65,-383.02 3.34,-454.48 8.35,-37.34 44.02,-125.34 59.46,-168.87 41.63,-117.4 231.25,-593.08 233.69,-679.65 -258.92,-141.47 -389.25,-168.18 -651.04,-271.34 -114.5,-45.12 -216.08,-91.48 -335.51,-131.55 -299.47,-100.47 -273.38,-72.61 -327.76,20.75 -101.45,174.17 -213.98,559.55 -259.18,777.15 -11.98,57.69 -13.5,52.4 -73.76,102.6l-157.68 131.1c-60.55,60.5 -153.66,139.81 -149.02,207.63z"/>
  <path class="fil5" d="M7856.48 4470.01c-19.07,7.47 -15.88,2.17 -30.56,13.7 -3.64,66.06 48.6,349.19 83.24,387.14 26.15,0.72 139.54,-30.46 155.4,-45.33 2.05,-27.09 -63.45,-324.39 -74.39,-367.21l-49.44 -1.49 -12.1 -55.1c47.28,-25.43 50.39,-6.27 144.89,-65.4 139.44,-87.26 221.57,-252.31 201.78,-433.85 -26.16,-240.01 -209.75,-394.81 -482.29,-357.14 -234.17,32.36 -390.66,217.79 -346.13,486.63 30.44,183.79 175.94,354.43 365.23,374.3 45.43,4.77 43.52,10.89 44.37,63.75zm-59.79 -890.24c-555.43,83.79 -319.22,907.12 135.07,791.86 195.69,-49.66 344.33,-241.79 316.94,-465.05 -26.62,-216.86 -202.49,-364.46 -452.01,-326.81zm31.97 38.81c-50.51,4.93 -99.37,18.91 -140.38,39.87 -129.11,66 -194.95,193.07 -167.34,356.58 29.76,176.17 178.35,351.59 383.3,324.45 250.9,-33.23 394.68,-339.06 273.45,-539.42 -13.17,-21.76 -22.26,-33.64 -34.83,-51.23 -33.69,-47.13 -99.03,-93.74 -155.77,-113.45 -52.52,-18.24 -101.01,-22.41 -158.43,-16.8zm-43.78 35.73c-188.72,36.97 -280.85,223.26 -220.5,409.34 25.61,78.96 75.45,165.3 128.43,198.3 274.98,171.29 552.74,-103.61 494.33,-362.33 -36.36,-160.99 -218.5,-281.31 -402.26,-245.31zm65.3 843.64c5.72,66.58 48.31,297.42 76.19,342.34l108.47 -30.12 -64.42 -327.63 -120.24 15.41z"/>
  <path class="fil6" d="M6294.13 5513.55l64.03 27.2c298.31,86.03 542.37,180.27 832.37,288.18 51.69,19.23 262.87,102.66 294.36,102l299.58 -823.53c-32.93,-3.69 -195.27,-80.73 -248.97,-99.6 -77.88,-27.37 -172.04,-64.91 -251.19,-96.79 -251.64,-101.36 -355.77,-171.93 -630.86,-244.38 -83.32,-21.94 -67.41,1.03 -96.64,61.3 -55.4,114.24 -58.27,98.99 -107.63,240.05 -48.21,137.81 -80.31,267.65 -116.75,408.68 -11.4,44.1 -35.67,104.54 -38.3,136.89z"/>
  <path class="fil7" d="M7254.76 2361.87c80.24,4.96 638.79,-69.68 692.69,-106.59 15.79,-10.82 22.69,-20.42 34.21,-35.24l50.72 -68.03c1.05,-1.44 2.5,-3.5 3.6,-4.89 17.51,-22.16 23.7,-16.05 33.26,-43.07 13.18,-37.24 -28.46,-163.87 -36.48,-214.29 -24.74,-155.36 -33.3,-298.24 -66.91,-458.51 -11.03,-52.56 -19.01,-186.26 -73.47,-202.28 -121.94,-35.87 -351.27,21.31 -467.54,51.32 -66.43,17.14 -134.34,46.67 -202.18,60.27 -214.52,43 -132.93,179.32 -103.8,354.23 12.54,75.26 23.29,151.58 37.31,226.07 29.37,156.07 64.79,292.58 98.59,441.01z"/>
  <path class="fil5" d="M2476.72 1558.64c-6.62,43.98 18.39,86.99 25.22,132.07l-120.93 29.97c10.57,-39.52 44.77,-49.03 24.07,-89.67 -54.65,0.01 -88.46,93.52 -96.54,144.55 21.97,22.02 53.56,32.91 80.88,49.78 29.14,17.99 54.3,49.34 94.53,29.08 6.46,-50.79 -46.33,-51.09 -79.99,-80.83l110.8 -21.24c50.31,88.12 99.11,569.52 133.03,595.01 33.76,25.36 743.91,-25.05 770.84,-34.55 19.98,-7.04 10.12,-2.85 20.51,-13.73 23.75,-36.2 37.58,-369.36 40.76,-439.64 3.62,-80.39 2.35,-157.71 4.39,-236.6 3.6,-139.11 24.1,-138.11 -111.96,-132.6 -144.68,5.85 -811.4,22.08 -895.61,68.4z"/>
  <path class="fil8" d="M6416.51 5462.64c77.96,23.28 170.56,52.2 253.35,75.88 164.65,47.1 488.96,162.83 630.19,219.68 21.38,8.61 40.34,16.51 59.39,24.5l60.41 27.84c0.38,-60.72 75.87,-265.82 98.67,-322.48 12.34,-30.65 20.71,-46.09 31.89,-77.33l98.57 -228.08c-1.83,-29.79 5.46,-8.24 -11.35,-20.94l-998.38 -403.32c-23.39,36.74 -216.29,639.87 -222.74,704.25z"/>
  <path class="fil5" d="M2663.91 6481.86c16.52,90.44 55.81,72.73 119.28,98.26 21.04,14.81 30.37,81.23 131.56,99.32 7.03,1.25 33.46,4.02 39.75,3.54 89.1,-6.78 -6.79,-38.2 -10.33,-153.89 16.41,-16.67 40.87,-37.12 52.94,-59.2 29.01,-53.04 -5.43,-26 52.46,-57.85 38.27,-21.05 82.82,-74.36 108.79,-111.96 282.76,-409.59 -507.2,-831.47 -913.93,-447.18 -223.87,211.52 -186.6,447.64 47.38,550.22 145.64,63.85 222.32,45.44 372.1,78.74zm-262.81 -521.86c-52.11,-105.58 118.7,-61.08 139.6,-190.37 -125.75,13.21 -184.28,64.13 -266.62,122.96 6.35,12.96 5.14,7.38 10.85,15.97 57.22,86.12 -29.49,180.17 62.89,217.56 49.51,20.05 64.56,-7.87 100.22,12.68 -19.17,56.72 -74.19,20.57 -116.45,29.6 -8.56,119.74 179.47,88.19 122.42,191.84 -67.68,-3.98 20.95,-9.78 -93.99,-76.51 -40.64,-23.59 -64.63,-49.61 -57.21,-109.2 6.71,-53.9 12.87,-11.61 -15.87,-55.07 -14.59,-22.08 -18.18,-34.95 -16.16,-63.47 3.88,-55.02 32.04,-94.92 -2.92,-136.02 -28.07,4.94 -17,0.94 -36.39,21.99 -192.58,209.02 -61.01,409.6 248,482.26 22.94,-30.78 8.44,-74.15 109.82,-116.57 49.19,-20.58 85.91,-11.87 116.06,-52.96 25.41,-34.63 -8.55,-19 28.65,-30.43 22.2,41.53 -21.06,61.87 -40.79,83.23 73.42,49.19 128.65,26.86 184.84,-24.67 25.95,-23.81 33.92,-49.51 78.63,-57.46 42.86,-7.62 85.8,-2.97 91.1,40.71 -41.3,18.68 -60.72,-48.8 -136.03,33.47 -29.07,31.75 -76.4,66.68 -143.91,63.89 -96.49,-3.99 -67.99,-62.19 -150.11,-36.15 -49.54,15.7 -98.72,45.57 -102.28,100 60.38,33.28 142.34,-7.42 175.38,51.68 27.41,49.04 26.83,39.99 79.96,54.87 47.92,13.43 15.57,-5.91 36.07,24.47 23.1,34.24 45.89,85.3 144.02,76.91 -23.72,-30.95 -45.86,-75.39 -44.52,-129.23 81.26,-51.68 39.09,-81.97 105.13,-115.27 82.44,-41.56 206.61,-255.52 134.16,-282.6 -66.07,-24.68 -57.48,102.15 -138.16,64.63 3.22,-39.33 -4.53,-11.17 27.28,-29.87 65.28,-38.4 18.67,-75.86 121.74,-63.71 -22.28,-78.09 -67.78,-140.68 -117.07,-173.57 -64.27,16.29 -87.83,46.9 -100.28,115.42 -9.73,53.52 -42.89,130.93 -108.63,100.83 14.21,-36.57 43.88,-2.98 70.7,-52.79 15.38,-28.57 24.02,-82.31 16.33,-113.52 -73.95,-32.04 -107.6,5.38 -177.44,10.67 -62.77,4.76 -134.58,-23.76 -130.05,-78.67 53.4,-4.6 31.77,58.27 155.55,36.92 94.73,-16.33 97.72,-21.45 175.6,14.03 21.59,-20.06 52.26,-39.7 72.18,-62.11 -159.94,-86 -225.99,-129.07 -451.6,-112.47 -11.33,128.55 -82.82,108.61 -119.5,143.28 -33.81,31.95 0.67,35.13 -41.2,52.82z"/>
  <path class="fil9" d="M5965.61 5833.25c55.1,3.94 1044.74,380.11 1161.09,431.31 62.26,27.4 121.98,49.37 185.64,76.96 64.02,27.76 127.11,60.68 183.11,86.25l-7.36 -456.04 -404.55 -138.11c-70.77,-23.05 -133.64,-46.04 -202.15,-69.28 -34.04,-11.55 -63.22,-25.5 -97.88,-38.67l-51.73 -15.75c-81.49,-25.32 -148.51,-59.28 -257.11,-90.83 -45.14,-13.11 -178.8,-61.98 -214.79,-44.44l-78.01 58.89c-19.75,15.32 -14.66,17.32 -33.91,33.19 -45.43,37.43 -19.34,2.53 -72.47,63.17l-109.88 103.35z"/>
  <path class="fil9" d="M7258.95 1374.3c59.37,260.98 81.89,526.58 144.56,780.33 67.57,13.87 512.25,-71.97 610.92,-87.87 2.3,-27.7 -57.54,-321.9 -67.61,-385.49l-59.3 -408.82c-213.73,-0.53 -438.5,44.73 -628.57,101.85z"/>
  <path class="fil10" d="M4851.55 6522.46c-3.5,58.85 1.88,33.34 57.76,115.4 63.56,93.34 76.06,70.58 73.96,249.28 -0.21,17.09 -1.59,73.36 4.14,86.34 23.5,53.34 50.32,-1.82 181.56,14.89 28.72,3.66 24.14,21.57 58.31,61.33 78.1,90.89 76.25,119.3 135.86,123.09l496.9 -768.33c44.47,-74.93 65.15,-88.68 48.03,-136.53 -136.86,-27 -965.18,202.92 -1056.52,254.53z"/>
  <path class="fil4" d="M6335.69 3110.35c0,76.13 11.29,122.88 17.21,209.72 2.29,33.66 -20.37,47.25 -41.91,62.44 -27.54,19.43 -43.49,39 -66.9,67.22 1.26,45.2 7.61,101.78 32.16,137.99 47.99,5.32 109.9,-31.32 146.83,-12.87 59.39,29.67 105.03,14.27 167.14,18.16 -22.4,37.52 -29.61,117.88 -2.72,156.93 26.76,21.23 199.31,-11.39 269.94,-79.62 -10.72,-57.22 -45.04,-83.73 -75.45,-118.78 9.95,-6.92 33.74,-20.66 52.69,-34.73 35.44,-26.34 19.26,-18.01 46.29,-48.33 26.45,-29.67 88.47,-36.95 133,-58.29 -2.7,-34.74 -18.43,-107.57 -47.53,-124.95 -22.79,-13.61 -108.11,-32.5 -134.65,-36.74 -44.08,-175.66 -186.82,-380.72 -267.34,-477.32l-101.63 -86.42c-67.93,-35 -63.79,31.49 -79.77,91.99 -28.22,106.85 -47.36,219.69 -47.36,333.6z"/>
  <path class="fil5" d="M4411.96 1673.59c-48.26,34.25 -80.65,41.8 -112.85,83.16 -144.57,185.73 -85.87,438.95 -9.58,414.16 5.67,-27.83 -36.26,-94.97 -38.53,-150.15 -2.46,-59.74 9.96,-114.42 32.93,-161.07 108.42,-220.24 401.96,-200.47 494.32,-47.65 62.53,103.45 45.15,288.76 67.26,325.87 46.94,-2.32 39.64,-40.51 31.37,-128.62 -4.74,-50.56 -13.83,-106.7 -30.52,-153.95 -17.68,-50.01 -37.53,-80.27 -67.17,-113.27 -48.06,-53.48 -84.92,-53.73 -110.23,-75.42 211.65,-171.58 121.24,-487.16 -119.87,-478.88 -171.89,5.9 -273.05,226.13 -230.69,369.28 21.43,72.41 50.12,79.34 93.56,116.54z"/>
  <path class="fil8" d="M2616.48 1640.14c19.54,83.75 29.91,50.42 115.51,71.2 100.38,24.38 194.78,55.67 266.01,124.55 23.32,22.55 78.65,77.56 51.9,123.25 -57.48,-12.93 0.21,-70.41 -153.91,-139.56 -48.82,-21.89 -182.17,-66.45 -241.39,-57.27 46.91,102.67 79.95,330.2 91.41,453.27 83.37,-3.01 91.42,-28.58 287.32,-23.23 90.51,2.47 220.45,19.63 305.04,9.43 30.49,-77.23 40.84,-489.61 30.81,-584.38 -238.3,5.55 -515.24,35.86 -752.7,22.74z"/>
  <path class="fil5" d="M5157.9 1748.09c-85.94,78.86 -131.67,250.04 -99.08,366.12 10.5,37.4 8.4,37.62 41.16,40.66 -1.5,-61.28 -51.42,-114.05 10.89,-280.32 73.83,-197.03 309.77,-174.61 379.42,9.49 56.09,148.29 11.46,255.3 69.23,259.79 44.28,-49.82 12.02,-287.08 -107.69,-387.69 -41.94,-35.25 -66.14,-35.84 -122.27,-58 60.14,-35.86 113.53,-194.73 110.21,-287.99 -8.66,-242.74 -403.02,-223.7 -433.13,69.07 -9.05,88.03 20.3,174.52 84.54,228.22 23.72,19.84 40.38,21.09 66.72,40.65z"/>
  <path class="fil6" d="M7115.7 3605.11c2.17,33.7 7.64,32.58 30.97,45.7 15.81,8.9 24.16,16.44 43.43,22.17 -17.57,51.52 -72.2,91.28 -72.2,269.5 0,79.31 25.61,170.43 67.29,230.21 17.16,24.63 33.76,36.11 47.39,56.46 36.22,-1.88 38.96,-8.4 61.76,-22.77 16.1,-10.14 31.86,-18.97 47.13,-28.83 -2.15,-41.78 -2.9,-26.14 -23.82,-50.05 -31.12,-35.57 -45.5,-103.98 -45.24,-156.28 0.54,-106.75 28.53,-135.01 51.86,-217.99 -0.47,6.5 -3.45,-0.57 7.54,10.25 25.27,24.86 43.41,35.81 76.11,34.35 4.18,-37.17 -21.8,-163.23 -33.97,-211.28 -8.36,-32.97 2.46,-18.98 -19.73,-26.89 -19.9,-7.09 -107.74,7.51 -128.43,11.16 -66.48,11.71 -59.25,16.23 -110.09,34.29z"/>
  <path class="fil11" d="M5633.83 1347.13c8.89,98.63 65.02,35.96 137.19,199.96 92.97,211.24 -40.29,546.52 265.39,699.35 -18.08,34.65 -56,75.22 -46.24,118.74l34.04 9.97c38.73,4.37 300.9,10.61 330.71,-26.94 23.45,-29.55 -54.35,-182.13 -75.58,-236.22 -6.03,-15.37 -6.28,-19.64 -13.58,-36.39 -44.87,-102.83 -100.28,9.2 -114.38,26.65 -14.7,-22.28 -28.63,-5.02 -80.39,-72.22 -176.06,-228.61 3.58,-478.91 -252.29,-681.26 -53.57,-42.37 -47.95,-63.67 -184.87,-1.64z"/>
  <path class="fil5" d="M4111.71 1213.4c40.65,57.11 93.73,114.78 186.81,106.02 3.5,-44.49 -50.32,-60.45 -36.35,-141.24 54.06,-13.76 96.8,-35.48 117.4,-76.79 27.31,-54.75 13.11,-112.09 -17.17,-157.55 -122.79,-184.39 -472.69,-147.53 -459.28,84.34 6.32,109.31 82.81,192.64 208.59,185.22z"/>
  <path class="fil11" d="M1392.73 2261.66c32.19,12.04 90.98,24.73 121.55,33.98 0.88,89.16 -49.02,163.53 -117.03,208.78 -58.08,38.64 -113.42,100.33 -148.64,185.05 -52.96,127.42 -13.67,277.87 86.91,358.66 129.79,104.26 132.02,53.99 172.55,7.55 94.82,-108.62 -65.77,-79.7 -97.78,-214.96 -50.67,-214.11 284.84,-238.69 295.6,-501.07 22.15,5.99 84.06,31.74 101.81,13.07 19.33,-20.33 27.4,-22.37 -8.82,-88.47l-77.86 -152.04c-19.47,-40.27 -12.85,-64.57 -57.62,-66.8 -46.07,-2.3 -121.27,62.76 -148.45,83.84 -114,88.4 -120.76,65.45 -122.22,132.41z"/>
  <path class="fil8" d="M6462.91 3548.01c116.61,22.83 325.97,-42.51 377.36,-106.77 -57,-185 -154.34,-417.3 -267.28,-568.52 -13.04,-17.45 -18.16,-22.29 -30.24,-37.4 -11.64,-14.55 -15.68,-23.67 -29.37,-38.74 -9.91,-10.93 -23.22,-22.31 -36.13,-31.75 -32.07,-23.44 -32.48,-14.2 -33.17,-27.84 -42.16,51.72 -54.5,337.14 -48.36,415.9 8.03,103.12 28.75,306.39 67.19,395.12z"/>
  <path class="fil5" d="M3687.98 6868.04l4.51 -86.58 317.92 -6.18c30.63,-0.01 63.23,4.99 88.84,-7.95 14.36,-50.51 21.68,-232.11 9.95,-285.58l-390.03 -31.92c-7.51,-44.56 11.62,-109.38 -30.34,-112.02 -43.24,-2.72 -229.85,172.54 -245.05,202.31 -55.72,109.12 57.24,163.94 84.48,191.88 39.49,40.51 97.36,142.15 159.72,136.04z"/>
  <path class="fil8" d="M4517.67 1242.63c-169.85,41.26 -221.26,306.36 -113.79,381.47 48.96,34.22 105.29,34.91 173.13,29.58 172.63,-13.55 213.31,-297.51 92.37,-377.79 -41.42,-27.5 -94.57,-47.14 -151.71,-33.26z"/>
  <g id="_2425331632640">
   <path class="fil5" d="M2152.42 4542.94c7.53,30.13 43.49,91.05 58.78,119.67 40.85,76.4 75.11,159.31 122.45,234.19 40.92,64.71 27.13,67.11 97.05,32.74 44.37,-21.81 464.34,-237.98 468.11,-248.62 -1.87,-36.86 -66.17,-168.4 -85.06,-208.72l-103.07 -194.26c-94.09,1.94 -224.69,75.51 -298.87,109.61 -45.57,20.95 -239.18,126.48 -259.39,155.39z"/>
   <path class="fil9" d="M2184.61 4562.03c21.89,51.66 165.61,311.44 197.76,364.35 23.56,-6.55 97.93,-47.78 122.48,-61.44l244.53 -130.47c34.91,-16.81 88.71,-53.59 123.59,-64.68l-160.86 -347.6c-14.26,20.03 -24.93,47.96 -37.29,69.45l-76.62 136.27c-5.63,10.85 -33.08,72.89 -35.84,74.93 -20.35,15 -239.27,-14.73 -287.52,-22.53 -29.17,-4.71 -63.94,-18.4 -90.23,-18.28z"/>
   <path class="fil8" d="M2193.13 4538.32c0.8,0.71 2.2,0.56 2.62,1.85l12.12 5.86c27.84,9.02 118.33,20.74 146.5,23.74 50.47,5.39 136.36,14.98 185.04,12.21 13.64,-22 20.97,-47.38 32.9,-70.77 12.17,-23.89 24.04,-42.35 36.95,-65.09 15.29,-26.94 66.4,-108.12 74.58,-130.74 -32.01,5.86 -99.06,34.59 -130.11,47.87 -42.6,18.22 -81.81,38.17 -124.19,56.01 -38.79,16.33 -82.17,40.15 -117.89,58.17 -34.62,17.46 -86.62,39.69 -118.52,60.89z"/>
  </g>
  <path class="fil7" d="M7457.81 2527.61c-4.83,59.08 34.05,164.67 64.95,216.6 65.78,110.54 82.59,-5 109.83,-44.7 21.06,4.44 7.5,0.01 28.3,10.83 4.67,2.43 12.44,7.43 15.6,9.29 30.7,18.12 36.18,22.65 54.88,61.61 42.53,88.63 -1.91,212.02 -50.15,285.06 -74.26,112.45 -107.36,99.76 -43.65,158.62 70.74,65.34 96.09,13.15 146.97,-48.21 1.12,-1.35 2.75,-3.24 3.84,-4.6l25.09 -34.17c118.99,-164.71 191.26,-457.59 -33.95,-565.57 -21.76,-10.44 -41.23,-13.65 -67.93,-21.76 19.99,-37.73 27.83,-35.3 22.77,-84.52 -41.4,-16.34 -99.75,10.51 -144.06,23.04 -44.84,12.68 -89.12,27.77 -132.49,38.48z"/>
  <path class="fil8" d="M4132.53 1173.88c13.67,18.76 20.02,84.21 108.93,101.26 -8.01,-20.52 -12.57,-46.43 -12.99,-73.75 -0.73,-47.97 -1.65,-47.92 35.41,-55.38 52.06,-10.48 89.15,-35.16 95.54,-91.71 10.58,-93.59 -100.07,-165.26 -182.73,-181.17 -52.99,-10.2 -110.36,-5.72 -154.23,17.32 -100.94,53 -100.32,176.66 -29.98,250.04 43.71,45.59 71.31,35.27 140.05,33.39z"/>
  <path class="fil8" d="M5206.59 1309.34c-241.42,62.79 -170.91,447.05 26.78,389.75 78.67,-22.8 135.42,-119.84 150.4,-212.93 20.04,-124.5 -51.97,-209.39 -177.18,-176.82z"/>
  <path class="fil8" d="M2526.54 1577.15c-3.83,25.3 5.21,49.01 11.83,73.22 13.74,50.22 2.34,41.32 53.87,42.56 -15.12,-85.49 -67.03,-93.18 75.81,-91.68 36.8,0.38 73.6,-0.76 110.36,-2.41 106.3,-4.76 568.36,-41.83 610.87,-0.83 15.78,15.22 35.71,484.53 -23.74,644.69 -87.36,15.81 -313.17,-29.5 -493.84,-15.45 -39.19,3.05 -128.6,20.01 -147.89,18.55 -16.74,-25.79 -73.82,-371.31 -110.42,-492.35l-43.09 -0.24c31.95,184.18 104.75,358.24 105.95,551.85 240.76,-23.12 481.3,-11.23 724.11,-26.54 37.02,-90.68 49.74,-625.66 47.89,-752.4 -292.56,31.45 -617.16,29.98 -921.71,51.03z"/>
  <path class="fil11" d="M788.04 3769.21l-10.45 87.95c-149.19,86.41 -123.08,67.2 -114.34,149.57 -17.48,9.82 -30.88,16.74 -44.9,25.49 6.44,69.74 24.55,62.37 50.91,101.73 36.85,-1.83 45.57,6.08 59.34,-20.09 36.6,5.43 12.36,8.72 37.75,19.72 65.79,28.51 83.87,-31.96 140.43,-52.28 40.26,24.4 37.7,51.59 101.77,10.23l17.27 23.6c-20.1,37.96 -73.73,183.77 -72.34,222.8 0,0.08 -8.93,11.43 12.69,38.26 20.63,-8.7 11.22,-0.92 22.9,-17.69 5.51,-7.9 7.61,-19.64 11.06,-32.19 4.99,-18.19 11.86,-38.75 18.64,-57.18 10.4,-28.3 40.47,-77.36 36.18,-103.02l38.2 143.2c13.8,37.69 6.53,31.32 34.22,35.62 19.54,-26.42 -7.23,-158.79 -14.45,-195.71 6.63,23.16 86.72,89.11 117.15,119.7 24.23,24.36 20.5,29.34 66.95,33.18 -6.46,-68.39 -45.47,-76.01 -82.72,-118.42 -20.83,-23.73 -62.03,-82.64 -86.97,-92.15l7.23 -33.08c107.55,3.34 159.55,-69.58 256.08,-126.19 82.2,-48.22 189.55,-40.64 142.68,-251.83 -21.13,-95.21 -129.99,-305.07 -272.95,-230.65 -91.56,47.66 -271.05,134.37 -328.95,199.21 -47.53,53.22 25.72,51.06 -143.38,120.22z"/>
  <path class="fil8" d="M1398.92 3879.42c-71.68,-48.51 -76.09,-39.03 -129.43,-153.29 -22.75,-48.74 -54.59,-182.15 -14.81,-231.43l-209.78 134.42c-48.92,27.82 -48.97,20.96 -47.46,80.29 4.38,171.82 155.25,294.49 198.99,279.76l182.67 -106.44c16.85,-7.04 15.45,-5.32 19.82,-3.31z"/>
  <path class="fil8" d="M3477.9 6546.74l180.58 184.73 3.33 -88.37 412.07 15.57 -1.28 -154.82c-65.5,-2.02 -346.37,-5.14 -381.07,-26.91 -11.83,-13.7 -2.52,6.18 -8.75,-17.15l-3.03 -76.85c-40.41,15.99 -181.82,135.98 -201.85,163.8z"/>
  <path class="fil11" d="M6478.91 2923.74c-119.04,50.97 -63.99,260.36 92.11,204.28 126.84,-45.56 46.13,-263.48 -92.11,-204.28z"/>
  <path class="fil5" d="M662.18 5610.82c23.08,-23.85 11.86,-83.48 30.14,-173.92 66.04,-326.59 332.44,-557.08 682.22,-553.43 60.88,0.64 156.51,26.86 195.14,21.45 27.84,-33.76 47.41,-118.13 41.17,-169.21 -104.9,-83.26 -364.04,-83.74 -501.4,-44.74 -379.29,107.67 -582.97,469.44 -644.51,840.6 -9.95,60.03 -11.28,79.59 53.15,83.12 37.66,2.06 116.68,7.92 144.09,-3.87z"/>
  <path class="fil5" d="M938.61 5615c27.76,-57.07 64.63,-390.08 340.71,-439.71 103.08,-18.54 168.47,23.52 228.17,15.7 23.09,-34.27 55.61,-142.45 54.79,-194.6 -34.79,-9.46 -40.55,-21 -75.05,-33.78 -99.24,-36.74 -190.41,-35.22 -288.27,-3.99 -111.54,35.6 -209.64,116.47 -262.93,178.58 -65.59,76.44 -125.17,152.95 -165.59,275.75 -11.97,36.36 -45.18,148.45 -29.06,184.66 13.79,31 158.74,30.75 197.23,17.39z"/>
  <path class="fil8" d="M523.92 5569.28l100.89 4.22c28.25,-145.65 17.82,-200.27 82.77,-333.94 91.32,-187.9 254.45,-341.55 454.85,-393.49 155.37,-40.27 226.89,-37.22 381.63,-5.24l17.86 -71.49c-431.41,-132.02 -767.07,78.49 -935.84,431.23 -28.62,59.81 -119.77,300.51 -102.16,368.71z"/>
  <path class="fil5" d="M1005.65 5627.87c42.27,4.47 121.8,12.15 158.64,-7.54 49.46,-26.42 33.42,-150.06 150.57,-206.17 104.47,-50.03 145.68,41.1 171.3,-74.37 6.55,-29.49 14.69,-48.06 13.62,-78.04 -187.61,-140.84 -571.43,103.72 -494.13,366.12z"/>
  <path class="fil8" d="M781.84 5563.67l117.57 1.21c28.56,-52.18 46.04,-237.2 177.24,-354.67 102.75,-92 233.71,-130.47 401.5,-83.63l24.35 -91.4c-107,-17.17 -168.53,-44.85 -282.96,-13.09 -224.72,62.35 -438.9,344.35 -437.7,541.58z"/>
  <path class="fil5" d="M1376.46 5496.59c-220.42,59.49 -145.66,339.16 39.4,300.01 195.57,-41.37 153.69,-352.12 -39.4,-300.01z"/>
  <path class="fil8" d="M1042.73 5583.07l102.7 1.16c85.83,-170.11 52.44,-207.13 294.23,-240.23l10.63 -48.06c-85.46,-45.63 -220.8,11.25 -278.74,51.59 -65.93,45.91 -136.02,113.92 -128.82,235.54z"/>
  <path class="fil8" d="M1379.26 5553.35c-107.32,22.61 -98.7,201.52 26.38,172.58 100.86,-23.34 97.65,-198.71 -26.38,-172.58z"/>
  <path class="fil7" d="M7536.23 7038.2c0,0 0,0 0,0z"/>
  <path class="fil5" d="M5449.4 1078.18c0,0 0,0 0,0z"/>
 </g>
</svg>
