
<svg xmlns="http://www.w3.org/2000/svg" xml:space="preserve"   version="1.1" style="shape-rendering:geometricPrecision; text-rendering:geometricPrecision; image-rendering:optimizeQuality; fill-rule:evenodd; clip-rule:evenodd"
viewBox="0 0 19473.32 10159.98" 
 xmlns:xlink="http://www.w3.org/1999/xlink">   <!--         width="194.733mm" height="101.6mm"            -->
 <defs>
  <style type="text/css">
   <![CDATA[
    .fil11 {fill:#131313}
    .fil17 {fill:#141414}
    .fil14 {fill:#242424}
    .fil10 {fill:#2A2A2A}
    .fil2 {fill:#313131}
    .fil13 {fill:#393939}
    .fil1 {fill:#5D5D5D}
    .fil12 {fill:#5D5D5D}
    .fil16 {fill:#616565}
    .fil7 {fill:#787878}
    .fil15 {fill:#79797A}
    .fil8 {fill:#7C7C7C}
    .fil6 {fill:#939393}
    .fil3 {fill:#BCBCBC}
    .fil18 {fill:#E0E0E0}
    .fil5 {fill:#E2E2E2}
    .fil4 {fill:#FBFBFB}
    .fil9 {fill:#FDFDFD}
    .fil0 {fill:#FEFEFE}
   ]]>
  </style>
 </defs>
 <g id="Capa_x0020_1">
  <metadata id="CorelCorpID_0Corel-Layer"/>
  <g id="_2424976885792">
   <path class="fil0" d="M9143.37 5213.34c-32.57,22.09 -46.64,43.44 -54.68,78.82 88.64,134 213.17,-7.17 54.68,-78.82z"/>
   <path class="fil1" d="M491.06 7250.48c38.55,59.48 1093.29,699.3 1283.49,830.2l1309.53 807c26.88,-0.76 91.63,-63.37 111.9,-86.36 51.09,-57.97 40.56,-95.65 50.42,-176.34 18.41,-150.6 105.98,-677.05 157.98,-797.23 27.17,-62.79 119.28,-205.44 160.96,-276.73 112.44,-192.3 604.73,-964.42 638,-1115.67 -407.48,-335.18 -627.48,-425.72 -1052.81,-694.54 -186.04,-117.59 -348.96,-233.03 -545.33,-343.38 -492.43,-276.73 -455.92,-219.05 -582.7,-73.26 -236.51,271.99 -563.17,911.29 -715.4,1278.4 -40.35,97.33 -41.26,87.54 -163.91,155.53l-320.86 177.53c-126.61,86 -316.72,194.16 -331.27,314.85z"/>
   <path class="fil2" d="M2558.05 2255.32c12.54,-34.42 15.88,-23.86 17.79,-57.19 -84.29,-83.03 -525.76,-347.93 -617.63,-346.36 -31.89,34.21 -124.22,223.14 -123.05,262.01 33.91,34.8 510.06,298.66 580.42,334.65l60.49 -64.53 88.22 48.95c-21.85,93.5 -51.22,75 -83.71,271.66 -47.95,290.22 76.22,595.61 343.06,783.83 352.81,248.86 777.58,185.78 1049.49,-224.25 233.62,-352.29 170.08,-781.51 -243.09,-1039.83 -282.48,-176.62 -683.44,-183.36 -934.01,46.97 -60.14,55.28 -66.08,45.48 -137.98,-15.91zm1264.54 972.96c544.71,-843.94 -838.8,-1501.18 -1221.66,-755.64 -164.92,321.17 -83.12,747.79 248.68,975.16 322.29,220.86 728.27,159.63 972.98,-219.52zm-89.87 -3.03c53.13,-73.57 92.2,-155.62 112.61,-235.43 64.23,-251.2 -28.29,-489.82 -280.21,-646.21 -271.44,-168.51 -682.47,-176.78 -888.52,130.16 -252.25,375.77 -12.24,930.37 399.85,1004.82 44.76,8.09 71.45,9.96 109.91,13.91 103.06,10.58 242.85,-21.9 336.42,-74.68 86.59,-48.85 149.54,-108.94 209.94,-192.57zm3.88 -100.98c173.67,-296.81 32.86,-640.73 -288.08,-779.94 -136.17,-59.06 -310.92,-94.36 -417.83,-62.36 -555,166.11 -514.97,863.78 -98.92,1091.51 258.89,141.71 635.72,39.81 804.83,-249.21zm-1208.56 -910.46c-96.05,-71.1 -455.98,-287.06 -549.2,-302.82l-87.93 181.09 515.55 301.2 121.58 -179.47z"/>
   <path class="fil3" d="M1363.69 6675.38l103.36 69.23c495.23,250.95 892.4,498.19 1365.7,784.81 84.37,51.09 427.41,268.33 482.94,277.69l801.88 -1346.34c-56.61,-17.51 -315.99,-207.18 -404,-258.3 -127.65,-74.14 -280.49,-171.59 -408.85,-254.09 -408.12,-262.29 -567.4,-421.1 -1026.39,-640.44 -139.02,-66.43 -118.75,-20.76 -190.27,75.34 -135.56,182.14 -135.5,154.38 -269.4,385.65 -130.83,225.94 -230.67,443.27 -341.89,678.82 -34.78,73.65 -97.64,171.7 -113.08,227.63z"/>
   <path class="fil4" d="M1595.68 6626.92c129.17,66.99 282.15,148.79 419.66,218.1 273.47,137.83 804.41,449.67 1033.46,596.81 34.69,22.28 65.36,42.5 96.13,62.92l96.81 69.13c20.99,-106.54 222.24,-441.56 281.26,-533.46 31.93,-49.71 51.8,-74.02 81.9,-125.15l249.48 -367.66c6.75,-52.96 12.36,-12.65 -12.92,-40.6l-1618.79 -1042.64c-53.37,56.71 -594.1,1051.63 -626.99,1162.55z"/>
   <path class="fil2" d="M6647.11 6546.95c66.31,150.43 127.3,103.31 248.3,121.33 42.74,17.02 86.57,128.66 270.09,118.06 12.74,-0.73 59.87,-6.9 70.61,-10.35 152.14,-48.82 -27.69,-63.62 -81.94,-263.36 21.63,-35.81 55.66,-81.55 67.49,-124.97 28.41,-104.3 -20.25,-42.96 67.2,-122.41 57.81,-52.52 113.15,-163.75 142.67,-239.95 321.58,-829.89 -1227.69,-1235.36 -1775.4,-397.94 -301.46,460.93 -138.5,856.11 311.08,937.28 279.84,50.53 405.55,-13.36 679.9,-17.69zm-673.97 -798.42c-134.51,-161.98 181.07,-155.57 163.68,-389.13 -213.21,75.24 -293.85,188.12 -412.61,324.66 16.43,19.9 12.01,10.71 25.5,23.28 135.32,126 23.58,325.61 199.8,352.25 94.44,14.29 109,-40.53 179.57,-19.59 -9.78,106.6 -120.48,66.6 -190.23,99.86 34.88,211.82 348.8,78.81 292.65,282.78 -119.37,21.21 32.38,-25.7 -195.27,-93.99 -80.5,-24.15 -133.03,-59.43 -144.89,-166.15 -10.73,-96.54 17.56,-25.55 -50.48,-89.2 -34.56,-32.33 -46.15,-53.24 -54.5,-103.67 -16.1,-97.31 16.29,-178.4 -61.6,-235.37 -46.76,20.27 -29.17,8.71 -54.15,53.38 -248.09,443.57 64.11,737.76 631.75,735.72 27.12,-63.08 -16.13,-132.49 142.57,-248.39 77.01,-56.23 144.49,-56.36 179.84,-140.35 29.8,-70.79 -22.76,-29.49 37.19,-64.84 55.87,63.01 -10.92,116.37 -36.36,161.72 148.14,55.04 234.91,-6.75 311.23,-119.73 35.25,-52.18 38.44,-100.2 112.89,-132.61 71.38,-31.06 147.99,-40.82 175.36,32.95 -64.06,49.65 -125.89,-59.64 -222.69,114.74 -37.36,67.3 -105.16,147.72 -223.74,170.93 -169.47,33.17 -144.09,-79.91 -276.11,-0.49 -79.63,47.9 -152.76,120.28 -136.32,216.42 118.85,32.8 244.48,-72.04 326.5,17 68.06,73.91 63.29,58.41 161.87,62.22 88.94,3.43 24.64,-16.75 72.91,27.56 54.41,49.95 115.26,129.3 282.44,73.92 -54.1,-43.97 -111.08,-112.07 -131.12,-206.27 119.85,-123.65 33.91,-158.81 134.94,-244.17 126.11,-106.55 253.16,-530.28 115.89,-547.26 -125.17,-15.48 -57.52,201.54 -213.44,169.83 -10.73,-69.77 -12.5,-17.56 35.04,-63.31 97.58,-93.9 0.95,-139.7 185.26,-161.38 -71.2,-126.58 -176.34,-216.53 -275.75,-253.25 -105.01,55.05 -133.26,118.07 -126.44,242.43 5.33,97.12 -20.19,245.53 -147.04,220.51 9.52,-69.52 75.09,-23.41 101.04,-121.2 14.88,-56.08 7.57,-153.14 -18.77,-204.22 -141.95,-25 -184.91,54.06 -304.2,92.3 -107.19,34.36 -243.94,14.6 -258.87,-82.79 90.96,-30.18 79.47,88.14 285.88,-0.43 157.96,-67.77 161.05,-77.92 311.24,-48.57 29.23,-43.86 74.41,-90.77 99.73,-138.02 -313.92,-83.1 -446.69,-130.57 -832.18,-7.94 33.71,228.28 -98.91,223.31 -148.3,298.86 -45.53,69.63 15.76,60.82 -49.71,109z"/>
   <path class="fil5" d="M679.59 7127.02c95.46,25.37 1707.99,1017.39 1895.24,1146.27 100.19,68.97 197.74,127.55 300.32,197.33 103.18,70.19 202.98,149.13 292.8,212.79l139.7 -803.55 -664.41 -378c-116.6,-64.18 -219.35,-125.61 -331.91,-189.38 -55.93,-31.68 -102.52,-65.94 -158.99,-100.67l-85.6 -44.98c-134.68,-71.76 -241.04,-153.86 -421.25,-245.61 -74.9,-38.14 -293.34,-168.73 -362.43,-149.97l-156.74 77.33c-39.82,20.31 -31.55,25.54 -70.68,46.96 -92.33,50.55 -34.81,-2.03 -148.45,86.71l-227.6 144.77z"/>
   <path class="fil1" d="M14359.82 5542.7c42.82,129.23 88.3,202.23 147.2,346.31 22.82,55.85 -8,91.66 -36.01,129.56 -35.82,48.47 -51.89,90.67 -75.74,151.73 27.55,76.02 70.17,168.48 132.22,216.14 84.45,-17.97 168.92,-114.98 241.99,-104.44 117.5,16.94 186.3,-34.88 293.91,-63.21 -16.91,76.29 16.06,216.75 83.68,267.91 57.36,20.99 331.9,-131.46 413.41,-287.01 -50.39,-91.11 -123.57,-116.79 -194.9,-159.17 13,-17.34 45.65,-54.05 69.89,-88.6 45.35,-64.65 22.57,-41.4 51.4,-108.08 28.2,-65.25 129.39,-112.48 192.96,-173.76 -24.13,-57.44 -91.8,-172.22 -150.97,-185.35 -46.35,-10.28 -201.78,5.65 -249.22,13.39 -173.64,-273.38 -531.29,-541.15 -722.32,-659.83l-221.12 -89.51c-135.01,-21.19 -90.57,89.34 -83.66,201.02 12.21,197.23 43.2,399.56 107.28,592.9z"/>
   <path class="fil3" d="M4594.22 2285.11c-47.76,-36.96 -52.73,-28.3 -97.92,-12.54 -30.64,10.69 -50.64,12.96 -81.12,32.02 -48.29,-84.51 -36.98,-204.8 -275.97,-415.64 -106.37,-93.83 -258.85,-167.27 -388.32,-182.11 -53.34,-6.11 -88.37,2.56 -131.77,-3.24 -40.32,50.8 -34.83,62.19 -42.54,109.76 -5.43,33.59 -12.24,65.16 -17.08,97.31 58.56,46.55 38.48,27.04 95.29,27.27 84.52,0.35 193.27,61.99 263.09,124.21 142.51,127.02 147.29,197.97 230.98,327.42 -8.18,-8.32 4.84,-3.95 -22.67,-2.01 -63.24,4.47 -99.38,15.85 -136.11,61.43 44.91,49.58 244.69,163.87 323.52,204.38 54.09,27.8 22.54,25.76 59.39,5.36 33.05,-18.31 117.39,-153.36 136.98,-185.42 62.93,-103.01 48.32,-98.66 84.25,-188.2z"/>
   <path class="fil6" d="M11672.19 4319.57c-142.79,-104.75 -125.14,44.65 -430.44,-52.57 -393.27,-125.24 -685.22,-700.56 -1251.78,-471.45 -25.07,-65.24 -34.63,-164.09 -104.53,-202.47l-53.63 33.85c-51.69,46.76 -370.21,390.94 -355.11,475.34 11.88,66.42 308.52,142.58 406.18,178.11 27.73,10.09 33.76,14.81 64.86,24.82 190.97,61.48 106.28,-145.35 99.58,-184.9 47.26,6.65 40.6,-32.46 191.94,-22.36 514.84,34.35 637.99,571.34 1212.03,467.61 120.18,-21.72 142.1,11.03 220.9,-245.98z"/>
   <path class="fil2" d="M3361.46 5041.17c-193.81,70.06 -418.58,120.67 -628.92,-56.2 65.97,-113.41 222.77,-61.96 324.11,-280.61 -107.64,-123.7 -174.63,-247.69 -155.33,-382.02 25.58,-178.01 155.8,-292.86 305.05,-352.12 605.23,-240.31 1389.4,434.08 969.12,972.14 -198.12,253.64 -522.39,327.14 -814.03,98.81z"/>
   <path class="fil6" d="M14086.3 2583.19c-54.21,28.92 -140.78,92.75 -189.35,122.79 -120.61,-104.28 -161.3,-259.18 -141.53,-403.9 16.9,-123.62 -0.36,-270.81 -72.31,-418.25 -108.21,-221.75 -356.45,-347.05 -583.76,-307.75 -293.36,50.71 -228.58,113.17 -214.26,222.46 33.49,255.64 184.69,6.08 403.94,123.17 347.05,185.35 -16.9,664.33 322.24,989.16 -34.25,22.61 -142.01,75.17 -137.97,121.06 4.39,49.98 -2.42,63.2 129.06,92.83l295.99 75.45c77.03,21.54 101.8,59.16 157.75,1.77 57.57,-59.06 59.3,-236.86 63.19,-298.25 16.31,-257.46 55.08,-239.37 -32.99,-320.54z"/>
   <path class="fil4" d="M14821.98 6214.03c210.78,-26.84 529.4,-255.55 580.49,-393.52 -200.83,-281.97 -496.75,-621.52 -773.54,-814.67 -31.94,-22.28 -43.36,-27.62 -72.36,-46.46 -27.93,-18.15 -39.93,-31.36 -71.64,-49.25 -22.97,-12.97 -51.97,-24.81 -79.2,-33.56 -67.62,-21.74 -63.12,-5.83 -71.96,-28.59 -42.47,111.49 97.15,602.91 151.88,733.16 71.65,170.52 221.16,503.9 336.33,632.89z"/>
   <path class="fil2" d="M5259.09 1622.72l110.76 108.46 -367.8 433.64c-36.22,41.09 -81.49,78.89 -94.44,128.54 50.73,79.01 285.6,303.66 371.2,351.18l504.19 -485.26c68.65,42.64 132.93,144.98 186.11,91.84 54.81,-54.77 40.55,-512.36 18.6,-567.95 -80.42,-203.81 -287.55,-117.18 -357.24,-113.71 -101.05,5.04 -305.8,-37.6 -371.38,53.26z"/>
   <g>
    <path class="fil2" d="M10193.58 2314.12c-49.3,-25.53 -173.54,-49.39 -230.01,-62.72 -150.78,-35.61 -302.48,-87.76 -458.91,-112.86 -135.18,-21.68 -122.08,-43 -158.71,91.41 -23.25,85.31 -230.18,904.21 -220.37,921.86 51.64,41.09 304.1,110.48 380.52,132.83l382.43 91.6c108.7,-128.46 164.54,-390.62 206.57,-530.44 25.83,-85.9 113.34,-470.36 98.48,-531.68z"/>
    <path class="fil5" d="M10129.91 2334.71c-95.18,-31.75 -613.56,-146.34 -722.54,-165.82 -19.1,39.33 -51.78,187.84 -62.51,236.92l-114.32 482.26c-18.75,66.71 -33.08,182.35 -59.47,242.24l656.43 195.5c-10,-42.81 -34.83,-90.15 -49.02,-132.15l-92.09 -263.96c-7.89,-20.38 -58.62,-130.59 -58.09,-136.7 3.95,-45.04 302.8,-303.44 370.35,-358.92 40.82,-33.53 100.31,-63.97 131.26,-99.37z"/>
    <path class="fil4" d="M10151.63 2374.19c-1.9,0.23 -3.36,2.29 -5.58,1.32l-22.22 9.33c-45.01,26.66 -167.78,134.15 -205.14,168.37 -66.92,61.3 -181.39,165.14 -235.27,233.69 13.37,44.31 38.72,84.17 55.99,127.83 17.64,44.6 28.35,82.34 43.57,126.56 18.03,52.37 66.43,216.95 87.09,254.67 30.01,-49.85 70.8,-173.75 89.73,-231.1 25.97,-78.68 45.59,-154.87 71.8,-232.8 23.99,-71.33 43.37,-157.69 61.46,-226.91 17.54,-67.07 49.25,-163.1 58.57,-230.96z"/>
   </g>
   <path class="fil7" d="M6113.64 6898.12c-73.52,-76.37 -261.1,-149.16 -367.3,-169.15 -226.06,-42.55 -91,116.67 -69.98,200.17 -30.88,22.99 -8.89,10.04 -48,25.13 -8.79,3.39 -24.68,7.91 -30.92,9.94 -60.61,19.73 -73.18,21.72 -147.53,0.71 -169.17,-47.82 -282.06,-253.39 -322.95,-404.49 -62.94,-232.61 -6.77,-261.98 -161.06,-246.17 -171.32,17.57 -131.32,113.29 -109.23,254.12 0.49,3.09 1.1,7.52 1.63,10.6l16.14 74.05c80.12,354.42 387.37,797.8 798.6,623.55 39.74,-16.84 67.08,-39.15 109.53,-65.36 26.94,71.44 14.41,79.09 86.41,130.53 70.87,-36.19 103.9,-146.2 139.52,-220.45 36.04,-75.13 68.19,-152.36 105.14,-223.18z"/>
   <path class="fil4" d="M3377.24 4910.81c-64.43,22.5 -189.28,170.08 -432.7,62.58 53.7,-36.21 108.05,-91.23 154.77,-156.57 82.02,-114.73 84.15,-113.06 7.03,-193.1 -108.3,-112.41 -156.68,-234.12 -77.54,-381.51 130.97,-243.91 518.35,-232.08 744.78,-132.26 145.12,63.97 276.32,170.78 343.83,299.85 155.32,296.97 -53.01,594.85 -345.79,654.56 -181.93,37.1 -231.37,-34.01 -394.38,-153.55z"/>
   <path class="fil6" d="M12369.08 5803.88l-29.93 155.53c-277.2,134.96 -228.16,104.05 -223.16,252.08 -32.43,15.27 -57.22,25.9 -83.35,39.71 2.53,125.2 35.77,114.39 77.72,187.98 65.97,1.47 80.51,16.68 108.44,-28.22 64.57,14.4 20.91,17.14 64.8,40.04 113.66,59.3 153.69,-46.25 257.17,-75.22 68.68,48.7 60.63,96.86 180.21,31.32l27.77 44.31c-40.72,65.12 -155.12,318.3 -157.65,388.1 0,0.14 -17.39,19.23 17.72,69.86 37.91,-12.86 20.13,-0.19 43.13,-28.61 10.83,-13.38 16.09,-34.05 23.85,-55.99 11.24,-31.8 26.14,-67.58 40.59,-99.59 22.19,-49.14 82.13,-132.77 77.77,-179.11l49.73 260.33c19.78,69 7.63,56.7 56.47,67.93 38.25,-44.62 7.49,-284.15 -0.64,-350.93 8.85,42.16 143.24,170.09 193.58,228.56 40.09,46.54 32.79,54.94 115.15,67.77 -2.74,-122.81 -71.35,-141.41 -132.33,-221.85 -34.1,-44.98 -100.02,-155.35 -143.28,-175.52l17.14 -58.08c191.39,19.79 293.52,-103.59 472.95,-192.18 152.82,-75.44 343.3,-48.12 286.84,-430.83 -25.46,-172.52 -192.67,-560.82 -457.2,-446.45 -169.43,73.25 -500.7,204.85 -612.32,313.06 -91.6,88.81 39.32,94.38 -271.17,196z"/>
   <path class="fil4" d="M13444.49 6078.93c-121.62,-95.73 -130.7,-79.4 -211.15,-290.04 -34.32,-89.85 -73.97,-331.9 3.31,-414.68l-391.43 212.8c-90.83,43.34 -90.05,31.09 -94.97,137.12 -14.26,307.02 239.08,545.19 318.99,524.53l339.48 -166.37c30.96,-10.4 28.23,-7.52 35.77,-3.36z"/>
   <path class="fil4" d="M5938.48 1721.1l-461.36 23.61 114.57 109.01 -508.35 534.17 209.12 181.43c80.19,-85.44 416.64,-458.39 486.89,-479.17 32.38,0.34 -5.31,-10.69 33.36,8.54l106.62 86.86c26.37,-73.11 32.76,-404.68 19.15,-464.45z"/>
   <path class="fil6" d="M14497.94 5145.37c-173.38,153.48 37.87,477.94 271.28,294.94 189.68,-148.7 -69.93,-473.2 -271.28,-294.94z"/>
   <path class="fil2" d="M7889.84 4220.03c50.37,31.37 150.4,-10.68 315.38,-12.75 595.79,-7.46 1098.97,371.54 1224.21,984.39 21.8,106.66 11.94,283.71 35.94,349.2 69.5,35.98 224.36,38.44 311.3,8.3 106.08,-214.71 9.4,-667.9 -110.45,-893.36 -330.97,-622.55 -1040.04,-842.51 -1712.06,-810.42 -108.68,5.19 -143.39,10.23 -125.3,124.2 10.57,66.61 30.05,206.95 60.98,250.44z"/>
   <path class="fil2" d="M7986.56 4704.86c110.22,27.04 706.25,-33.81 896.9,430.16 71.19,173.23 22.28,303.36 58.41,404.78 68.6,27.47 269.95,43.62 360.81,22.56 3.45,-64.38 21.46,-78.8 30.81,-143.9 26.89,-187.32 -10.08,-346.14 -101.5,-505.45 -104.21,-181.6 -282.5,-322.66 -411.13,-392.46 -158.3,-85.9 -314.49,-161.27 -544.37,-185.72 -68.06,-7.24 -276.52,-23.11 -333.75,18.68 -49.01,35.79 5.97,289.08 43.82,351.35z"/>
   <path class="fil4" d="M7910.44 3962.7l30.59 177.96c265.25,-5.43 356.81,-44.22 614.92,19.04 362.85,88.92 692.85,316.29 859.06,647.08 128.86,256.47 150.44,382.64 152.77,665.19l131.69 4.32c68.45,-803.85 -425.86,-1311.44 -1106.03,-1473.74 -115.32,-27.53 -570.4,-96.31 -683,-39.85z"/>
   <path class="fil2" d="M7989.28 4826.9c8.09,75.58 24.6,217.49 72.87,274.49 64.81,76.51 274.93,1.95 417.09,185.63 126.78,163.81 -17.02,270.14 194.47,271.49 54.02,0.35 89.54,7.59 141.56,-5.57 175.61,-380.96 -396.35,-959.93 -825.99,-726.04z"/>
   <path class="fil4" d="M8017.29 4411.48l42.14 205.98c101.95,30.29 431.98,-8.76 686.72,176.39 199.49,145 316.03,359.46 297.28,670.42l168.94 8.19c-10.24,-193.54 14.99,-311.5 -83.58,-499.6 -193.57,-369.39 -767.15,-637.7 -1111.5,-561.38z"/>
   <path class="fil2" d="M8358.31 5425.74c-186.94,-362.94 -647.72,-127.02 -509.65,181.76 145.93,326.33 673.42,136.18 509.65,-181.76z"/>
   <path class="fil4" d="M8081.56 4874.85l36.6 179.99c329.69,86.02 381.84,13.73 530.7,423.95l88.01 0.51c47.61,-166.56 -102.75,-381.76 -195.08,-467.88 -105.07,-97.98 -250.32,-194.91 -460.23,-136.57z"/>
   <path class="fil4" d="M8260.14 5451.99c-79.9,-179.1 -389.43,-96.72 -291.77,111.05 78.76,167.55 384.12,95.94 291.77,-111.05z"/>
   <path class="fil7" d="M2049.83 1975.18c0,0 0,0 0,0z"/>
   <path class="fil2" d="M12286.81 3085.16c0,0 0,0 0,0z"/>
   <path class="fil8" d="M15196 3949.37c77.18,-486.33 174.82,-992.24 112.62,-1483.8 -4.33,-34.27 47.23,-128.12 -179.8,-172.32 -103.34,-20.13 -454.18,61.86 -513.53,92.98 -108.58,56.94 -90.97,99.88 -96.59,247.69 -10.22,268.68 -0.88,1028.18 61.49,1251.72 101.05,362.21 471.67,68.21 615.81,63.73z"/>
   <path class="fil9" d="M14694.76 3802.78c66.9,-33.42 148.53,-68.51 199.07,-94.47l105.67 -1317.72c-429.97,155.13 -395.8,26.77 -360.29,504.09 22.37,300.76 42.53,621.39 55.55,908.1z"/>
   <path class="fil10" d="M14984.45 4042.32c-391.26,87.68 -372.76,825.03 72.58,724.12 459.94,-104.23 307.57,-809.31 -72.58,-724.12z"/>
   <path class="fil9" d="M14982.35 4162.87c-317.25,76.71 -228.81,526.31 -23.66,444.58 219.61,-87.48 323.69,-517.14 23.66,-444.58z"/>
   <path class="fil11" d="M10262.76 5775.95c-149.9,19.91 -410.6,43.81 -453.99,158.03 -33.05,86.96 17.95,347.72 218.55,365.66l113.31 -127.1c81.82,9.88 95.83,32.61 131.77,81.35 -90.1,139.62 -192.81,28.87 -302.31,173.53 21.24,121.02 154.54,377.67 299.4,372.35 58.05,-2.14 801.62,-339.66 928.02,-390.03 343.16,-136.73 97.53,-231.14 86.27,-418.07 98.68,-81.19 101.2,11.61 171.94,-100.74 62.98,-102.38 -6.07,-236.32 -72.78,-279.71 -148,-96.27 -193.82,37.81 -258.91,91.91 -55.58,-79.43 -88.05,-174.15 -127.01,-233.78 -189.04,-19.96 -229.33,96.99 -391.68,130.64l-45.57 -157.82c-86.08,-32.76 -270.55,-61.8 -347.19,11.19 -119.05,113.38 26.08,260.05 50.18,322.59zm103.68 70.34c-93.92,23.82 -314.52,56.67 -396.96,89.46 -152.94,60.83 -67.89,219.3 18.86,273.02 53.96,-85.75 32.62,-132.5 153.89,-132.24 89.92,0.2 167.54,50.06 198.68,104.64 124.22,217.78 -156.12,231.05 -258.82,272.77 7.72,75.7 95.38,203.67 133.23,251.21 65.15,0.44 440.35,-179.6 529.59,-224.35 107.32,-53.81 454.5,-171.38 534.39,-239.61 -12.71,-106.55 -117.18,-165.09 -95.49,-282.84 56.89,-87.57 114.49,-62.77 194.14,-122.38 19.84,-87.73 -7.37,-125.82 -64.2,-155.94 -61.92,36.74 -76.27,89.11 -123.22,141.33l-101.79 -3.87c-44.39,-58.24 -107.3,-173.81 -139.65,-257.53 -102.6,31.38 -144.5,99.4 -260.91,132.78 -267.7,76.82 -172.52,-40.09 -196.6,-168.05 -85.09,-49.82 -230.79,-36.2 -220,74.2 8.7,88.79 97.52,63.46 94.86,247.4z"/>
   <path class="fil12" d="M7133.26 1704.31c-591.26,-183.62 -945.02,455.25 -506.89,786.35 140.96,106.53 279.7,88.32 460.46,68.22 69.97,138.19 71.09,190.01 200.38,270.54 112.66,70.16 262.93,116.39 408.91,114.94 273.28,-2.7 556.33,-166.04 628.19,-348.16 162.98,43.93 195.21,111.56 415.35,67.87 365.15,-72.47 516.99,-653.35 -190.5,-689.91 58.9,-115.13 152.65,-277.56 -8.78,-386.69 -158.27,-106.98 -313.39,-5.85 -444.86,28.09 -30.81,-83.08 7.14,-134.16 -147.11,-269.13 -80.04,-70.04 -230.89,-86.3 -353.54,-66.02 -116.52,19.26 -232.25,63.29 -313.62,123.01 -100.76,73.94 -151.59,114.51 -147.99,300.89zm171.16 240.45c-197.16,-81.76 -58.04,-266.71 -434.24,-192.74 -365.11,71.79 -528.37,587.88 -80.79,729.69 336.81,106.72 295.39,-138.8 447.63,-155.01 -30.25,48.01 -205.07,220.32 4.2,384.39 440.12,345.06 965.71,19.57 1021.02,-164.16 35.47,-117.83 -32.85,-120.4 -56.33,-223.51 204.68,27.06 21.05,193.27 292.62,253.54 178.89,39.7 337.36,-1.77 424.45,-100.51 113.41,-128.56 65.94,-283.17 -48.07,-360.12 -186.01,-125.55 -257.06,-69.76 -454.83,-51.51 11.8,-125.56 271.61,-274.96 99.6,-422.76 -155.15,-133.33 -368.17,33.13 -465.57,59.93 -40.15,-80.04 26.09,-202.59 -147.27,-317.5 -254.57,-168.76 -905,141.26 -656.68,469.19 46.76,61.75 26.62,10.04 54.26,91.08zm-925.98 804.53c-171.64,18.33 -73.57,-6.46 -201.02,63.96 -14.65,106.14 -5.23,90.97 52.49,263.11 93.99,280.32 885.09,176.6 690.01,-196.67 -71.33,-136.47 -109.98,-51.8 -166.87,-167.81 -69.2,-141.11 -258.95,-213.67 -374.61,37.41zm-167.63 149.67c37.45,85.71 38.56,14.36 73.68,91.98 2.29,5.06 24.01,249.33 358.35,166.57 293.3,-72.61 239.11,-251.85 169.45,-291.87 -101.01,-58.06 -15.13,-7.47 -123.93,38.64 85,-161.84 -6.87,-326.04 -168.23,-252.79 -80.51,36.56 -59.05,123.56 -127.96,148.07 -97.49,34.69 -137.35,-26.99 -181.36,99.4zm-9.68 370.22c-82.58,40.12 -212.64,90.49 -204.17,228.59 7.69,125.28 149.25,210.94 274.68,150.36 384.03,-185.45 88.27,-456.08 -70.51,-378.95zm51.53 778.14c173.79,78.62 211.46,-65.61 203.52,-226.24 -4.16,-1.72 -131.58,-98.14 -233.47,-13.6 -44.22,36.69 -40.73,52.25 -26.42,123.66 0.99,4.91 18.57,56.06 19.67,58.54 26.32,59.31 -1.49,20.72 36.7,57.64zm-27.32 -711.16c-173.06,41.58 -233.32,396.53 74.31,184.27 35.54,-24.52 59.23,-22.88 67.41,-78.78 10.25,-70.03 -63.01,-124.41 -141.72,-105.49z"/>
   <path class="fil13" d="M18878.91 2892.88c-47.93,-150.99 -98.29,-330.67 -234.63,-386.44 -130.89,-53.55 -650.77,-28.6 -451.32,369.97 181.18,362.05 137.73,719.99 256.87,806.66 96.68,70.34 258.01,-4.82 355.06,-87.12 85.98,-72.91 163.43,-173.35 176.42,-275.62 10.63,-83.65 -71.95,-331.52 -102.4,-427.45z"/>
   <path class="fil14" d="M17725.7 2723.84c-277.65,179.11 -127.4,506.47 -59.4,697.21 49.75,139.54 114.51,612.05 512.29,403.63 252.41,-132.25 94.77,-551.56 53.59,-700.45 -71.62,-258.91 -212.12,-590.29 -506.48,-400.39z"/>
   <path class="fil14" d="M17085.59 2918.57c-245.18,129.28 -169.44,402.56 -95.61,678.02 73.61,274.64 190.83,582.21 504.87,430.4 71.53,-34.58 93.67,-66.91 116.9,-120.74 100.54,-232.85 52.29,-253.91 -32.22,-561.81 -72.1,-262.66 -194.97,-583.51 -493.94,-425.87z"/>
   <path class="fil13" d="M16896.41 3477.38c-57.08,0.23 -241.57,20.26 -270.81,86.83 -10.65,24.24 11.72,237.82 163.39,264.68 18.09,61.2 11.84,131.33 -6.63,166.26 -120.77,22.49 -146.16,-152.19 -171.87,-264.96 -27.07,-118.71 -119.31,-255.41 -94.61,-366.28 105.07,-13.94 57.49,133.14 175.58,142.98 33.01,1.5 147.71,-48.77 173.61,-85.51 37.87,-53.75 -17.83,-151.16 -58.15,-206.48 -197.55,-271.04 -558.27,-46.7 -582.02,171.92 -15.22,140.04 51.87,310.27 92.92,449.3 40.84,138.32 85.89,302.13 193.53,383.02 232.74,174.91 533.61,-29.63 507.68,-315.03 -10.13,-111.51 -66.83,-345.25 -122.62,-426.73z"/>
   <path class="fil9" d="M18559.57 3585.39c85.62,2.87 247.18,-80.69 303.96,-138.3 70.4,-71.43 78.97,-151.49 42.12,-275.85 -100.26,-338.32 -128.62,-788.65 -608.38,-595.3 -106.53,42.93 3.08,196.6 35.41,295.07 35.18,107.12 191.38,675.39 226.89,714.38z"/>
   <path class="fil9" d="M17076.82 2983.52c-159.91,155.82 -32.37,394.07 38.5,625.46 65.78,214.74 192.86,472.95 431.18,283.1 153.15,-122 25.11,-413.94 -35.15,-617.14 -31.94,-107.7 -72.08,-225.89 -150.03,-295.89 -57.09,-51.27 -189.91,-87.71 -284.5,4.47z"/>
   <path class="fil9" d="M17733.72 2772.23c-163.91,125.73 -29.96,411.61 33.8,616.69 67.45,216.93 181.94,476.08 422.96,302.38 169.26,-121.98 38.67,-411.67 -19.79,-612.64 -61.07,-209.92 -203.51,-485.5 -436.97,-306.43z"/>
   <path class="fil9" d="M16875.71 3530.41c-59.8,-9.82 -146.2,22.24 -209.31,54.08l34 96.21c40.63,6.45 65.64,3.66 91.98,10.84 58.31,105.63 110.77,330.37 -19.34,358.22 -134.67,28.83 -181.18,-184.95 -210.75,-303.78 -29.82,-119.82 -135.19,-302.55 -99.16,-414.64 18.63,-57.96 81.63,-94.56 148.96,-68.16 76.66,30.06 59.47,98.2 102.08,166.18 182.8,14.53 98.59,-134.16 29.68,-213.74 -56.78,-65.58 -157.8,-108.03 -271.7,-45.67 -209.97,114.97 -93.82,374.33 -14.32,595.71 74.84,208.39 146.03,493.79 403.56,363.68 92.08,-46.53 118.53,-143.24 106.33,-250.98 -8.44,-74.52 -60.11,-282.05 -92.01,-347.95z"/>
   <path class="fil15" d="M18395.46 2681.9c-5.81,71.66 132.57,458.59 164.62,559.55 27.31,86.05 35.71,144.03 75.7,199 298.71,-50.37 187.93,-176.31 120.45,-391.45 -87.43,-278.64 -84.9,-512.57 -360.77,-367.1z"/>
   <path class="fil15" d="M17453.68 3488.54l-112.64 -354.8c-24.25,-76.41 -65.94,-112.56 -144.03,-84.65 -152.56,54.51 -79.13,231.32 -39.98,325.36 32.08,77.04 40.81,136.19 61.34,214.84 34.13,130.77 96.41,276.95 225.78,236.44 134.2,-42.04 45.52,-223.82 9.53,-337.19z"/>
   <path class="fil15" d="M17770.12 3049.6l138.92 437.59c65.25,205.54 331.81,184.42 244.49,-90.63 -24.49,-77.15 -61.27,-151.11 -87.64,-232.56 -25.48,-78.71 -48.35,-158.89 -74.15,-237.44 -5.93,-18.05 -11.26,-36.4 -20.12,-51.52 -2.08,-3.57 -8.36,-13.18 -10.97,-16.09 -36.44,-40.64 -93.91,-28.64 -136.54,-4.94 -67.74,37.66 -81.8,107.98 -53.99,195.59z"/>
   <path class="fil16" d="M12727.2 3231.41c-107.61,35.98 -110.52,136.84 -147.14,265.95 -89.04,314 -173.62,671.16 -267.33,980.72 -84.18,278.07 -115.03,439.62 142.57,558.53 116.39,53.73 583.48,147.03 705.52,89.38 90.91,-42.95 110.05,-157.64 143.73,-263.72l291.72 -952.99c46.58,-159 86.75,-344.55 -25.86,-485.95 -85.59,-107.48 -749.92,-223.11 -843.21,-191.92z"/>
   <path class="fil9" d="M12356.39 4534.1l431.04 73.78c72.57,13.9 145.51,31.13 216.52,44.57l158.51 30.94c65.7,8.86 30.69,4.43 45,-7.98 14.99,-14.58 121.04,-432.32 139.99,-500.11 47.53,-170.04 120.53,-349.94 158.52,-512.13 -100.55,-11.31 -750.57,-179.62 -822.86,-225.78 -42.83,-12.96 -77.23,170.21 -95.56,243.21l-231.16 853.5z"/>
   <path class="fil17" d="M4323.37 5957.91c89.2,2.21 56.65,-22.19 111.76,-53.37 110.02,-62.23 127.09,4.67 289.03,-261.18 84.75,-139.12 825.45,-1358.65 854.16,-1376.06 32.18,71.72 -111.08,253.57 -154.73,324.35 -46.12,74.79 -260.59,332.31 -110.24,404.9 67.6,32.63 80.66,-14.44 80.7,-14.49 -78.85,-113.76 -192.36,70.36 81.32,-378.17 41.47,-67.96 79.04,-125.97 122.01,-192.75 21.81,-33.89 42.82,-64.31 43.86,-108.17 1.6,-66.98 -23.41,-53.33 -39.54,-100.38 154.38,-228.79 -167.14,-415.26 -388.66,-124.92 -189.75,248.71 -329.97,659.98 -476.63,912.07 -133.56,229.57 -389.85,560.53 -387.26,771.5 2.15,174.12 -35.04,74.76 -25.78,196.67z"/>
   <path class="fil15" d="M12799.74 3826.64c-96.57,-32.6 -71.95,-82.09 -160.11,201.68l-75.14 227.08c-30.23,43.13 -39.52,2.96 -52.4,51.46 65.41,31.63 394.69,84.29 517.29,116.09l123.83 33.21c36.52,1.58 -18.75,6.17 23.44,-1.12 37.44,-6.48 9.82,5.32 37.24,-14.3 -32.73,-43.14 -103.94,-47.26 -192.21,-71.4 49.75,-140.91 183.45,-447.19 199.83,-571.15l-118.14 -32.04 -67.24 174.87 -74.12 -17.56c-9.68,40 -21.5,63.08 -36.34,99.87 -8.91,22.09 -25.92,65.79 -38.39,99.72 -25.77,70.08 -45.89,128.54 -75.05,198.82l-40.45 -2.03c21.38,-124.8 171.14,-404.42 174.89,-510.67l-16.82 -16.18c-39.21,-29.43 -49.31,-26.1 -99.17,-31.11 -10.2,16.6 -23.98,44.22 -30.94,64.76z"/>
   <path class="fil9" d="M13191.02 4747.56c-129.98,-38.81 -718.29,-147.65 -856.17,-155.68 -30.12,239.51 -139.62,223.59 386.72,328.03 74.08,14.7 268.04,66.13 330.13,65.57 102.9,-0.91 142.99,-141.95 139.32,-237.92z"/>
   <path class="fil9" d="M4872.49 4857.24c76.18,29.72 122.79,76.93 220.38,95.03 43.21,-46.58 390,-640.17 392.61,-674.77l-294.64 472.01c-18.11,31.44 -29.08,51.32 -46.43,81.9 -32.77,57.76 -29.12,60.46 -63.51,78.16 -20.48,-40.46 6.52,-60.53 60.46,-155.11l286.8 -475.89 -196.91 -122.4c-65.94,64.32 -335.35,578.9 -358.76,701.07z"/>
   <path class="fil9" d="M12674.4 3362.83c7.61,34.45 351.15,123.92 403.34,138.02 76.03,20.52 397.52,119.89 450.36,102.41 42.52,-194.19 -107.2,-209.74 -351.85,-263.86 -75.07,-16.61 -358.61,-78.89 -424.88,-57.6 -49.24,15.81 -50.37,49.54 -76.97,81.03z"/>
   <path class="fil18" d="M4833.54 5363.16c-36.46,-20.05 -73.48,-19.79 -115.24,-44.08 -34.98,-20.35 -51.1,-44.72 -90.01,-61.98 -34.62,60.27 -379.41,592.85 -178.42,587.44 127.37,-3.42 346.2,-398.1 383.67,-481.38z"/>
   <path class="fil9" d="M5263.44 4101.11c23.15,43.69 99.27,98.6 168.52,116.43 84.54,21.75 149.87,-44.52 158.1,-115.43 17.32,-149.15 -230.94,-172.65 -326.62,-1z"/>
   <path class="fil16" d="M11188.14 2119.31c-40.65,-47.58 -91.23,-119.14 -154.15,-121.14 -1.72,2.91 -4.53,3.43 -5.27,8.67 -25.71,181.1 -6.49,209.43 -263.65,221.72 9.53,77.25 78.86,108.32 169.19,158.9 -7.68,31 -347.87,563.65 -57.3,958.27 28.62,38.87 162.65,158.11 218.57,193.22 205,128.67 430.84,125.82 661.41,48.87 225.06,-75.11 436,-266.85 570.29,-460.86 383.67,-554.27 137.06,-1424.7 -598.85,-1285.29 -156.91,29.73 -440.13,145.37 -540.24,277.64zm14.23 55.53c15.26,38.45 16.1,61.07 27.41,95.83 15.76,48.44 33.37,30.81 66.93,70.06 201.87,-217.87 747.02,-339.39 800.93,48.9 89.81,646.84 -567.37,998.51 -896.72,777.92 -217.47,-145.66 -153.55,-460.68 -40.2,-657.84 15.84,-27.55 41.21,-55.64 48.12,-76.29 -90.04,-76 -30.73,-1.4 -227.94,-17.36 -77.7,184.32 -162.79,236.02 -168.53,565.96 -8.64,496.03 511.98,590.37 866.52,435.81 77.82,-33.92 224.56,-112.64 276.73,-168.64 18.95,-20.34 28.27,-30.23 49.56,-45.74 150.92,-109.94 290.93,-407.82 322.43,-613.13 47.69,-310.72 23.12,-670.75 -355.05,-710.43 -266.41,-27.95 -465.76,71.73 -670.22,206.83 -34.78,22.98 -21.73,8.76 -54.13,43.02 -18.15,19.19 -29.41,26.68 -45.84,45.1zm136.57 200.49c51.43,28.37 83.14,68.15 131.07,106.71 48.48,38.99 67.09,-13.37 146.43,-28.67 190.1,-36.67 230.77,126.77 168.24,288.08 -41.25,106.42 -152.27,204.69 -301.54,175.36 -174.54,-34.28 -131.05,-234.9 -75.52,-322.85l-161.39 -118.86c-19.51,42.34 -109.98,135.21 -132.12,301.33 -59.29,444.76 394.72,545.5 763.78,196.03 120.95,-114.53 271.22,-525.17 114.41,-697.58 -189.45,-208.29 -489.94,-30.65 -653.36,100.45zm203.17 160.77c9.44,13.71 37.14,38.24 54.5,55.7 121.21,121.95 -92.08,127.32 -144.54,36.56 -131.34,166.2 37.15,334.24 214.62,188.64 113.9,-93.44 145.92,-324.72 -11.2,-319.06 -41.3,1.5 -75.56,26.34 -113.38,38.16z"/>
   <path class="fil2" d="M16191.53 2461.26c104.49,177.64 245.22,360.06 520.03,358.15 21.6,-129.4 -131.95,-189.87 -70.4,-422.88 161.82,-26.52 292.52,-79.22 363.41,-194.95 93.92,-153.35 66.98,-324.89 -10.09,-465.77 -312.54,-571.29 -1346.65,-552.63 -1366.53,129.82 -9.38,321.71 193.34,585.26 563.58,595.63z"/>
   <path class="fil4" d="M16262.59 2350.83c35.24,58.45 37.16,251.74 293.16,324.36 -18.22,-62.15 -24.95,-139.19 -19.21,-219.31 10.09,-140.67 7.38,-140.75 117.84,-153.15 155.11,-17.41 270.04,-80.22 303.19,-244.19 54.86,-271.36 -250.9,-509.51 -488.92,-577.19 -152.56,-43.38 -321.73,-44.9 -456.07,11.37 -309.12,129.48 -338.87,491.77 -151.6,724.61 116.38,144.67 199.83,121.48 401.61,133.5z"/>
  </g>
 </g>
</svg>
