
<svg xmlns="http://www.w3.org/2000/svg" xml:space="preserve" version="1.1" style="shape-rendering:geometricPrecision; text-rendering:geometricPrecision; image-rendering:optimizeQuality; fill-rule:evenodd; clip-rule:evenodd"
viewBox="0 0 16933.32 15239.98"
 xmlns:xlink="http://www.w3.org/1999/xlink"> <!--      width="169.333mm" height="152.4mm"         -->
 <defs>
  <style type="text/css">
   <![CDATA[
    .fil1 {fill:#0C0A0D}
    .fil3 {fill:#1C1A1C}
    .fil5 {fill:#313131}
    .fil4 {fill:#5D5D5D}
    .fil7 {fill:#787878}
    .fil11 {fill:#939393}
    .fil10 {fill:#ACACAC}
    .fil6 {fill:#BCBCBC}
    .fil9 {fill:#E2E2E2}
    .fil8 {fill:#FBFBFB}
    .fil2 {fill:#FEFEFE}
    .fil0 {fill:#FFC702}
   ]]>
  </style>
 </defs>
 <g id="Capa_x0020_1">
  <metadata id="CorelCorpID_0Corel-Layer"/>
  <g id="_2425546663840">
   <path class="fil0" d="M8161.93 9213.54c-59.43,36.27 -145.36,-61.07 -191.19,-103.47 -58.65,-54.27 -110.08,-104.68 -161.4,-156.61 -244.06,-247 -704.48,-914.7 -593.64,-1232.53 203.54,0.65 17.29,227.19 431.05,831.15 88.18,128.72 175.98,228.33 281.01,336.32 156.44,160.82 343.2,258.59 234.17,325.14zm-968.35 -1778.42c-59.44,-193.3 159.43,-193.3 110.78,-12.95 -37.03,20.2 -66.48,24.36 -110.78,12.95zm79.6 -448.5c-129.48,-245.06 482.38,-883.49 590.53,-820.73 94.46,54.81 -171.14,206.58 -316.99,369.54 -283.96,317.25 -91.08,452.68 -273.54,451.19zm1180.32 3876.5l657.96 -47.48c6.78,-147.35 -42.01,-446.22 -49.86,-622.49 -9.7,-218.07 -3.76,-434.1 7.66,-651.1 21.95,-417.37 103.01,-814.9 138.77,-1215.68 -496.23,92.52 -177.92,-89.26 -477.93,-16.19 13.23,166.72 75.67,390.98 98,579.21 22.14,186.6 127.22,1845.82 103.32,1884.62 -68.41,-24.03 -48.98,-93.61 -62.61,-272.77 -7.91,-104.09 -12.44,-212.37 -20.04,-318.41 -15.13,-211.16 -21.26,-442.25 -28.31,-658.21 -10.55,-323.48 -57.71,-916.02 -156.81,-1194.61 -234.35,-3.63 -358.96,-22.84 -333.46,-275.57 96.23,-63.43 150.7,-104.02 257.32,-2.5 91.77,87.38 93.02,256.36 185.15,186.04 28.51,-40.93 7.41,16.8 12.34,-37.43 5.17,-56.84 -25.08,-97.15 4.81,-174.05 30.29,-77.9 92.96,-107.72 166.31,-78.48 144.41,112.67 -27.35,236.83 -56.97,305.76 97.33,54.7 230.27,75.59 314.3,-18.19 37.51,-70.59 33.48,-185.04 70.94,-261.62 92.31,-188.73 396.77,-198.94 128,161.98 -88.55,118.91 -127.51,65.45 -155.66,264.39 -106.73,754.27 -221.11,1668.89 -76.13,2413.25l340.23 -6.35c-120.02,-1860.55 378.5,-1444.78 1109.35,-3111.08 242.22,-552.26 120.98,-1197.75 -325.8,-1572.68 -350.2,-293.87 -1135.31,-516.49 -1652.68,-473.49 -678.09,56.36 -1126.04,273.74 -1435.61,695.88 -313.05,426.88 -434.14,1088.8 -252.63,1724.16 286.4,1002.51 1277.49,1453.83 1409.98,1802.98 38.05,100.26 77.92,829.87 80.06,990.11z"/>
   <path class="fil1" d="M8878.5 12178.63c-78.12,0.19 -189.22,-0.44 -257.43,-32.5 -76.19,-35.82 -123.91,-100.29 -63.05,-173.46 33.79,-13.95 410.73,-38.47 495.92,-49.66 114.68,-15.07 368.98,-84.68 465.54,-55.89 81.81,24.4 206.41,212.62 -112.2,270.16 -136.57,24.65 -387.37,39.95 -528.78,41.35zm897.56 -585.27c-81.63,142.75 -977.04,248.85 -1264.89,219.29 -119.63,-12.29 -321.39,-114.03 -242.74,-246.72 38.83,-65.51 735.69,-137.94 853.85,-153.14 138.34,-17.79 298.48,-45.94 432.46,-60.22 156.41,-16.67 309.71,86.21 221.32,240.79zm-1705.18 -429.34c85.27,-42.9 114.99,-142.2 390.03,-182.57 164.22,-24.11 371.91,-31.25 540.38,-37.86 188.49,-7.39 376.47,-16.49 565.21,-16.72 144.16,-0.18 468.89,-20.58 350.59,183.41 -66.38,114.43 -302.13,112.75 -456.62,119.18 -550.19,22.89 -1373.96,372.86 -1389.59,-65.44zm570.69 -2898.45c-74.66,10.6 -150.64,3.08 -202.15,-30.21 -60.99,-39.42 -84.59,-120.52 -30.31,-167.67 91.4,-79.41 215.59,109.68 232.46,197.88zm219.29 -79.9c-59.66,-78.34 -6.75,-197.14 52.34,-189.33 89.59,11.82 3.48,158.3 -52.34,189.33zm433.75 -23.42c20.16,-140.49 48.01,-238.71 171.48,-258.14 -17.31,90.46 -99.23,209.54 -171.48,258.14zm226.22 2644.99l-340.23 6.35c-144.98,-744.36 -30.6,-1658.98 76.13,-2413.25 28.15,-198.94 67.11,-145.48 155.66,-264.39 268.77,-360.92 -35.69,-350.71 -128,-161.98 -37.46,76.58 -33.43,191.03 -70.94,261.62 -84.03,93.78 -216.97,72.89 -314.3,18.19 29.62,-68.93 201.38,-193.09 56.97,-305.76 -73.35,-29.24 -136.02,0.58 -166.31,78.48 -29.89,76.9 0.36,117.21 -4.81,174.05 -4.93,54.23 16.17,-3.5 -12.34,37.43 -92.13,70.32 -93.38,-98.66 -185.15,-186.04 -106.62,-101.52 -161.09,-60.93 -257.32,2.5 -25.5,252.73 99.11,271.94 333.46,275.57 99.1,278.59 146.26,871.13 156.81,1194.61 7.05,215.96 13.18,447.05 28.31,658.21 7.6,106.04 12.13,214.32 20.04,318.41 13.63,179.16 -5.8,248.74 62.61,272.77 23.9,-38.8 -81.18,-1698.02 -103.32,-1884.62 -22.33,-188.23 -84.77,-412.49 -98,-579.21 300.01,-73.07 -18.3,108.71 477.93,16.19 -35.76,400.78 -116.82,798.31 -138.77,1215.68 -11.42,217 -17.36,433.03 -7.66,651.1 7.85,176.27 56.64,475.14 49.86,622.49l-657.96 47.48 -208.23 45.21c-40.92,-390.65 58.65,-704.48 -120.11,-1052.5 -90.88,-176.93 -387.46,-444.03 -554.07,-610.82 -101.98,-102.1 -178.37,-206.26 -278.56,-304.14 -35.65,-34.83 -49.3,-39.71 -79.39,-78.18 -27.65,-35.37 -29.34,-43.91 -62.59,-79.54 -184.85,-198.04 -446.29,-599.11 -540.48,-887.17 -229.29,-701.19 -102.54,-1197.24 400.4,-1685.35 32.85,-31.89 41.7,-44.98 77.1,-81.46 105.94,-109.19 459.3,-336.69 595.58,-409.82 240.01,-128.81 540.69,-239.08 858.35,-285.2 1066.54,-154.87 2762.57,583.14 2409.58,2088.85 -288.39,1230.17 -1320.34,1537.36 -1268.46,2796.21 7.61,184.66 65.27,339.26 77.32,487.54l-239.11 0.49zm-1391.13 172.67c-94.89,26.93 -176.87,119.89 -145.33,266.16 30.07,139.46 110.59,165.2 209.88,219.7 -156.82,354.56 126.28,388.78 267.37,458.66 -176.37,425.31 491.86,368.05 699.43,353.89 158,-10.79 328.18,-4.79 460.87,-85.57 173.37,-105.54 100.4,-250.12 37.2,-394.39 117.05,-46.13 192.54,-75.84 241.35,-175.71 66.18,-135.4 2.61,-248.51 -60.4,-315.65 48.85,-31.83 310.27,-152.19 200.6,-367.12 -47.67,-93.42 -121.36,-77.07 -151.98,-147.18 -19.3,-44.16 -49.73,-198.47 -60.17,-258.5 -64.7,-371.92 -10.6,-747.85 138.96,-1049.3 312.25,-629.38 1277.03,-1435.04 1141.52,-2574.53 -58.19,-489.28 -278.39,-725.82 -562.31,-993.67 -364.55,-343.92 -1058.5,-602.23 -1579.19,-627.67 -738.59,-36.1 -1421.43,310.85 -1842.73,647.85 -224.27,179.39 -142.5,135.04 -236.62,222.15 -786.61,727.96 -575.09,1732.27 39.8,2546.82 303.84,402.48 937.09,975.35 1055.34,1149.48 182.65,268.97 131.8,747.74 146.41,1124.58z"/>
   <path class="fil2" d="M8070.88 11164.02c15.63,438.3 839.4,88.33 1389.59,65.44 154.49,-6.43 390.24,-4.75 456.62,-119.18 118.3,-203.99 -206.43,-183.59 -350.59,-183.41 -188.74,0.23 -376.72,9.33 -565.21,16.72 -168.47,6.61 -376.16,13.75 -540.38,37.86 -275.04,40.37 -304.76,139.67 -390.03,182.57z"/>
   <path class="fil2" d="M9776.06 11593.36c88.39,-154.58 -64.91,-257.46 -221.32,-240.79 -133.98,14.28 -294.12,42.43 -432.46,60.22 -118.16,15.2 -815.02,87.63 -853.85,153.14 -78.65,132.69 123.11,234.43 242.74,246.72 287.85,29.56 1183.26,-76.54 1264.89,-219.29z"/>
   <path class="fil2" d="M8878.5 12178.63c141.41,-1.4 392.21,-16.7 528.78,-41.35 318.61,-57.54 194.01,-245.76 112.2,-270.16 -96.56,-28.79 -350.86,40.82 -465.54,55.89 -85.19,11.19 -462.13,35.71 -495.92,49.66 -60.86,73.17 -13.14,137.64 63.05,173.46 68.21,32.06 179.31,32.69 257.43,32.5z"/>
   <path class="fil2" d="M7215.7 7720.93c-110.84,317.83 349.58,985.53 593.64,1232.53 51.32,51.93 102.75,102.34 161.4,156.61 45.83,42.4 131.76,139.74 191.19,103.47 109.03,-66.55 -77.73,-164.32 -234.17,-325.14 -105.03,-107.99 -192.83,-207.6 -281.01,-336.32 -413.76,-603.96 -227.51,-830.5 -431.05,-831.15z"/>
   <path class="fil2" d="M7273.18 6986.62c182.46,1.49 -10.42,-133.94 273.54,-451.19 145.85,-162.96 411.45,-314.73 316.99,-369.54 -108.15,-62.76 -720.01,575.67 -590.53,820.73z"/>
   <path class="fil3" d="M11295.39 8572.67c13.99,46.72 -25.61,15.6 94.71,82.08 127.66,70.53 826.89,385.78 929.91,375.51 40.38,-4.02 21.45,-3.89 43.33,-16.57 -27.8,-34.19 33.68,-11.48 -123.84,-64.35 -227.22,-76.26 -613.42,-224.7 -813.28,-349.57 -62.77,-39.22 -71.28,-66.89 -130.83,-27.1z"/>
   <path class="fil3" d="M10966.99 5636.95c73.8,7.57 159.46,-94.66 198.38,-140.26 72.97,-85.49 126.73,-119.54 193.02,-177.62 65.57,-57.45 108.6,-120.31 177.59,-174.41 59.97,-47.03 159.37,-114.3 167.41,-205.18 -86.63,18.64 -50.56,12.22 -107.49,70.14 -75.21,76.52 -106.01,63.79 -282.2,264.46 -53.3,60.71 -350.82,275.75 -346.71,362.87z"/>
   <path class="fil3" d="M9972.37 4988.89c69.35,-8.26 44.99,-9.55 135.49,-144.82 77.87,-116.38 341.88,-468 333.35,-550.8 -65.43,-3.56 -38.94,-7.77 -77.44,49.5l-295.49 445.62c-38.3,57.68 -105.08,114.37 -95.91,200.5z"/>
   <path class="fil3" d="M5005.41 7390.73c27.07,31.89 -30.66,40.13 185.82,20.99 275.27,-24.34 314.33,-14.13 574.74,9.99 79.47,7.35 44.98,19.76 92.71,-13.39 -45.93,-101.07 -748.62,-89.5 -853.27,-17.59z"/>
   <path class="fil3" d="M8931.42 4801.34c12.88,-15.6 28.38,-6.22 25.1,-91.01 -1.42,-36.7 -11.29,-82.96 -14.9,-121.8 -13.73,-147.69 -17.74,-584.55 -93.93,-613.57 -31.26,95.63 8,317.79 18.31,428.27 6.44,68.96 12.59,139.91 18.36,208.84l11.99 148.46c23.92,66.76 -5.38,14.27 35.07,40.81z"/>
   <path class="fil3" d="M11536.23 6790.94c20.4,27.35 -43.89,37.08 164.71,40.19l383.74 -11.45c79.71,-5.94 121.34,6.02 156.23,-46.38 -54.79,-43.29 -245.09,-8.04 -327.62,-6.1 -129.42,3.03 -319.33,-22.15 -377.06,23.74z"/>
   <path class="fil3" d="M6319.02 5785.41c-32.98,-72.36 -15.63,-27.17 -136.04,-93.41 -56.52,-31.09 -99.61,-59.95 -151.84,-93.98 -66.15,-43.09 -218.12,-167.6 -285.15,-174.57 -18.43,77.54 -27.19,24.8 31.03,76.1 33.62,29.62 41.21,32.45 70.94,53.46l303.23 191.26c68.69,35.53 106.8,85.98 167.83,41.14z"/>
   <path class="fil0" d="M8641.57 8265.57c-16.87,-88.2 -141.06,-277.29 -232.46,-197.88 -54.28,47.15 -30.68,128.25 30.31,167.67 51.51,33.29 127.49,40.81 202.15,30.21z"/>
   <path class="fil3" d="M5760.53 9363.28c82.66,-2.54 125.77,-117.18 253.91,-214.88 48.32,-36.84 79.4,-76.99 123.05,-123.51 47.75,-50.91 91.02,-69.11 103.66,-159.4 -82.09,12.25 -27.43,-15.96 -85.52,36.94l-171.68 198.56c-74.81,93.59 -186.01,140.99 -223.42,262.29z"/>
   <path class="fil3" d="M7142.16 4563.99c-7.14,52.67 110.56,188.62 146.75,235.23l139.47 177.25c49.13,51.02 -19.46,29.98 75.94,35.33 -16.93,-105.65 -189.23,-275.89 -253.53,-367.24 -14.35,-20.38 -36.24,-71.72 -75.16,-82.84 -27.72,-7.92 -24.95,0.02 -33.47,2.27z"/>
   <path class="fil0" d="M9294.61 8162.25c72.25,-48.6 154.17,-167.68 171.48,-258.14 -123.47,19.43 -151.32,117.65 -171.48,258.14z"/>
   <path class="fil2" d="M7193.58 7435.12c44.3,11.41 73.75,7.25 110.78,-12.95 48.65,-180.35 -170.22,-180.35 -110.78,12.95z"/>
   <path class="fil0" d="M8860.86 8185.67c55.82,-31.03 141.93,-177.51 52.34,-189.33 -59.09,-7.81 -112,110.99 -52.34,189.33z"/>
   <path class="fil4" d="M11597.79 11614.34c56.98,59.54 1400.92,560.79 1646.64,668.91l1671.34 636.73c30.54,-6.71 90.87,-92.32 109.01,-122.98 45.75,-77.33 25.52,-118.08 19.22,-212.38 -11.75,-176.02 -26.3,-796.38 6.93,-944.95 17.37,-77.64 91.53,-260.61 123.63,-351.11 86.57,-244.11 480.82,-1233.15 485.91,-1413.14 -538.36,-294.15 -809.34,-349.69 -1353.65,-564.17 -238.08,-93.82 -449.28,-190.21 -697.59,-273.52 -622.67,-208.89 -568.42,-150.97 -681.49,43.14 -210.94,362.14 -444.92,1163.41 -538.89,1615.85 -24.91,119.95 -28.08,108.96 -153.37,213.32l-327.84 272.59c-125.9,125.79 -319.49,290.69 -309.85,431.71z"/>
   <path class="fil5" d="M15717.77 8597.84c-39.65,15.55 -33.03,4.51 -63.55,28.49 -7.57,137.35 101.04,726.05 173.08,804.95 54.36,1.49 290.12,-63.33 323.1,-94.26 4.26,-56.33 -131.92,-674.46 -154.66,-763.49l-102.8 -3.11 -25.18 -114.57c98.33,-52.87 104.79,-13.03 301.26,-135.98 289.93,-181.42 460.71,-524.59 419.56,-902.04 -54.4,-499.05 -436.13,-820.9 -1002.79,-742.59 -486.88,67.29 -812.25,452.85 -719.68,1011.8 63.29,382.16 365.82,736.95 759.39,778.26 94.46,9.91 90.49,22.63 92.27,132.54zm-124.33 -1850.99c-1154.85,174.22 -663.72,1886.09 280.83,1646.44 406.9,-103.24 715.95,-502.73 658.99,-966.92 -55.34,-450.9 -421,-757.79 -939.82,-679.52zm66.48 80.7c-105.01,10.26 -206.61,39.31 -291.89,82.91 -268.44,137.21 -405.34,401.43 -347.92,741.39 61.87,366.28 370.82,731.03 796.95,674.59 521.67,-69.09 820.62,-704.97 568.56,-1121.55 -27.38,-45.24 -46.28,-69.95 -72.41,-106.52 -70.05,-98.01 -205.91,-194.91 -323.89,-235.89 -109.2,-37.93 -210.02,-46.6 -329.4,-34.93zm-91.03 74.29c-392.39,76.88 -583.94,464.2 -458.46,851.11 53.24,164.16 156.88,343.69 267.02,412.29 571.75,356.15 1149.27,-215.41 1027.81,-753.34 -75.58,-334.74 -454.29,-584.92 -836.37,-510.06zm135.77 1754.09c11.89,138.45 100.45,618.4 158.41,711.8l225.53 -62.62 -133.94 -681.21 -250 32.03z"/>
   <path class="fil6" d="M12469.32 10767.57l133.12 56.57c620.26,178.86 1127.7,374.81 1730.67,599.18 107.48,39.99 546.57,213.46 612.03,212.07l622.89 -1712.27c-68.47,-7.68 -406.01,-167.87 -517.65,-207.11 -161.93,-56.9 -357.71,-134.94 -522.27,-201.23 -523.23,-210.76 -739.72,-357.49 -1311.7,-508.13 -173.24,-45.62 -140.16,2.15 -200.93,127.46 -115.19,237.54 -121.16,205.83 -223.77,499.12 -100.26,286.53 -167,556.49 -242.77,849.73 -23.69,91.69 -74.15,217.36 -79.62,284.61z"/>
   <path class="fil7" d="M14466.66 4214.59c166.83,10.31 1328.18,-144.87 1440.24,-221.63 32.83,-22.48 47.19,-42.44 71.13,-73.27l105.45 -141.45c2.2,-2.98 5.21,-7.27 7.49,-10.15 36.41,-46.07 49.28,-33.38 69.16,-89.55 27.4,-77.44 -59.17,-340.73 -75.86,-445.56 -51.42,-323.03 -69.22,-620.11 -139.11,-953.34 -22.92,-109.29 -39.53,-387.26 -152.75,-420.57 -253.55,-74.6 -730.37,44.3 -972.12,106.69 -138.12,35.64 -279.32,97.05 -420.38,125.32 -446.02,89.41 -276.38,372.85 -215.81,736.52 26.07,156.49 48.43,315.17 77.58,470.04 61.07,324.5 134.71,608.33 204.98,916.95z"/>
   <path class="fil5" d="M4532.14 2544.51c-13.76,91.44 38.23,180.87 52.45,274.61l-251.45 62.3c21.98,-82.16 93.09,-101.93 50.06,-186.44 -113.64,0.02 -183.94,194.46 -200.75,300.55 45.7,45.79 111.37,68.42 168.17,103.5 60.59,37.41 112.9,102.6 196.56,60.48 13.42,-105.6 -96.33,-106.23 -166.33,-168.06l230.38 -44.16c104.61,183.21 206.08,1184.14 276.6,1237.13 70.18,52.74 1546.75,-52.08 1602.74,-71.83 41.54,-14.65 21.04,-5.93 42.64,-28.54 49.37,-75.28 78.14,-767.98 84.74,-914.11 7.54,-167.16 4.9,-327.91 9.14,-491.95 7.48,-289.24 50.11,-287.14 -232.8,-275.7 -300.81,12.17 -1687.07,45.91 -1862.15,142.22z"/>
   <path class="fil8" d="M12723.76 10661.73c162.11,48.4 354.63,108.54 526.78,157.77 342.35,97.92 1016.64,338.55 1310.28,456.75 44.47,17.91 83.89,34.33 123.48,50.96l125.63 57.88c0.79,-126.26 157.74,-552.7 205.15,-670.52 25.65,-63.72 43.05,-95.81 66.3,-160.77l204.94 -474.22c-3.81,-61.96 11.37,-17.14 -23.59,-43.55l-2075.85 -838.58c-48.62,76.38 -449.7,1330.43 -463.12,1464.28z"/>
   <path class="fil5" d="M4921.34 12780.9c34.35,188.03 116.05,151.22 248.02,204.3 43.74,30.79 63.13,168.89 273.54,206.5 14.61,2.61 69.57,8.36 82.65,7.37 185.25,-14.1 -14.12,-79.42 -21.49,-319.98 34.13,-34.65 84.97,-77.17 110.09,-123.09 60.3,-110.27 -11.3,-54.05 109.06,-120.27 79.57,-43.77 172.21,-154.61 226.19,-232.8 587.92,-851.62 -1054.57,-1728.8 -1900.25,-929.76 -465.47,439.79 -387.96,930.73 98.53,1144.01 302.82,132.76 462.24,94.47 773.66,163.72zm-546.43 -1085.05c-108.35,-219.53 246.8,-127 290.25,-395.83 -261.44,27.48 -383.14,133.34 -554.34,255.66 13.2,26.95 10.68,15.36 22.55,33.21 118.98,179.06 -61.32,374.61 130.76,452.35 102.95,41.68 134.23,-16.37 208.37,26.37 -39.86,117.92 -154.24,42.76 -242.11,61.53 -17.8,248.97 373.15,183.37 254.54,398.87 -140.73,-8.27 43.56,-20.31 -195.43,-159.06 -84.51,-49.06 -134.38,-103.16 -118.96,-227.05 13.95,-112.07 26.76,-24.15 -32.98,-114.51 -30.35,-45.9 -37.8,-72.68 -33.62,-131.97 8.08,-114.39 66.62,-197.34 -6.07,-282.82 -58.35,10.28 -35.34,1.97 -75.66,45.74 -400.42,434.59 -126.85,851.64 515.64,1002.72 47.71,-64.01 17.55,-154.19 228.35,-242.37 102.28,-42.79 178.63,-24.7 241.3,-110.13 52.84,-72 -17.77,-39.5 59.58,-63.28 46.16,86.36 -43.79,128.66 -84.82,173.07 152.66,102.27 267.49,55.83 384.32,-51.31 53.97,-49.49 70.54,-102.93 163.5,-119.46 89.12,-15.84 178.39,-6.17 189.4,84.65 -85.85,38.83 -126.24,-101.46 -282.83,69.58 -60.44,66.02 -158.85,138.64 -299.22,132.84 -200.61,-8.28 -141.35,-129.29 -312.11,-75.16 -103,32.66 -205.25,94.75 -212.65,207.91 125.55,69.21 295.95,-15.41 364.64,107.46 57.01,101.97 55.8,83.15 166.25,114.09 99.65,27.92 32.39,-12.28 75.01,50.88 48.03,71.18 95.41,177.37 299.44,159.91 -49.3,-64.34 -95.34,-156.75 -92.55,-268.7 168.95,-107.45 81.26,-170.44 218.58,-239.66 171.4,-86.42 429.58,-531.28 278.94,-587.58 -137.37,-51.33 -119.51,212.37 -287.27,134.38 6.71,-81.79 -9.4,-23.23 56.73,-62.12 135.73,-79.83 38.83,-157.73 253.11,-132.45 -46.31,-162.38 -140.91,-292.52 -243.4,-360.9 -133.64,33.88 -182.62,97.51 -208.51,239.98 -20.21,111.28 -89.18,272.23 -225.87,209.64 29.56,-76.04 91.25,-6.18 147.02,-109.75 31.98,-59.41 49.94,-171.14 33.95,-236.03 -153.76,-66.63 -223.72,11.18 -368.95,22.19 -130.5,9.89 -279.81,-49.4 -270.38,-163.58 111.01,-9.56 66.05,121.15 323.41,76.77 196.96,-33.97 203.18,-44.6 365.11,29.17 44.9,-41.71 108.67,-82.54 150.08,-129.13 -332.56,-178.81 -469.88,-268.37 -938.96,-233.86 -23.57,267.27 -172.2,225.82 -248.47,297.9 -70.31,66.45 1.38,73.05 -85.67,109.84z"/>
   <path class="fil9" d="M11786.25 11432.3c114.56,8.2 2172.24,790.33 2414.16,896.78 129.44,56.96 253.61,102.64 385.97,160.03 133.12,57.71 264.29,126.15 380.73,179.32l-15.31 -948.2 -841.14 -287.15c-147.15,-47.93 -277.87,-95.73 -420.31,-144.06 -70.78,-24.02 -131.44,-53.01 -203.51,-80.39l-107.56 -32.75c-169.44,-52.65 -308.79,-123.27 -534.58,-188.85 -93.85,-27.27 -371.77,-128.88 -446.6,-92.42l-162.2 122.45c-41.06,31.85 -30.47,36.02 -70.51,69.01 -94.45,77.83 -40.19,5.26 -150.68,131.35l-228.46 214.88z"/>
   <path class="fil9" d="M14475.38 2161.24c123.44,542.62 170.25,1094.86 300.56,1622.47 140.5,28.83 1065.07,-149.64 1270.23,-182.71 4.79,-57.59 -119.63,-669.29 -140.58,-801.51l-123.3 -850.02c-444.38,-1.1 -911.72,92.99 -1306.91,211.77z"/>
   <path class="fil10" d="M9469.91 12865.31c-7.29,122.35 3.89,69.31 120.08,239.94 132.15,194.08 158.14,146.75 153.77,518.31 -0.42,35.53 -3.29,152.53 8.61,179.52 48.88,110.91 104.64,-3.79 377.5,30.96 59.72,7.61 50.21,44.84 121.25,127.52 162.38,188.96 158.53,248.05 282.48,255.92l1033.16 -1597.52c92.45,-155.79 135.46,-184.37 99.86,-283.87 -284.56,-56.14 -2006.81,421.91 -2196.71,529.22z"/>
   <path class="fil4" d="M12555.72 5770.84c0,158.28 23.49,255.49 35.79,436.06 4.76,69.98 -42.35,98.24 -87.13,129.82 -57.27,40.39 -90.44,81.09 -139.1,139.75 2.6,93.99 15.82,211.62 66.86,286.92 99.79,11.06 228.5,-65.11 305.29,-26.76 123.49,61.69 218.38,29.66 347.51,37.76 -46.57,78 -61.56,245.09 -5.64,326.29 55.63,44.15 414.4,-23.69 561.26,-165.54 -22.29,-118.99 -93.66,-174.11 -156.88,-246.98 20.68,-14.38 70.15,-42.95 109.54,-72.22 73.69,-54.76 40.05,-37.43 96.26,-100.49 54.99,-61.69 183.95,-76.81 276.53,-121.18 -5.62,-72.23 -38.32,-223.66 -98.82,-259.79 -47.4,-28.31 -224.78,-67.59 -279.97,-76.39 -91.64,-365.24 -388.43,-791.6 -555.85,-992.46l-211.31 -179.67c-141.25,-72.78 -132.64,65.47 -165.86,191.25 -58.67,222.16 -98.48,456.79 -98.48,693.63z"/>
   <path class="fil5" d="M8555.89 2783.51c-100.33,71.23 -167.67,86.92 -234.62,172.92 -300.6,386.16 -178.55,912.67 -19.94,861.11 11.81,-57.85 -75.37,-197.46 -80.1,-312.19 -5.12,-124.21 20.71,-237.89 68.46,-334.9 225.43,-457.92 835.76,-416.81 1027.81,-99.07 130.01,215.09 93.88,600.4 139.85,677.56 97.58,-4.83 82.4,-84.23 65.22,-267.43 -9.86,-105.14 -28.76,-221.84 -63.47,-320.09 -36.75,-103.98 -78.02,-166.91 -139.66,-235.52 -99.91,-111.2 -176.56,-111.72 -229.19,-156.82 440.07,-356.73 252.09,-1012.89 -249.23,-995.68 -357.39,12.27 -567.73,470.18 -479.65,767.81 44.55,150.54 104.2,164.96 194.52,242.3z"/>
   <path class="fil8" d="M4822.74 2713.97c40.62,174.14 62.19,104.83 240.16,148.05 208.71,50.67 404.99,115.73 553.08,258.95 48.5,46.9 163.55,161.27 107.92,256.27 -119.52,-26.9 0.44,-146.4 -320.02,-290.17 -101.49,-45.53 -378.76,-138.17 -501.89,-119.09 97.53,213.47 166.23,686.56 190.05,942.44 173.36,-6.25 190.09,-59.42 597.4,-48.3 188.2,5.14 458.36,40.82 634.25,19.62 63.39,-160.58 84.91,-1018.01 64.05,-1215.05 -495.47,11.55 -1071.28,74.56 -1565,47.28z"/>
   <path class="fil5" d="M10106.86 2938.41c-178.69,163.97 -273.77,519.9 -206.01,761.26 21.83,77.76 17.47,78.21 85.59,84.53 -3.13,-127.41 -106.91,-237.14 22.63,-582.85 153.52,-409.66 644.09,-363.04 788.89,19.75 116.62,308.31 23.84,530.82 143.95,540.14 92.06,-103.58 24.99,-596.89 -223.9,-806.08 -87.22,-73.3 -137.53,-74.53 -254.22,-120.61 125.04,-74.55 236.04,-404.87 229.13,-598.77 -18.01,-504.72 -837.95,-465.13 -900.56,143.6 -18.82,183.04 42.22,362.86 175.77,474.53 49.32,41.24 83.97,43.84 138.73,84.5z"/>
   <path class="fil6" d="M14177.52 6799.54c4.51,70.07 15.89,67.75 64.39,95.03 32.89,18.49 50.25,34.18 90.32,46.09 -36.55,107.12 -150.13,189.78 -150.13,560.34 0,164.92 53.25,354.36 139.9,478.66 35.7,51.21 70.21,75.09 98.54,117.39 75.31,-3.92 81.01,-17.46 128.41,-47.33 33.47,-21.1 66.24,-39.45 98,-59.97 -4.46,-86.86 -6.03,-54.34 -49.53,-104.06 -64.7,-73.95 -94.61,-216.2 -94.06,-324.93 1.13,-221.96 59.31,-280.7 107.82,-453.25 -0.97,13.53 -7.17,-1.18 15.68,21.31 52.54,51.71 90.27,74.46 158.25,71.43 8.69,-77.29 -45.33,-339.4 -70.64,-439.3 -17.37,-68.54 5.12,-39.47 -41.01,-55.9 -41.39,-14.74 -224.01,15.61 -267.04,23.19 -138.22,24.36 -123.19,33.75 -228.9,71.3z"/>
   <path class="fil11" d="M11096.41 2104.74c18.49,205.07 135.19,74.77 285.25,415.75 193.3,439.23 -83.76,1136.33 551.8,1454.09 -37.6,72.05 -116.44,156.42 -96.13,246.89l70.76 20.73c80.53,9.1 625.64,22.07 687.62,-56.01 48.77,-61.44 -113,-378.68 -157.14,-491.16 -12.54,-31.94 -13.06,-40.83 -28.25,-75.65 -93.29,-213.79 -208.49,19.14 -237.82,55.4 -30.55,-46.32 -59.52,-10.43 -167.14,-150.15 -366.06,-475.32 7.44,-995.76 -524.56,-1416.49 -111.39,-88.08 -99.69,-132.38 -384.39,-3.4z"/>
   <path class="fil5" d="M7931.61 1826.69c84.53,118.75 194.9,238.65 388.42,220.44 7.28,-92.51 -104.63,-125.7 -75.57,-293.66 112.4,-28.62 201.26,-73.78 244.1,-159.68 56.77,-113.83 27.25,-233.04 -35.7,-327.58 -255.3,-383.37 -982.83,-306.73 -954.94,175.37 13.15,227.27 172.17,400.53 433.69,385.11z"/>
   <path class="fil11" d="M2278.31 4006.24c66.92,25.03 189.16,51.42 252.71,70.65 1.85,185.38 -101.91,340.01 -243.31,434.09 -120.78,80.35 -235.84,208.61 -309.06,384.77 -110.11,264.92 -28.42,577.75 180.7,745.71 269.87,216.78 274.49,112.26 358.77,15.71 197.14,-225.84 -136.76,-165.71 -203.31,-446.96 -105.34,-445.16 592.25,-496.26 614.61,-1041.82 46.06,12.46 174.78,66 211.69,27.18 40.19,-42.28 56.96,-46.51 -18.35,-183.94l-161.88 -316.12c-40.47,-83.73 -26.72,-134.27 -119.8,-138.9 -95.78,-4.78 -252.13,130.48 -308.66,174.31 -237.03,183.82 -251.08,136.1 -254.11,275.32z"/>
   <path class="fil8" d="M12820.24 6680.83c242.46,47.47 677.76,-88.4 784.62,-222 -118.51,-384.65 -320.9,-867.66 -555.75,-1182.08 -27.09,-36.27 -37.75,-46.35 -62.86,-77.75 -24.2,-30.25 -32.6,-49.21 -61.06,-80.56 -20.61,-22.71 -48.28,-46.39 -75.13,-66.01 -66.69,-48.73 -67.54,-29.52 -68.97,-57.88 -87.66,107.52 -113.31,700.97 -100.55,864.74 16.7,214.41 59.77,637.04 139.7,821.54z"/>
   <path class="fil5" d="M7050.6 13583.84l9.37 -180.01 661.02 -12.86c63.69,-0.02 131.47,10.38 184.72,-16.52 29.87,-105.02 45.09,-482.6 20.68,-593.79l-810.94 -66.36c-15.63,-92.65 24.16,-227.42 -63.08,-232.91 -89.91,-5.66 -477.92,358.75 -509.52,420.64 -115.84,226.89 119.02,340.86 175.65,398.95 82.12,84.24 202.44,295.57 332.1,282.86z"/>
   <path class="fil8" d="M8775.7 1887.47c-353.16,85.79 -460.06,636.98 -236.6,793.15 101.81,71.15 218.91,72.58 359.97,61.5 358.93,-28.18 443.52,-618.58 192.06,-785.5 -86.12,-57.17 -196.64,-98.01 -315.43,-69.15z"/>
   <g>
    <path class="fil5" d="M3857.85 8749.49c15.66,62.63 90.42,189.31 122.23,248.81 84.93,158.86 156.15,331.24 254.59,486.94 85.07,134.54 56.41,139.52 201.78,68.07 92.27,-45.35 965.46,-494.81 973.31,-516.94 -3.9,-76.64 -137.59,-350.14 -176.88,-433.96l-214.3 -403.91c-195.62,4.02 -467.16,157 -621.4,227.89 -94.76,43.56 -497.3,262.98 -539.33,323.1z"/>
    <path class="fil9" d="M3924.78 8789.18c45.52,107.41 344.34,647.54 411.19,757.55 48.98,-13.61 203.61,-99.34 254.65,-127.74l508.44 -271.27c72.59,-34.97 184.44,-111.43 256.96,-134.48l-334.46 -722.73c-29.64,41.64 -51.82,99.7 -77.53,144.38l-159.31 283.34c-11.7,22.56 -68.78,151.56 -74.52,155.79 -42.3,31.2 -497.49,-30.61 -597.82,-46.83 -60.63,-9.81 -132.93,-38.25 -187.6,-38.01z"/>
    <path class="fil8" d="M3942.5 8739.87c1.65,1.48 4.57,1.17 5.44,3.85l25.21 12.2c57.88,18.73 246.03,43.1 304.61,49.36 104.92,11.2 283.51,31.13 384.73,25.38 28.36,-45.74 43.61,-98.51 68.39,-147.15 25.32,-49.68 49.99,-88.05 76.83,-135.34 31.8,-56 138.07,-224.8 155.07,-271.83 -66.55,12.18 -205.96,71.92 -270.52,99.53 -88.58,37.88 -170.1,79.37 -258.22,116.46 -80.65,33.95 -170.84,83.49 -245.12,120.95 -71.97,36.3 -180.09,82.52 -246.42,126.59z"/>
   </g>
   <path class="fil7" d="M14888.84 4559.19c-10.03,122.85 70.79,342.4 135.04,450.37 136.78,229.84 171.72,-10.39 228.36,-92.95 43.8,9.24 15.6,0.03 58.84,22.52 9.72,5.06 25.88,15.45 32.45,19.32 63.82,37.67 75.23,47.09 114.1,128.09 88.43,184.29 -3.97,440.84 -104.27,592.72 -154.41,233.8 -223.22,207.42 -90.75,329.78 147.08,135.87 199.78,27.36 305.58,-100.23 2.32,-2.8 5.71,-6.73 7.99,-9.57l52.15 -71.03c247.41,-342.48 397.67,-951.42 -70.59,-1175.95 -45.25,-21.7 -85.73,-28.38 -141.24,-45.24 41.57,-78.44 57.87,-73.4 47.34,-175.74 -86.06,-33.96 -207.39,21.86 -299.53,47.92 -93.22,26.37 -185.3,57.73 -275.47,79.99z"/>
   <path class="fil8" d="M7974.9 1744.51c28.43,39.03 41.64,175.11 226.49,210.56 -16.66,-42.68 -26.13,-96.55 -27,-153.36 -1.53,-99.74 -3.44,-99.63 73.63,-115.14 108.23,-21.8 185.35,-73.11 198.64,-190.69 22,-194.58 -208.07,-343.61 -379.94,-376.69 -110.16,-21.2 -229.46,-11.88 -320.67,36.02 -209.87,110.21 -208.59,367.32 -62.33,519.89 90.88,94.79 148.26,73.33 291.18,69.41z"/>
   <path class="fil8" d="M10208.09 2026.16c-501.95,130.55 -355.34,929.52 55.69,810.39 163.58,-47.42 281.56,-249.19 312.72,-442.74 41.66,-258.86 -108.07,-435.37 -368.41,-367.65z"/>
   <path class="fil8" d="M4635.73 2583.01c-7.96,52.6 10.83,101.9 24.6,152.23 28.56,104.41 4.86,85.91 112.01,88.49 -31.44,-177.76 -139.38,-193.73 157.61,-190.62 76.51,0.8 153.04,-1.58 229.46,-5 221.02,-9.9 1181.73,-86.98 1270.12,-1.73 32.82,31.64 74.26,1007.42 -49.36,1340.44 -181.62,32.87 -651.14,-61.35 -1026.79,-32.12 -81.48,6.34 -267.39,41.59 -307.48,38.55 -34.81,-53.61 -153.49,-772.01 -229.59,-1023.69l-89.61 -0.5c66.44,382.95 217.81,744.85 220.31,1147.42 500.57,-48.08 1000.71,-23.36 1505.56,-55.19 76.97,-188.53 103.42,-1300.87 99.58,-1564.39 -608.29,65.39 -1283.21,62.33 -1916.42,106.11z"/>
   <path class="fil11" d="M1021.02 7140.74l-21.72 182.87c-310.19,179.67 -255.9,139.72 -237.74,310.98 -36.33,20.42 -64.19,34.82 -93.35,53.01 13.39,144.99 51.04,129.68 105.84,211.52 76.63,-3.8 94.76,12.62 123.4,-41.78 76.09,11.3 25.68,18.12 78.49,41.01 136.77,59.28 174.37,-66.47 291.97,-108.71 83.72,50.74 78.4,107.27 211.6,21.27l35.91 49.07c-41.78,78.93 -153.3,382.09 -150.41,463.25 0.01,0.17 -18.56,23.76 26.39,79.54 42.88,-18.08 23.33,-1.9 47.62,-36.78 11.44,-16.42 15.82,-40.84 22.99,-66.92 10.38,-37.82 24.67,-80.57 38.75,-118.89 21.62,-58.85 84.15,-160.84 75.23,-214.21l79.41 297.75c28.71,78.37 13.6,65.12 71.17,74.06 40.63,-54.94 -15.04,-330.16 -30.05,-406.93 13.78,48.16 180.32,185.3 243.59,248.9 50.37,50.63 42.61,60.98 139.19,68.98 -13.43,-142.2 -94.55,-158.04 -171.98,-246.23 -43.32,-49.32 -128.98,-171.81 -180.84,-191.59l15.03 -68.79c223.61,6.96 331.75,-144.65 532.44,-262.37 170.93,-100.26 394.11,-84.49 296.66,-523.61 -43.93,-197.95 -270.27,-634.3 -567.5,-479.57 -190.38,99.11 -563.57,279.39 -683.97,414.21 -98.82,110.65 53.48,106.17 -298.12,249.96z"/>
   <path class="fil8" d="M2291.17 7369.89c-149.04,-100.86 -158.21,-81.16 -269.1,-318.73 -47.3,-101.33 -113.51,-378.73 -30.8,-481.18l-436.17 279.48c-101.72,57.85 -101.83,43.58 -98.69,166.95 9.11,357.25 322.8,612.31 413.75,581.67l379.81 -221.31c35.03,-14.64 32.12,-11.07 41.2,-6.88z"/>
   <path class="fil8" d="M6613.8 12915.79l375.46 384.1 6.93 -183.74 856.78 32.36 -2.67 -321.89c-136.18,-4.21 -720.17,-10.69 -792.31,-55.96 -24.61,-28.49 -5.25,12.85 -18.21,-35.66l-6.29 -159.77c-84.03,33.24 -378.04,282.71 -419.69,340.56z"/>
   <path class="fil11" d="M12853.5 5382.83c-247.5,105.97 -133.03,541.35 191.52,424.76 263.74,-94.75 95.92,-547.85 -191.52,-424.76z"/>
   <path class="fil5" d="M759.34 10969.83c47.98,-49.59 24.66,-173.57 62.68,-361.62 137.29,-679.05 691.2,-1158.28 1418.47,-1150.68 126.56,1.32 325.41,55.84 405.73,44.58 57.89,-70.19 98.58,-245.62 85.6,-351.81 -218.11,-173.12 -756.9,-174.11 -1042.51,-93.03 -788.61,223.88 -1212.13,976.06 -1340.08,1747.78 -20.69,124.81 -23.45,165.49 110.52,172.82 78.29,4.28 242.59,16.48 299.59,-8.04z"/>
   <path class="fil5" d="M1334.1 10978.52c57.71,-118.67 134.37,-811.07 708.41,-914.26 214.32,-38.53 350.28,48.9 474.4,32.65 48.01,-71.25 115.63,-296.18 113.92,-404.61 -72.34,-19.67 -84.32,-43.67 -156.03,-70.23 -206.35,-76.4 -395.92,-73.23 -599.38,-8.3 -231.91,74.03 -435.88,242.17 -546.69,371.3 -136.37,158.93 -260.26,318.03 -344.3,573.34 -24.88,75.59 -93.93,308.67 -60.42,383.95 28.69,64.46 330.05,63.94 410.09,36.16z"/>
   <path class="fil8" d="M471.87 10883.45l209.77 8.77c58.74,-302.84 37.04,-416.4 172.1,-694.31 189.86,-390.7 529.05,-710.17 945.72,-818.16 323.06,-83.72 471.75,-77.38 793.49,-10.9l37.13 -148.64c-896.98,-274.49 -1594.89,163.2 -1945.8,896.63 -59.5,124.35 -249.03,624.81 -212.41,766.61z"/>
   <path class="fil5" d="M1473.49 11005.28c87.89,9.29 253.24,25.26 329.84,-15.67 102.83,-54.94 69.49,-312.03 313.06,-428.69 217.21,-104.02 302.9,85.45 356.18,-154.62 13.61,-61.31 30.53,-99.92 28.3,-162.27 -390.06,-292.83 -1188.11,215.66 -1027.38,761.25z"/>
   <path class="fil8" d="M1008.14 10871.8l244.44 2.5c59.39,-108.48 95.74,-493.17 368.53,-737.43 213.63,-191.28 485.92,-271.27 834.79,-173.88l50.65 -190.03c-222.49,-35.72 -350.41,-93.25 -588.35,-27.23 -467.23,129.64 -912.56,715.98 -910.06,1126.07z"/>
   <path class="fil5" d="M2244.48 10732.32c-458.3,123.7 -302.87,705.19 81.91,623.79 406.63,-86.03 319.56,-732.14 -81.91,-623.79z"/>
   <path class="fil8" d="M1550.57 10912.12l213.55 2.43c178.45,-353.71 109.03,-430.67 611.75,-499.5l22.11 -99.92c-177.68,-94.87 -459.08,23.38 -579.56,107.27 -137.09,95.45 -282.8,236.85 -267.85,489.72z"/>
   <path class="fil8" d="M2250.3 10850.34c-223.14,47 -205.23,418.99 54.84,358.82 209.72,-48.53 203.04,-413.15 -54.84,-358.82z"/>
   <path class="fil7" d="M15051.9 13937.64c0,0 0,0 0,0z"/>
   <path class="fil5" d="M10712.94 1545.54c0,0 0,0 0,0z"/>
  </g>
 </g>
</svg>
