<?xml version="1.0" encoding="UTF-8"?>
<!DOCTYPE svg PUBLIC "-//W3C//DTD SVG 1.1//EN" "http://www.w3.org/Graphics/SVG/1.1/DTD/svg11.dtd">
<!-- Creator: CorelDRAW 2019 (64-Bit) -->
<svg xmlns="http://www.w3.org/2000/svg" xml:space="preserve" width="160mm" height="80mm" version="1.1" style="shape-rendering:geometricPrecision; text-rendering:geometricPrecision; image-rendering:optimizeQuality; fill-rule:evenodd; clip-rule:evenodd"
viewBox="0 0 8466.66 4233.32"
 xmlns:xlink="http://www.w3.org/1999/xlink">
 <defs>
  <style type="text/css">
   <![CDATA[
    .fil11 {fill:#131313}
    .fil17 {fill:#141414}
    .fil14 {fill:#242424}
    .fil10 {fill:#2A2A2A}
    .fil2 {fill:#313131}
    .fil13 {fill:#393939}
    .fil1 {fill:#5D5D5D}
    .fil12 {fill:#5D5D5D}
    .fil16 {fill:#616565}
    .fil7 {fill:#787878}
    .fil15 {fill:#79797A}
    .fil8 {fill:#7C7C7C}
    .fil6 {fill:#939393}
    .fil3 {fill:#BCBCBC}
    .fil18 {fill:#E0E0E0}
    .fil5 {fill:#E2E2E2}
    .fil4 {fill:#FBFBFB}
    .fil9 {fill:#FDFDFD}
    .fil0 {fill:#FEFEFE}
   ]]>
  </style>
 </defs>
 <g id="Capa_x0020_1">
  <metadata id="CorelCorpID_0Corel-Layer"/>
  <path class="fil0" d="M4005.2 2142.19c-14.14,10.65 -19.98,20.56 -22.8,36.63 42.82,58.22 95.61,-7.99 22.8,-36.63z"/>
  <path class="fil1" d="M163.36 3251.08c18.66,25.86 506.86,289.72 595.24,344.28l606.43 333.27c12.06,-0.94 39.75,-30.52 48.34,-41.3 21.66,-27.19 16.09,-43.88 18.71,-80.36 4.9,-68.07 32.46,-306.56 53.14,-361.72 10.8,-28.82 48.99,-94.97 66.12,-127.94 46.22,-88.91 250.12,-446.84 261.69,-515.53 -190.58,-141.48 -291.45,-177.24 -488.57,-288.5 -86.21,-48.67 -161.99,-96.89 -252.69,-142.07 -227.44,-113.32 -209.75,-88.22 -263.44,-19.88 -100.18,127.5 -232.64,422.04 -292.82,590.39 -15.95,44.63 -16.58,40.25 -70.17,73.54l-140.18 86.94c-54.96,41.48 -137.96,94.33 -141.8,148.88z"/>
  <path class="fil2" d="M980.27 960.53c4.86,-15.74 6.6,-11.07 6.71,-26.09 -39.72,-35.42 -244.01,-144.56 -285.25,-141.8 -13.56,16.09 -50.82,103.04 -49.42,120.48 16.02,14.87 235.85,122.77 268.27,137.37l25.73 -30.35 40.73 20.02c-7.72,42.49 -21.33,34.84 -31.53,123.93 -15.04,131.46 47.58,265.89 171.68,344.49 164.08,103.91 353.52,66.07 466.51,-124.24 97.08,-163.51 58.93,-354.93 -132.49,-461.75 -130.87,-73.03 -311.16,-67.09 -418.59,42 -25.78,26.19 -28.67,21.92 -62.35,-4.06zm589.92 408.85c225.85,-391.37 -410.46,-655.7 -565.79,-312.16 -66.91,147.98 -20.61,337.83 133.55,432.56 149.75,92.02 330.78,55.43 432.24,-120.4zm-40.44 0.65c22.22,-34.24 37.94,-71.98 45.32,-108.3 23.24,-114.3 -23.67,-219.44 -140.36,-284.07 -125.72,-69.63 -310.58,-64.15 -396.29,78.37 -104.92,174.48 15.32,418.28 202.14,442.51 20.29,2.63 32.32,2.87 49.69,3.79 46.54,2.45 108.62,-15.28 149.48,-41.08 37.81,-23.89 64.75,-52.29 90.02,-91.22zm-0.52 -45.46c71.39,-137.24 0.42,-288.61 -146.89,-343.97 -62.5,-23.49 -141.8,-35.44 -189.12,-18.67 -245.64,87.05 -212.04,399.62 -20.02,492.62 119.49,57.88 286.52,3.66 356.03,-129.98zm-563.37 -382.01c-44.75,-29.8 -211.3,-118.77 -253.53,-123.77l-35.46 83.33 238.38 123.79 50.61 -83.35z"/>
  <path class="fil3" d="M542.56 2973.16l47.99 28.79c228.12,101.67 412.1,203.87 631.16,322.05 39.05,21.07 198.04,111 223.2,113.96l330.15 -622.85c-25.83,-6.6 -146.61,-86.01 -187.3,-107.01 -59.01,-30.45 -129.86,-70.82 -189.37,-105.01 -189.24,-108.71 -264.36,-176.5 -475.48,-264.78 -63.95,-26.73 -53.83,-6.67 -83.81,38.11 -56.83,84.87 -57.42,72.4 -112.41,179.3 -53.72,104.44 -93.72,204.32 -138.42,312.64 -13.97,33.87 -40.02,79.33 -45.71,104.8z"/>
  <path class="fil4" d="M645.71 2946.2c59.53,27.21 130.1,60.53 193.43,88.6 125.95,55.81 371.48,184.03 477.68,245.01 16.09,9.24 30.32,17.64 44.6,26.12l45.04 28.9c7.05,-48.34 89.97,-203.37 114.44,-245.98 13.23,-23.05 21.61,-34.42 33.99,-58.06l103.86 -170.77c1.85,-23.95 5.27,-5.96 -6.71,-17.95l-750.64 -432.23c-22.71,26.68 -243.4,485.78 -255.69,536.36z"/>
  <path class="fil2" d="M2913.49 2797.23c33.16,66.1 59.51,43.56 114.27,48.96 19.59,6.68 41.78,55.86 124,47 5.71,-0.62 26.74,-4.45 31.49,-6.24 67.27,-25.33 -13.86,-27.96 -42.71,-116.49 8.92,-16.57 23.19,-37.88 27.53,-57.66 10.43,-47.5 -10.06,-18.85 27.45,-56.5 24.8,-24.89 47.17,-76.1 58.73,-111 125.92,-380.06 -579.24,-527.57 -806.57,-139.06 -125.13,213.84 -43.08,387.74 160.73,414.15 126.87,16.44 181.92,-15.08 305.08,-23.16zm-320.68 -343.64c-64.05,-69.77 77.88,-73.95 64.84,-178.5 -94.11,38.58 -127.82,91.1 -178.12,155.1 7.83,8.58 5.64,4.54 11.98,9.89 63.62,53.58 17.88,145.76 97.65,153.79 42.75,4.31 48.07,-20.65 80.24,-12.82 -2.01,48.12 -52.64,32.62 -83.23,49.13 20.41,94.39 158.47,27.6 137.81,120.5 -53.16,12.2 13.97,-12.27 -89.84,-37.86 -36.7,-9.05 -61.1,-23.73 -68.81,-71.41 -6.98,-43.13 7.31,-11.87 -24.68,-38.95 -16.25,-13.75 -21.92,-22.88 -26.8,-45.36 -9.42,-43.36 3.32,-80.51 -32.95,-104.37 -20.56,10.15 -12.91,4.57 -23.14,25.2 -101.53,204.84 45.32,330.03 300.31,316.41 10.77,-28.94 -10.21,-59.16 58.5,-114.78 33.34,-26.99 63.65,-28.56 77.66,-67.09 11.8,-32.47 -10.89,-12.74 15.25,-29.96 26.52,27.06 -2.3,52.53 -12.71,73.47 67.79,21.42 105.39,-8.29 137.15,-60.76 14.67,-24.23 15.03,-45.88 47.76,-62.1 31.37,-15.56 65.57,-21.66 79.52,10.88 -27.67,23.73 -57.89,-23.98 -97.48,56.53 -15.28,31.08 -43.95,68.72 -96.7,81.8 -75.4,18.7 -66.53,-32.67 -124.07,5.96 -34.71,23.31 -65.94,57.46 -56.41,100.29 54.14,12.08 108.24,-37.84 147.08,0.33 32.24,31.69 29.75,24.83 74.12,24.33 40.04,-0.44 10.69,-8.07 33.38,10.76 25.56,21.22 54.68,55.51 128.55,26.89 -25.29,-18.55 -52.42,-47.87 -63.53,-89.75 51.08,-58.23 11.68,-72.11 55.16,-112.72 54.28,-50.69 101.88,-243.91 39.83,-248.47 -56.59,-4.16 -21.34,91.83 -92.1,81.08 -6.38,-31.11 -6.01,-7.61 14.33,-29.23 41.74,-44.38 -2.7,-62.79 79.62,-76.66 -34.82,-55.27 -84.07,-93.33 -129.56,-107.61 -45.95,27.09 -57.23,56.04 -51.38,111.75 4.56,43.52 -3.58,110.77 -61.13,102.37 2.72,-31.45 33.21,-12.2 42.68,-56.71 5.43,-25.54 -0.02,-68.98 -13,-91.34 -64.34,-8.06 -81.87,28.43 -134.61,48.28 -47.39,17.83 -109.27,12.02 -118.16,-31.41 40.19,-15.6 37.68,37.82 128.43,-6.59 69.46,-33.98 70.62,-38.61 138.76,-28.79 12.14,-20.36 31.39,-42.44 41.71,-64.24 -142.9,-30.31 -203.61,-48.67 -374.07,15.06 20.26,101.81 -39.44,102.54 -59.94,137.59 -18.9,32.3 8.44,26.97 -19.9,50.09z"/>
  <path class="fil5" d="M245.31 3191.39c43.46,9.26 790.15,418.89 877.17,472.6 46.55,28.74 91.69,52.88 139.35,81.94 47.92,29.22 94.53,62.46 136.31,89.05l44.78 -364.15 -306.97 -154.97c-53.83,-26.23 -101.36,-51.53 -153.36,-77.66 -25.84,-12.98 -47.54,-27.33 -73.69,-41.67l-39.47 -18.3c-62.11,-29.22 -111.74,-63.73 -194.75,-100.92 -34.51,-15.46 -135.58,-69.25 -166.2,-59.27l-68.69 38.25c-17.44,10.02 -13.6,12.18 -30.71,22.68 -40.35,24.78 -15.68,-0.13 -64.75,42.28l-99.02 70.14z"/>
  <path class="fil1" d="M6356.28 2173.43c22.14,57.11 44.2,88.89 73.89,152.3 11.51,24.58 -1.54,41.37 -13.28,59.02 -15.01,22.58 -21.28,41.9 -30.63,69.86 14.08,33.55 35.3,74.13 64.24,94.16 37.54,-9.97 73.32,-55.44 106.39,-52.34 53.17,4.98 82.92,-19.84 130.64,-34.98 -5.9,34.65 12.06,97.03 43.59,118.5 26.24,8.14 146.18,-66.49 179.32,-138.2 -24.68,-39.81 -58.13,-49.71 -91.13,-67.16 5.45,-8.08 19.3,-25.3 29.42,-41.37 18.92,-30.06 9.21,-19.1 20.67,-49.71 11.21,-29.94 55.62,-53.43 82.81,-82.39 -12.13,-25.26 -45.1,-75.32 -71.98,-79.89 -21.05,-3.58 -90.53,7.05 -111.67,11.59 -84.14,-118.94 -250.82,-231.25 -339.3,-280.29l-101.35 -35.27c-61.13,-6.5 -38.69,42.16 -33.09,92.19 9.9,88.34 28.35,178.55 61.46,263.98z"/>
  <path class="fil3" d="M1895.77 928.35c-22.28,-15.53 -24.32,-11.53 -44.27,-3.44 -13.53,5.49 -22.46,6.96 -35.73,16.2 -23.59,-36.89 -21.2,-91.19 -133.3,-180.57 -49.88,-39.77 -120.04,-69.36 -178.54,-73.13 -24.1,-1.55 -39.65,3.13 -59.28,1.5 -16.98,23.72 -14.26,28.71 -16.65,50.26 -1.69,15.21 -4.05,29.55 -5.5,44.11 27.35,19.6 17.89,11.28 43.43,10.11 37.98,-1.73 88.22,23.53 120.98,49.92 66.87,53.88 70.61,85.65 111.1,141.94 -3.86,-3.55 2.09,-1.88 -10.23,-0.39 -28.31,3.42 -44.29,9.34 -59.78,30.64 21.29,21.27 113.61,68.15 149.93,84.59 24.93,11.28 10.71,11.07 26.81,1.08 14.44,-8.97 49.31,-71.53 57.39,-86.38 25.97,-47.69 19.51,-45.4 33.64,-86.44z"/>
  <path class="fil6" d="M5121.38 1684.03c-66.5,-43.87 -55.22,22.87 -194.57,-13.98 -179.49,-47.47 -323.54,-299.43 -572.96,-183.81 -12.73,-28.75 -19.23,-72.95 -51.5,-88.63l-23.34 16.41c-22.18,22.16 -157.58,183.93 -148.91,221.51 6.82,29.58 141.81,57.16 186.48,70.93 12.69,3.92 15.5,5.9 29.7,9.71 87.17,23.34 44.5,-67.69 40.6,-85.31 21.38,1.93 17.51,-15.49 85.74,-14.34 232.08,3.91 299.43,242.42 555.02,182.97 53.51,-12.45 64.09,1.78 93.74,-115.46z"/>
  <path class="fil2" d="M1403.58 2194.22c-85.51,35.81 -185.37,63.58 -283.83,-11.18 27.1,-52.43 98.7,-32.82 139.34,-133.33 -51.13,-53.16 -84,-107.38 -78.34,-168.16 7.51,-80.55 63.45,-135.07 129.18,-165.03 266.55,-121.52 633.96,163.94 457.17,415.09 -83.33,118.39 -227.38,158.67 -363.52,62.61z"/>
  <path class="fil6" d="M6167.17 849.87c-23.71,14.2 -61.18,44.82 -82.33,59.4 -56.52,-44.15 -78.27,-112.84 -72.62,-178.3 4.82,-55.92 -6.22,-121.66 -41.85,-186.3 -53.58,-97.21 -167.92,-147.95 -269.17,-125.21 -130.67,29.35 -100.16,55.96 -91.28,104.75 20.76,114.11 83.11,-1.4 184.24,46.3 160.07,75.51 7.27,298.86 166.91,437.21 -14.88,10.93 -62.12,36.95 -59.28,57.48 3.1,22.36 0.33,28.45 60.07,38.82l134.67 27.28c35.09,7.95 47.06,24.3 70.92,-2.74 24.54,-27.82 21.34,-107.75 21.71,-135.42 1.57,-116.04 19.39,-108.78 -21.99,-143.27z"/>
  <path class="fil4" d="M6578.96 2464.72c94.1,-16.78 232.13,-126.67 252,-189.8 -96.54,-122.19 -237.09,-268.13 -365.78,-348.72 -14.84,-9.29 -20.1,-11.44 -33.55,-19.25 -12.96,-7.53 -18.64,-13.2 -33.29,-20.53 -10.61,-5.31 -23.9,-9.98 -36.33,-13.3 -30.87,-8.26 -28.49,-1.21 -32.97,-11.24 -16.59,51.05 57.14,268.71 84.64,326.01 36.01,75.01 110.64,221.45 165.28,276.83z"/>
  <path class="fil2" d="M2179.67 615.87l52.19 46.25 -155.54 203.06c-15.36,19.28 -34.85,37.27 -39.56,59.86 24.56,34.37 135.11,130.05 174.64,149.48l215.67 -229.3c31.8,17.62 62.97,62.16 85.67,37.09 23.4,-25.83 6.75,-231.1 -4.35,-255.59 -40.69,-89.77 -131.82,-46.21 -163.05,-43.09 -45.29,4.52 -138.24,-10.05 -165.67,32.24z"/>
  <g id="_2425355928864">
   <path class="fil2" d="M4412.18 816.09c-22.73,-10.37 -79.08,-18.31 -104.75,-23.04 -68.54,-12.62 -137.87,-32.66 -208.71,-40.43 -61.22,-6.72 -55.81,-16.59 -69.26,44.62 -8.54,38.85 -83.19,411.4 -78.39,419.11 24.13,17.31 139.11,42.84 173.94,51.17l173.88 32.6c45.96,-60.15 65.18,-179.19 80.94,-242.95 9.68,-39.17 40.4,-213.87 32.35,-241.08z"/>
   <path class="fil5" d="M4384.03 826.76c-43.47,-12.13 -278.94,-52.02 -328.34,-58.33 -7.7,18.1 -19.06,85.55 -22.79,107.84l-40.57 219.24c-6.93,30.39 -10.78,82.67 -21.3,110.17l299.31 73.14c-5.45,-19.01 -17.67,-39.72 -24.98,-58.28l-47.29 -116.53c-4,-8.98 -29.26,-57.36 -29.15,-60.12 0.76,-20.32 129.25,-143.11 158.36,-169.55 17.59,-15.97 43.63,-30.98 56.75,-47.58z"/>
   <path class="fil4" d="M4394.67 844.02c-0.85,0.14 -1.46,1.1 -2.48,0.71l-9.77 4.69c-19.63,12.99 -72.38,64.03 -88.4,80.24 -28.7,29.04 -77.8,78.25 -100.48,110.26 7,19.61 19.28,36.95 28.02,56.18 8.92,19.64 14.58,36.36 22.41,55.88 9.27,23.13 34.7,95.99 44.83,112.48 12.36,-23.07 27.92,-79.65 35.14,-105.84 9.9,-35.93 17.02,-70.6 27.05,-106.2 9.18,-32.59 15.95,-71.82 22.54,-103.33 6.38,-30.52 18.47,-74.38 21.14,-105.07z"/>
  </g>
  <path class="fil7" d="M2681.67 2966.94c-34.74,-32.66 -120.65,-61.17 -168.81,-67.77 -102.52,-14.06 -38.28,54.45 -26.97,91.5 -13.35,11.02 -3.77,4.71 -21,12.36 -3.88,1.72 -10.91,4.11 -13.67,5.16 -26.79,10.22 -32.39,11.4 -66.27,3.62 -77.08,-17.7 -132.4,-107.53 -154.15,-174.51 -33.48,-103.1 -8.9,-117.55 -77.87,-106.99 -76.58,11.72 -56.47,53.83 -43.39,116.61 0.29,1.38 0.66,3.35 0.97,4.73l8.91 32.91c43.93,157.45 191.89,349.78 372.76,262.28 17.47,-8.45 29.26,-19.09 47.75,-31.81 13.7,31.49 8.24,35.21 41.74,56.71 31.03,-17.84 43.41,-68.01 57.75,-102.17 14.51,-34.56 27.23,-69.98 42.25,-102.63z"/>
  <path class="fil4" d="M1407.75 2135.29c-28.45,11.56 -81.24,80.65 -193.01,37.81 23.32,-17.48 46.51,-43.41 66.03,-73.82 34.29,-53.38 35.28,-52.67 -1.16,-86.91 -51.17,-48.08 -75.63,-101.68 -43.37,-169.67 53.38,-112.52 227.69,-115.88 331.66,-76.1 66.63,25.5 127.97,70.55 161.19,127.03 76.43,129.95 -10.51,268.45 -140.71,301.83 -80.91,20.74 -104.71,-10.11 -180.63,-60.17z"/>
  <path class="fil6" d="M5467.71 2335.33l-9.97 70.54c-121.52,66.85 -100.18,51.86 -94.62,118.26 -14.23,7.58 -25.13,12.91 -36.57,19.7 3.94,56.2 18.64,50.6 39.13,82.72 29.68,-0.81 36.55,5.7 48.09,-15.1 29.34,5.02 9.78,7.23 30.01,16.54 52.4,24.09 68.02,-24.22 113.86,-39.55 31.95,20.34 29.41,42.16 81.67,10.04l13.47 19.28c-16.84,30.17 -62.57,146.48 -62.15,177.9 0,0.06 -7.38,9.03 9.53,30.99 16.74,-6.62 9.04,-0.53 18.73,-13.82 4.57,-6.25 6.47,-15.66 9.47,-25.69 4.34,-14.53 10.23,-30.95 16.01,-45.65 8.86,-22.58 33.92,-61.49 30.93,-82.21l28.17 115.85c10.43,30.56 4.7,25.3 26.89,29.25 16.19,-20.9 -2.99,-127.83 -8.14,-157.65 4.92,18.74 68.16,73.21 92.09,98.35 19.05,20.02 15.96,23.96 53.25,27.88 -3.98,-55.12 -35.22,-61.94 -64.42,-96.71 -16.33,-19.45 -48.41,-67.56 -68.3,-75.66l6.4 -26.48c86.43,4.61 129.56,-53.11 208.19,-96.93 66.98,-37.31 153.17,-29.3 119.23,-199.99 -15.29,-76.94 -99.11,-247.66 -215.4,-190.35 -74.49,36.7 -220.38,103.24 -268.1,154.36 -39.17,41.95 19.77,41.52 -117.45,94.13z"/>
  <path class="fil4" d="M5957.03 2434.84c-56.78,-40.29 -60.5,-32.75 -101.36,-125.59 -17.42,-39.6 -40.66,-147.46 -7.79,-186.38l-171.1 104.36c-39.84,21.51 -39.76,15.99 -39.6,63.74 0.46,138.26 119.61,239.6 155.05,228.53l148.81 -82.35c13.67,-5.37 12.52,-4.01 15.99,-2.31z"/>
  <path class="fil4" d="M2487.12 644.86l-206.76 20.94 53.91 46.41 -216.44 251.38 98.02 76.83c34.12,-40.18 176.93,-215.28 208.03,-226.18 14.55,-0.57 -2.62,-4.69 15.18,3.09l49.85 36.64c10.21,-33.44 5.66,-182.55 -1.79,-209.11z"/>
  <path class="fil6" d="M6409.45 1991.82c-74.46,72.84 27.71,213.89 128.49,126.45 81.89,-71.06 -42.01,-211.04 -128.49,-126.45z"/>
  <path class="fil2" d="M3419.77 1723.95c23.33,12.97 67.33,-8.16 141.42,-12.78 267.51,-16.69 502.07,142.33 572.05,414.88 12.18,47.43 11.72,127.2 23.97,156.09 32.02,14.61 101.66,12.25 140.04,-3.24 42.86,-98.84 -10.72,-300.29 -69.61,-398.91 -162.63,-272.3 -486.14,-355.26 -787.35,-325.8 -48.72,4.76 -64.2,7.8 -53.52,58.6 6.24,29.69 18.13,92.31 33,111.16z"/>
  <path class="fil2" d="M3474.07 1939.62c50.13,9.68 316.56,-31 412.61,173.19 35.85,76.24 16.79,135.8 35.3,180.56 31.43,10.81 122.26,13.56 162.61,2.06 0.11,-29 7.88,-35.88 10.62,-65.34 7.89,-84.76 -12.28,-155.29 -56.91,-224.82 -50.89,-79.26 -134.15,-138.65 -193.5,-167.13 -73.05,-35.05 -144.91,-65.42 -248.74,-71.26 -30.74,-1.73 -124.76,-4.2 -149.54,15.86 -21.21,17.17 9.16,129.75 27.55,156.88z"/>
  <path class="fil4" d="M3423.27 1607.87l17.72 79.27c119.06,-8.37 159.33,-27.85 276.71,-5.2 165.02,31.83 318.37,126.6 400.45,271.5 63.63,112.35 76.15,168.56 83.52,295.45l59.27 -1.01c12.77,-362.69 -220.69,-579.69 -529.91,-637.39 -52.43,-9.78 -258.44,-30.5 -307.76,-2.62z"/>
  <path class="fil2" d="M3478.03 1994.39c5.33,33.77 15.92,97.17 38.88,121.69 30.83,32.93 123.57,-5.27 191.55,74.07 60.63,70.76 -1.6,121.76 93.45,117.63 24.28,-1.05 40.4,1.4 63.48,-5.67 70.38,-175.09 -199.56,-422.42 -387.36,-307.72z"/>
  <path class="fil4" d="M3481.32 1807.11l23.54 91.61c46.48,11.33 193.89,-13.61 312.48,63.88 92.88,60.68 150.04,154.43 148.57,294.56l76.09 -0.1c-8.93,-86.72 -0.24,-140.29 -48.73,-222.6 -95.24,-161.63 -358.95,-269.34 -511.95,-227.35z"/>
  <path class="fil2" d="M3657.23 2255.18c-92.11,-158.88 -293.86,-42.57 -224.91,93.07 72.86,143.35 305.61,46.12 224.91,-93.07z"/>
  <path class="fil4" d="M3520.56 2013.87l20.48 80.04c150.05,31.28 171.86,-2.37 247.92,178.61l39.56 -1.74c17.66,-75.9 -54.71,-169.23 -98.12,-205.85 -49.4,-41.68 -116.83,-81.97 -209.84,-51.06z"/>
  <path class="fil4" d="M3613.71 2269.17c-39.91,-78.68 -177.13,-34.74 -128.6,56.43 39.13,73.51 174.73,34.51 128.6,-56.43z"/>
  <path class="fil7" d="M745.66 846.04c0,0 0,0 0,0z"/>
  <path class="fil2" d="M5369.9 1115.67c0,0 0,0 0,0z"/>
  <path class="fil8" d="M6696.32 1438.85c23.79,-220.23 56.34,-449.72 17.4,-669.18 -2.72,-15.3 18.35,-58.62 -84.64,-73.4 -46.88,-6.73 -202.68,37.95 -228.65,53.27 -47.51,28.01 -38.64,46.91 -37.85,113.44 1.42,120.95 22.61,461.98 55.63,561.02 53.51,160.47 213.45,20.09 278.11,14.85z"/>
  <path class="fil9" d="M6467.84 1384.2c29.31,-16.51 65.2,-34.1 87.32,-46.9l17.99 -594.4c-189.71,79.32 -177.23,20.88 -150.59,234.55 16.78,134.62 33.01,278.23 45.28,406.75z"/>
  <path class="fil10" d="M6603.35 1485.34c-173.83,48.16 -149.01,379.03 48.81,323.72 204.32,-57.12 120.09,-370.5 -48.81,-323.72z"/>
  <path class="fil9" d="M6605.11 1539.55c-140.82,41.57 -91.03,241.59 -0.68,200.28 96.71,-44.22 133.85,-239.59 0.68,-200.28z"/>
  <path class="fil11" d="M4520.73 2369.91c-66.91,12.3 -183.5,28.88 -200.44,81.16 -12.91,39.82 15.84,155.83 106.37,159.4l48.07 -59.64c36.98,2.61 43.78,12.51 61.02,33.6 -37.35,64.75 -85.98,17.29 -131.94,84.73 12.25,53.9 77.89,166.23 142.85,160.6 26.03,-2.26 352.56,-170.55 408.23,-196.01 151.12,-69.11 38.64,-106.03 29.4,-189.76 42.52,-38.69 45.73,2.95 75,-49.11 26,-47.41 -8.02,-106.04 -38.96,-124.05 -68.65,-39.94 -86.24,21.33 -114.27,47.09 -26.75,-34.44 -43.46,-76.27 -62.3,-102.19 -85.38,-4.74 -100.87,48.71 -173.06,67.46l-24 -69.89c-39.41,-12.79 -122.94,-21.71 -155.74,12.8 -50.95,53.61 17.54,116.25 29.77,143.81zm48.15 29.29c-41.66,12.8 -140.04,32.5 -176.35,49.07 -67.35,30.76 -25.59,100.05 14.59,122.25 22.32,-39.74 11.69,-60.26 66.18,-62.86 40.4,-1.93 76.39,18.74 91.61,42.57 60.68,95.07 -64.98,107.3 -110.19,128.34 5.17,33.84 47.42,89.38 65.48,109.89 29.29,-1.26 193.83,-90.55 232.93,-112.65 47.01,-26.58 200.36,-87.17 234.73,-119.61 -8.09,-47.59 -56.34,-71.56 -49.23,-124.95 23.6,-40.61 50.03,-30.76 84.49,-59.32 6.95,-39.86 -6.13,-56.37 -32.34,-68.63 -27,17.89 -32.27,41.74 -52.2,66.25l-45.82 0.54c-21.25,-25.17 -52.1,-75.69 -68.51,-112.58 -45.39,16.4 -62.69,47.9 -114.25,65.5 -118.56,40.5 -78.41,-14.15 -92.09,-71.11 -39.34,-20.48 -104.5,-11.1 -97.18,38.26 5.89,39.7 45.23,26.33 48.15,109.04z"/>
  <path class="fil12" d="M3023.55 610.59c-269.76,-69.27 -414.4,225.68 -210.14,364.64 65.71,44.71 127.63,33.42 208.4,20.35 34.53,60.52 36.19,83.78 96.08,117.06 52.19,29.01 120.74,46.41 186.3,42.5 122.72,-7.34 246.24,-87.05 274.45,-170.49 74.21,16.09 90.2,45.76 188.13,21.2 162.44,-40.73 217.66,-305.12 -101.03,-305.71 23.89,-53.04 62.38,-128.12 -12.6,-173.54 -73.5,-44.52 -140.93,4.39 -199.24,22.58 -15.7,-36.64 0.2,-60.44 -72.12,-117.63 -37.53,-29.68 -105.67,-33.61 -160.32,-21.75 -51.92,11.26 -102.93,33.63 -138.15,62.29 -43.62,35.47 -65.55,54.84 -59.76,138.5zm82.28 104.2c-90.41,-32.33 -32.05,-118.53 -199.41,-76.88 -162.44,40.42 -224.24,275.95 -19.97,329.65 153.71,40.41 129.61,-68.97 197.64,-79.66 -12.51,22.25 -87.2,103.57 10.5,172.61 205.46,145.18 434.32,-12.82 455.06,-96.61 13.3,-53.73 -17.45,-53.36 -30.31,-99.16 92.56,7.58 13.78,86.37 137.15,107.37 81.26,13.83 151.53,-8.34 188.45,-54.66 48.07,-60.3 23.29,-128.7 -29.66,-160.72 -86.38,-52.25 -117.05,-25.59 -205.5,-12.97 2.49,-56.67 115.87,-129.61 35.29,-192.17 -72.7,-56.43 -164.68,23.12 -207.84,37.34 -19.83,-35.05 7.18,-91.6 -73.27,-139.35 -118.16,-70.12 -403.45,83.72 -284.55,225.5 22.39,26.7 12.19,3.91 26.42,39.71zm-398.03 382.19c-76.71,12.07 -33.2,-1.26 -88.89,33.23 -4.21,48.02 -0.31,40.99 29.47,117.04 48.51,123.85 401.62,59.54 305.62,-103.8 -35.1,-59.72 -50.57,-20.81 -78.73,-71.66 -34.25,-61.85 -121.12,-90.21 -167.47,25.19zm-71.97 71c18.75,37.67 17.65,5.59 35.16,39.67 1.14,2.23 16.37,111.49 164.74,66.82 130.15,-39.18 101.79,-118.5 69.6,-134.93 -46.69,-23.82 -6.97,-3.01 -54.82,20.14 34.57,-74.62 -10.38,-146.34 -81.24,-109.81 -35.36,18.22 -23.77,56.84 -54.18,69.39 -43.03,17.76 -62.31,-9.05 -79.26,48.72zm3.94 166.55c-36.21,19.87 -93.52,45.41 -86.62,107.27 6.26,56.12 71.78,91.43 126.78,61.41 168.39,-91.91 29.45,-206.89 -40.16,-168.68zm40.56 348.46c79.85,31.43 93.54,-34.21 86.38,-106.2 -1.91,-0.68 -61.31,-41.15 -105.2,-0.89 -19.05,17.47 -17.13,24.39 -9.1,56.15 0.55,2.18 9.59,24.78 10.14,25.86 13.15,26.06 -0.2,9.34 17.78,25.08zm-28.18 -318.91c-76.83,22.55 -95.96,183.38 37.5,81.13 15.42,-11.81 26.11,-11.61 28.53,-36.9 3.04,-31.7 -31.1,-54.49 -66.03,-44.23z"/>
  <path class="fil13" d="M8327.38 881.76c-24.91,-66.76 -51.56,-146.37 -114.06,-168.38 -60.01,-21.12 -293.03,1.72 -194.5,176.33 89.51,158.61 78,320.41 133.47,356.68 45.01,29.44 115.81,-7.94 157.57,-47.09 37,-34.68 69.55,-81.54 73.1,-127.78 2.9,-37.82 -39.75,-147.34 -55.58,-189.76z"/>
  <path class="fil14" d="M7805.47 831.62c-120.74,86.69 -45.9,230.4 -11.08,314.58 25.47,61.58 65.14,272.42 239.2,169.88 110.44,-65.06 30.24,-249.93 8.4,-315.9 -37.97,-114.73 -108.51,-260.47 -236.52,-168.56z"/>
  <path class="fil14" d="M7522.23 933.43c-107.26,63.57 -67.11,184.66 -27.78,306.77 39.22,121.75 98.77,257.31 236.46,182.08 31.37,-17.14 40.59,-32.16 49.83,-56.86 39.96,-106.87 17.81,-115.26 -27.05,-251.7 -38.28,-116.4 -100.66,-257.8 -231.46,-180.29z"/>
  <path class="fil13" d="M7449.74 1188.73c-25.64,1.39 -108.08,14.52 -119.73,45.08 -4.24,11.13 10.59,106.59 79.34,115.26 9.49,27.09 8.25,58.74 0.74,74.85 -53.76,12.81 -69.08,-65.11 -83.15,-115.2 -14.82,-52.73 -59.32,-112.08 -50.71,-162.45 46.9,-8.62 28.81,58.53 82.09,60.31 14.87,-0.06 65.28,-25.22 76.09,-42.3 15.81,-25 -11.39,-67.52 -30.75,-91.47 -94.82,-117.36 -251.87,-8.49 -257.65,90.26 -3.7,63.26 30.25,138.25 51.8,199.79 21.45,61.23 45.35,133.83 95.53,167.76 108.48,73.38 239.08,-25.25 221.04,-152.9 -7.05,-49.87 -37.75,-153.62 -64.64,-188.99z"/>
  <path class="fil9" d="M8199.4 1200.05c38.54,-0.63 109.26,-41.79 133.48,-68.94 30.03,-33.67 32.09,-69.84 12.75,-124.88 -52.62,-149.76 -75.44,-351.46 -286.67,-253.85 -46.9,21.67 5.79,88.26 22.52,131.78 18.2,47.34 101.1,299.16 117.92,315.89z"/>
  <path class="fil9" d="M7519.75 962.81c-68.36,73.59 -5.73,177.78 31.29,280.15 34.36,95.01 97.23,208.18 200.06,117.55 66.08,-58.24 2.02,-186.54 -29.6,-276.49 -16.76,-47.67 -37.44,-99.88 -74.03,-129.58 -26.8,-21.76 -87.29,-35.16 -127.72,8.37z"/>
  <path class="fil9" d="M7810.16 853.18c-70.83,60.16 -4.25,185.6 28.99,276.32 35.15,95.95 92.4,209.83 196.8,126.39 73.31,-58.59 8.16,-185.83 -22.61,-274.81 -32.13,-92.95 -102.29,-213.58 -203.18,-127.9z"/>
  <path class="fil9" d="M7441.63 1213.02c-27.09,-3.07 -65.19,13.27 -92.83,28.99l17.43 42.46c18.39,1.99 29.57,0.18 41.56,2.82 28.57,46.15 57.17,145.95 -0.67,161.37 -59.86,15.97 -85.54,-79.04 -101.48,-131.77 -16.09,-53.16 -67.52,-132.9 -53.84,-184.07 7.08,-26.46 34.56,-44.31 65.4,-33.96 35.12,11.79 28.92,42.79 49.59,72.38 82.45,2.44 41.29,-62.48 8.55,-96.7 -26.98,-28.19 -73.31,-45.01 -123.09,-14.44 -91.77,56.36 -33.78,170.28 6.89,267.97 38.29,91.96 76.66,218.59 189.46,154.37 40.33,-22.96 50.05,-67.01 42.15,-115.14 -5.46,-33.3 -33.32,-125.38 -49.12,-154.28z"/>
  <path class="fil15" d="M8105.45 797.79c-1,32.32 69.83,203.07 86.49,247.72 14.19,38.04 19.26,63.91 38.46,87.71 133.08,-29.32 80.49,-83.42 45.36,-178.57 -45.52,-123.23 -49.61,-228.39 -170.31,-156.86z"/>
  <path class="fil15" d="M7700.37 1181.28l-58.55 -156.89c-12.61,-33.79 -32.15,-49.09 -66.61,-34.81 -67.32,27.9 -30.37,105.7 -10.68,147.08 16.14,33.9 21.39,60.27 32.37,95.15 18.26,57.99 49.51,122.28 106.73,101.18 59.36,-21.89 15.45,-101.58 -3.26,-151.71z"/>
  <path class="fil15" d="M7832.72 976.99l72.21 193.49c33.91,90.89 153.21,75.44 107.82,-46.19 -12.73,-34.11 -30.91,-66.52 -44.58,-102.52 -13.21,-34.8 -25.28,-70.31 -38.63,-105.02 -3.07,-7.98 -5.87,-16.11 -10.19,-22.7 -1.02,-1.56 -4.06,-5.74 -5.29,-6.99 -17.28,-17.44 -42.83,-10.76 -61.46,0.84 -29.59,18.44 -34.34,50.34 -19.88,89.09z"/>
  <path class="fil16" d="M5571.04 1171.52c-47.54,18.57 -46.6,63.96 -60.16,122.78 -32.98,143.07 -62.99,305.44 -98.16,446.62 -31.6,126.81 -41.85,200.09 76.55,247.75 53.5,21.53 265.45,53 318.99,24.37 39.88,-21.33 45.92,-73.29 58.67,-121.7l109.75 -434.7c17.37,-72.49 31.26,-156.75 -22.49,-217.76 -40.87,-46.37 -341.93,-83.46 -383.15,-67.36z"/>
  <path class="fil9" d="M5433.59 1765.11l195.31 23.5c32.92,4.62 66.08,10.73 98.28,15.18l71.91 10.35c29.72,2.52 13.89,1.31 20.04,-4.59 6.41,-6.88 44.71,-196.95 51.71,-227.82 17.55,-77.47 46.32,-159.93 59.76,-233.65 -45.43,-2.83 -341.25,-63.91 -374.76,-83.03 -19.54,-4.86 -30.89,78.2 -37.49,111.41l-84.76 388.65z"/>
  <path class="fil17" d="M1856.27 2584.58c40.13,-1.01 24.96,-11.24 49.02,-26.48 48.04,-30.42 57.2,-0.75 124.01,-123.82 34.97,-64.4 340.47,-628.9 352.98,-637.36 16.06,31.5 -44.23,116.41 -62.26,149.18 -19.05,34.64 -109.65,155.14 -40.47,184.39 31.1,13.15 35.92,-8.29 35.93,-8.31 -37.97,-49.35 -84.85,35.91 28.08,-171.73 17.11,-31.47 32.69,-58.37 50.5,-89.33 9.04,-15.72 17.8,-29.86 17.29,-49.59 -0.78,-30.12 -11.72,-23.43 -20.02,-44.21 64.25,-106.25 -84.38,-182.84 -177.41,-47.43 -79.69,115.99 -133.48,303.91 -193.74,420.45 -54.87,106.13 -162.61,260.57 -156.73,355.3 4.86,78.18 -14.07,34.37 -7.18,88.94z"/>
  <path class="fil15" d="M5616.95 1437.33c-44.11,-12.49 -34.16,-35.27 -67.42,94.2l-28.68 103.7c-12.61,20.06 -17.69,2.22 -22.39,24.3 30.1,12.74 179.22,29.04 235.01,40.58l56.38 12.15c16.44,-0.11 -8.28,3.19 10.51,-1.03 16.67,-3.75 4.53,2.17 16.41,-7.26 -15.67,-18.65 -47.76,-18.91 -87.96,-27.78 19.2,-64.42 72.42,-205.02 77,-261.08l-53.79 -11.75 -26.3 80.07 -33.7 -6.23c-3.45,18.19 -8.24,28.82 -14.09,45.68 -3.51,10.13 -10.17,30.14 -15.02,45.66 -10,32.07 -17.74,58.79 -29.26,91.01l-18.22 0c6.81,-56.55 67.84,-185.54 67.15,-233.36l-7.92 -6.89c-18.28,-12.35 -22.74,-10.62 -45.25,-11.76 -4.22,7.69 -9.79,20.41 -12.46,29.79z"/>
  <path class="fil9" d="M5813.36 1842.34c-59.27,-14.53 -326.03,-50.27 -388.16,-50.79 -8.17,108.29 -57.72,103.58 181.1,138.73 33.61,4.95 121.9,23.71 149.79,22.07 46.21,-2.71 61.07,-66.98 57.27,-110.01z"/>
  <path class="fil9" d="M2078.36 2077.77c34.89,11.64 56.89,31.81 101.14,37.76 18.37,-21.89 160.9,-296.35 161.29,-311.96l-121.81 218.67c-7.44,14.53 -11.92,23.71 -19.03,37.84 -13.43,26.68 -11.73,27.81 -26.79,36.53 -10.1,-17.72 1.58,-27.34 23.7,-71.04l118.2 -220.23 -91.2 -50.59c-28.19,30.38 -137.72,267.6 -145.5,323.02z"/>
  <path class="fil9" d="M5550.26 1231.75c4.19,15.3 160.54,47.82 184.3,52.98 34.62,7.52 181.29,44.98 204.64,35.94 14.76,-88.2 -52.86,-91.84 -163.99,-110.68 -34.1,-5.78 -162.88,-27.42 -192.18,-16.37 -21.77,8.21 -21.52,23.38 -32.77,38.13z"/>
  <path class="fil18" d="M2072.18 2305.95c-16.83,-8.2 -33.46,-7.25 -52.76,-17.23 -16.18,-8.36 -23.96,-18.95 -41.83,-25.83 -14.21,27.85 -157.21,274.85 -67.02,267.92 57.15,-4.39 146.64,-186.61 161.61,-224.86z"/>
  <path class="fil9" d="M2237.09 1729.29c11.38,19.11 46.8,42.08 78.32,48.54 38.47,7.88 66.34,-23.35 68.45,-55.4 4.44,-67.4 -107.63,-72.4 -146.77,6.86z"/>
  <path class="fil16" d="M4854.66 706.3c-19.32,-20.47 -43.65,-51.48 -71.96,-50.97 -0.71,1.34 -1.96,1.64 -2.18,4.01 -7.5,81.94 1.77,94.24 -113.49,105.51 6.01,34.5 37.85,46.91 79.57,67.61 -2.76,14.1 -143.68,261.03 -4.3,431.83 13.73,16.82 76.61,67.4 102.52,81.92 94.99,53.22 196.39,46.89 298.26,7.16 99.44,-38.79 189.93,-129.66 245.92,-219.83 159.98,-257.61 29.7,-643.17 -297.82,-564.07 -69.84,16.87 -194.5,75.16 -236.52,136.83zm7.64 24.63c7.72,16.94 8.6,27.08 14.46,42.44 8.17,21.42 15.68,13.1 31.64,29.99 85.82,-102.41 328.04,-169.2 360.95,4.04 54.82,288.61 -232.58,461.32 -385.48,369.58 -100.97,-60.57 -79.3,-203.54 -32.79,-294.66 6.5,-12.73 17.27,-25.92 19.91,-35.35 -42.15,-32.14 -13.84,0.06 -102.8,-2.7 -30.78,84.55 -67.85,109.68 -63.05,258.05 7.22,223.06 243.24,253.8 399.07,176.42 34.21,-16.99 98.38,-55.64 120.56,-81.96 8.06,-9.57 12.03,-14.22 21.25,-21.66 65.34,-52.77 121.58,-189.75 131.14,-282.69 14.47,-140.68 -4.62,-301.89 -175.42,-311.25 -120.32,-6.6 -207.66,42.65 -296.49,107.92 -15.12,11.11 -9.57,4.42 -23.36,20.54 -7.73,9.03 -12.62,12.65 -19.59,21.29zm65.85 87.03c23.74,11.59 38.88,28.75 61.28,45.01 22.65,16.43 29.84,-7.51 65.14,-16.16 84.59,-20.73 106.52,51.79 82.04,125.67 -16.15,48.73 -63.84,95.37 -131.56,85.53 -79.19,-11.49 -64.13,-102.6 -41.15,-143.36l-75.17 -49.79c-7.82,19.46 -46.39,63.21 -52.62,138.34 -16.69,201.15 189.55,236.25 347.54,70.98 51.78,-54.16 110.11,-242.02 35.8,-315.97 -89.78,-89.35 -220.81,-2.81 -291.3,59.75zm94.88 67.68c4.55,5.95 17.54,16.35 25.73,23.81 57.19,52.08 -38.52,59.26 -64.12,19.66 -55.29,77.61 24.17,149.34 100.65,79.95 49.08,-44.53 58.29,-149.16 -12.18,-143.1 -18.52,1.6 -33.35,13.52 -50.08,19.68z"/>
  <path class="fil2" d="M7110.31 747.97c50.92,77.48 118.23,156.29 241.66,149.28 6.81,-58.62 -63.54,-82.36 -41.1,-188.42 72.11,-15.54 129.66,-42.14 158.92,-95.72 38.76,-71.01 22.82,-147.47 -14.96,-209.04 -153.21,-249.69 -617.41,-218.16 -611.07,88.9 2.99,144.75 99.97,258.63 266.55,255z"/>
  <path class="fil4" d="M7139.76 696.77c17.14,25.47 22.33,112.27 138.97,139.17 -9.57,-27.52 -14.32,-61.98 -13.53,-98.11 1.38,-63.42 0.16,-63.4 49.51,-71.44 69.3,-11.29 119.53,-42.08 130.76,-116.5 18.57,-123.15 -124.13,-223.3 -232.59,-248.38 -69.51,-16.08 -145.55,-12.98 -204.65,15.31 -135.99,65.09 -141.25,228.53 -51.9,328.95 55.53,62.4 92.5,50.11 183.43,51z"/>
 </g>
</svg>
