<?xml version="1.0" encoding="UTF-8"?>
<!DOCTYPE svg PUBLIC "-//W3C//DTD SVG 1.1//EN" "http://www.w3.org/Graphics/SVG/1.1/DTD/svg11.dtd">
<!-- Creator: CorelDRAW 2019 (64-Bit) -->
<svg xmlns="http://www.w3.org/2000/svg" xml:space="preserve" width="80mm" height="130mm" version="1.1" style="shape-rendering:geometricPrecision; text-rendering:geometricPrecision; image-rendering:optimizeQuality; fill-rule:evenodd; clip-rule:evenodd"
viewBox="0 0 4233.32 6773.32"
 xmlns:xlink="http://www.w3.org/1999/xlink">
 <defs>
  <style type="text/css">
   <![CDATA[
    .fil13 {fill:#141414}
    .fil9 {fill:#242424}
    .fil2 {fill:#313131}
    .fil8 {fill:#393939}
    .fil1 {fill:#5D5D5D}
    .fil12 {fill:#616565}
    .fil7 {fill:#787878}
    .fil11 {fill:#79797A}
    .fil6 {fill:#939393}
    .fil3 {fill:#BCBCBC}
    .fil14 {fill:#E0E0E0}
    .fil5 {fill:#E2E2E2}
    .fil4 {fill:#FBFBFB}
    .fil10 {fill:#FDFDFD}
    .fil0 {fill:#FEFEFE}
   ]]>
  </style>
 </defs>
 <g id="Capa_x0020_1">
  <metadata id="CorelCorpID_0Corel-Layer"/>
  <g id="_2425355796208">
   <path class="fil0" d="M1818.54 2068.59c6.77,16.35 14.9,24.49 29.76,31.24 67.09,-26.88 16.2,-94.57 -29.76,-31.24z"/>
   <path class="fil1" d="M1418.41 6086.69c28.41,14.48 583.24,26.06 686.79,34.2l691.7 19.28c10.29,-6.35 21.4,-45.31 24.12,-58.83 6.84,-34.08 -5.75,-46.38 -20.08,-80.02 -26.76,-62.79 -111.24,-287.52 -118.06,-346.03 -3.56,-30.57 0.18,-106.86 0.35,-144.01 0.47,-100.21 18.26,-511.76 -2.85,-578.15 -234.17,-38.73 -340.23,-24.44 -566.41,-33.32 -98.92,-3.88 -188.37,-12.14 -289.69,-10.88 -254.08,3.16 -226.88,17.39 -243.4,102.72 -30.84,159.19 -14.05,481.7 9.37,658.95 6.2,46.99 3.65,43.38 -28.8,97.48l-84.96 141.4c-29.93,62.01 -79.59,146.94 -58.08,197.21z"/>
   <path class="fil2" d="M2333.4 3407.85c-16.18,-3.13 -11.73,-5.36 -26.67,-3.84 -30.91,43.32 -117.31,258.21 -110.1,298.91 17.46,11.74 107.93,39.37 125.12,36.09 13.05,-17.52 96.53,-247.74 107.53,-281.55l-32.95 -22.3 15.49 -42.65c43.08,3.07 36.95,17.43 126.62,17.93 132.32,0.74 259.19,-76.06 323.89,-207.94 85.55,-174.36 27.43,-358.59 -173.98,-450.33 -173.06,-78.82 -359.23,-20.18 -444.71,181.67 -58.44,138 -33.03,316.6 87.05,411.59 28.82,22.8 24.89,26.13 2.71,62.42zm342.62 -630.69c-413.51,-182.18 -607.44,478.99 -249.12,596.24 154.36,50.51 338.08,-16.06 415.58,-179.56 75.28,-158.83 19.31,-334.84 -166.46,-416.68zm5.02 40.14c-36.45,-18.39 -75.66,-29.93 -112.56,-33.34 -116.15,-10.74 -215.6,47.27 -267.22,170.26 -55.62,132.53 -30.17,315.71 120.78,385.49 184.81,85.43 414.17,-60.49 418.05,-248.83 0.42,-20.45 -0.64,-32.44 -1.61,-49.8 -2.6,-46.54 -26.94,-106.34 -57.02,-144.16 -27.83,-35.01 -58.99,-58.72 -100.42,-79.62zm-45.13 5.43c-144.16,-56.12 -286.96,30.8 -326.07,183.24 -16.59,64.67 -19.89,144.81 1.91,190.03 113.12,234.78 420.21,167.56 491.89,-33.39 44.61,-125.06 -27.36,-285.23 -167.73,-339.88zm-318.82 601.39c-24.79,47.71 -95.22,222.91 -95.61,265.44l86.67 26.23 97.28 -250.37 -88.34 -41.3z"/>
   <path class="fil3" d="M1628.68 5666.2l55.84 3.68c249.37,-13.83 459.71,-7.01 708.58,-2.01 44.35,0.9 226.87,8.22 250.6,-0.64l9 -704.88c-25.99,5.93 -169.71,-9.5 -215.49,-9.59 -66.41,-0.11 -147.88,-3.64 -216.44,-6.85 -218,-10.21 -315.79,-36.17 -543.93,-18.2 -69.1,5.44 -50.92,18.66 -57.12,72.19 -11.76,101.46 -17.99,90.64 -18.04,210.85 -0.06,117.45 10.02,224.57 19.76,341.34 3.05,36.51 0.65,88.85 7.24,114.11z"/>
   <path class="fil4" d="M1708.1 5595.08c65.39,-3.01 143.38,-5.61 212.54,-9.6 137.54,-7.92 414.52,-6.08 536.86,-0.38 18.52,0.87 35.02,1.84 51.6,2.86l53.27 5.11c-15.82,-46.22 -12.91,-222 -10.63,-271.08 1.23,-26.55 3.49,-40.49 3.7,-67.18l14.34 -199.36c-9.3,-22.15 1.96,-7.71 -14.18,-12.9l-865.2 -41.39c-8.01,34.1 5.53,543.32 17.7,593.92z"/>
   <path class="fil2" d="M3103.83 1901.4c33.16,66.1 59.51,43.56 114.27,48.96 19.59,6.68 41.78,55.86 124,47 5.71,-0.62 26.74,-4.45 31.49,-6.24 67.27,-25.33 -13.86,-27.96 -42.71,-116.49 8.92,-16.57 23.19,-37.88 27.53,-57.66 10.43,-47.5 -10.06,-18.85 27.45,-56.5 24.8,-24.89 47.17,-76.1 58.73,-111 125.92,-380.06 -579.24,-527.57 -806.57,-139.06 -125.13,213.84 -43.08,387.74 160.73,414.15 126.87,16.44 181.92,-15.08 305.08,-23.16zm-320.68 -343.64c-64.05,-69.77 77.88,-73.95 64.84,-178.5 -94.11,38.58 -127.82,91.1 -178.12,155.1 7.83,8.58 5.64,4.54 11.98,9.89 63.62,53.58 17.88,145.76 97.65,153.79 42.75,4.31 48.07,-20.65 80.24,-12.82 -2.01,48.12 -52.64,32.62 -83.23,49.13 20.41,94.39 158.47,27.6 137.81,120.5 -53.16,12.2 13.97,-12.27 -89.84,-37.86 -36.7,-9.05 -61.1,-23.73 -68.81,-71.41 -6.98,-43.13 7.31,-11.87 -24.68,-38.95 -16.25,-13.75 -21.92,-22.88 -26.8,-45.36 -9.42,-43.36 3.32,-80.51 -32.95,-104.37 -20.56,10.15 -12.91,4.57 -23.14,25.2 -101.53,204.84 45.32,330.03 300.31,316.41 10.77,-28.94 -10.21,-59.16 58.5,-114.78 33.34,-26.99 63.65,-28.56 77.66,-67.09 11.8,-32.47 -10.89,-12.74 15.25,-29.96 26.52,27.06 -2.3,52.53 -12.71,73.47 67.79,21.42 105.39,-8.29 137.15,-60.76 14.67,-24.23 15.03,-45.88 47.76,-62.1 31.37,-15.56 65.57,-21.66 79.52,10.88 -27.67,23.73 -57.89,-23.98 -97.48,56.53 -15.28,31.08 -43.95,68.72 -96.7,81.8 -75.4,18.7 -66.53,-32.67 -124.07,5.96 -34.71,23.31 -65.94,57.46 -56.41,100.29 54.14,12.08 108.24,-37.84 147.08,0.33 32.24,31.69 29.75,24.83 74.12,24.33 40.04,-0.44 10.69,-8.07 33.38,10.76 25.56,21.22 54.68,55.51 128.55,26.89 -25.29,-18.55 -52.42,-47.87 -63.53,-89.75 51.08,-58.23 11.68,-72.11 55.16,-112.72 54.28,-50.69 101.88,-243.91 39.83,-248.47 -56.59,-4.16 -21.34,91.83 -92.1,81.08 -6.38,-31.11 -6.01,-7.61 14.33,-29.23 41.74,-44.38 -2.7,-62.79 79.62,-76.66 -34.82,-55.27 -84.07,-93.33 -129.56,-107.61 -45.95,27.09 -57.23,56.04 -51.38,111.75 4.56,43.52 -3.58,110.77 -61.13,102.37 2.72,-31.45 33.21,-12.2 42.68,-56.71 5.43,-25.54 -0.02,-68.98 -13,-91.34 -64.34,-8.06 -81.87,28.43 -134.61,48.28 -47.39,17.83 -109.27,12.02 -118.16,-31.41 40.19,-15.6 37.68,37.82 128.43,-6.59 69.46,-33.98 70.62,-38.61 138.76,-28.79 12.14,-20.36 31.39,-42.44 41.71,-64.24 -142.9,-30.31 -203.61,-48.67 -374.07,15.06 20.26,101.81 -39.44,102.54 -59.94,137.59 -18.9,32.3 8.44,26.97 -19.9,50.09z"/>
   <path class="fil5" d="M1464.02 5996.16c42.89,-11.63 894.24,11.46 996.19,19.47 54.55,4.29 105.73,5.13 161.39,9.2 55.99,4.09 112.63,12.35 161.95,16.91l-126.59 -344.37 -343.87 2.46c-59.86,1.27 -113.7,0.49 -171.9,1.01 -28.91,0.27 -54.77,-2.58 -84.59,-3.39l-43.46 1.77c-68.61,2.39 -128.51,-5.62 -219.35,-0.76 -37.76,2.02 -152.23,0.37 -174.91,23.23l-43.62 65.42c-10.93,16.88 -6.53,17.05 -16.95,34.21 -24.56,40.48 -14.01,7.05 -38.27,67.2l-56.02 107.64z"/>
   <path class="fil3" d="M2202.35 2501.21c-13.03,23.83 -8.83,25.43 1.37,44.39 6.92,12.85 9.35,21.57 19.98,33.76 -34.13,27.44 -88.36,30.94 -165.09,152.05 -34.15,53.9 -55.97,126.84 -53.39,185.41 1.07,24.12 7.4,39.07 7.9,58.77 25.43,14.31 30.09,11.06 51.77,11.11 15.31,0.04 29.82,0.83 44.44,0.7 16.53,-29.32 9.29,-19.01 5.37,-44.27 -5.84,-37.57 13.84,-90.25 36.53,-125.67 46.33,-72.31 77.51,-79.46 129.09,-125.81 -3.12,4.22 -2.1,-1.87 0.71,10.21 6.47,27.78 14.08,43.03 36.93,56.11 18.84,-23.46 55.46,-120.31 67.87,-158.2 8.52,-25.99 9.85,-11.84 -1.83,-26.76 -10.47,-13.39 -76.44,-41.28 -92.07,-47.71 -50.22,-20.66 -47.25,-14.48 -89.58,-24.09z"/>
   <path class="fil6" d="M1648.08 3202.16c-66.5,-43.87 -55.22,22.87 -194.57,-13.98 -179.49,-47.47 -323.54,-299.43 -572.96,-183.81 -12.73,-28.75 -19.23,-72.95 -51.5,-88.63l-23.34 16.41c-22.18,22.16 -157.58,183.93 -148.91,221.51 6.82,29.58 141.81,57.16 186.48,70.93 12.69,3.92 15.5,5.9 29.7,9.71 87.17,23.34 44.5,-67.69 40.6,-85.31 21.38,1.93 17.51,-15.49 85.74,-14.34 232.08,3.91 299.43,242.42 555.02,182.97 53.51,-12.45 64.09,1.78 93.74,-115.46z"/>
   <path class="fil2" d="M2213.36 4522.22c-85.51,35.81 -185.37,63.58 -283.83,-11.18 27.1,-52.43 98.7,-32.82 139.34,-133.33 -51.13,-53.16 -84,-107.38 -78.34,-168.16 7.51,-80.55 63.45,-135.07 129.18,-165.03 266.55,-121.52 633.96,163.94 457.17,415.09 -83.33,118.39 -227.38,158.67 -363.52,62.61z"/>
   <path class="fil6" d="M1215.67 5307.51c-23.71,14.2 -61.18,44.82 -82.33,59.4 -56.52,-44.15 -78.27,-112.84 -72.62,-178.3 4.82,-55.92 -6.22,-121.66 -41.85,-186.3 -53.58,-97.21 -167.92,-147.95 -269.17,-125.21 -130.67,29.35 -100.16,55.96 -91.28,104.75 20.76,114.11 83.11,-1.4 184.24,46.3 160.07,75.51 7.27,298.86 166.91,437.21 -14.88,10.93 -62.12,36.95 -59.28,57.48 3.1,22.36 0.33,28.45 60.07,38.82l134.67 27.28c35.09,7.95 47.06,24.3 70.92,-2.74 24.54,-27.82 21.34,-107.75 21.71,-135.42 1.57,-116.04 19.39,-108.78 -21.99,-143.27z"/>
   <path class="fil2" d="M3371.89 2587.63l52.19 46.25 -155.54 203.06c-15.36,19.28 -34.85,37.27 -39.56,59.86 24.56,34.37 135.11,130.05 174.64,149.48l215.67 -229.3c31.8,17.62 62.97,62.16 85.67,37.09 23.4,-25.83 6.75,-231.1 -4.35,-255.59 -40.69,-89.77 -131.82,-46.21 -163.05,-43.09 -45.29,4.52 -138.24,-10.05 -165.67,32.24z"/>
   <path class="fil7" d="M2872.01 2071.11c-34.74,-32.66 -120.65,-61.17 -168.81,-67.77 -102.52,-14.06 -38.28,54.45 -26.97,91.5 -13.35,11.02 -3.77,4.71 -21,12.36 -3.88,1.72 -10.91,4.11 -13.67,5.16 -26.79,10.22 -32.39,11.4 -66.27,3.62 -77.08,-17.7 -132.4,-107.53 -154.15,-174.51 -33.48,-103.1 -8.9,-117.55 -77.87,-106.99 -76.58,11.72 -56.47,53.83 -43.39,116.61 0.29,1.38 0.66,3.35 0.97,4.73l8.91 32.91c43.93,157.45 191.89,349.78 372.76,262.28 17.47,-8.45 29.26,-19.09 47.75,-31.81 13.7,31.49 8.24,35.21 41.74,56.71 31.03,-17.84 43.41,-68.01 57.75,-102.17 14.51,-34.56 27.23,-69.98 42.25,-102.63z"/>
   <path class="fil4" d="M2217.53 4463.29c-28.45,11.56 -81.24,80.65 -193.01,37.81 23.32,-17.48 46.51,-43.41 66.03,-73.82 34.29,-53.38 35.28,-52.67 -1.16,-86.91 -51.17,-48.08 -75.63,-101.68 -43.37,-169.67 53.38,-112.52 227.69,-115.88 331.66,-76.1 66.63,25.5 127.97,70.55 161.19,127.03 76.43,129.95 -10.51,268.45 -140.71,301.83 -80.91,20.74 -104.71,-10.11 -180.63,-60.17z"/>
   <path class="fil6" d="M2913.12 4986.37l-9.97 70.54c-121.52,66.85 -100.18,51.86 -94.62,118.26 -14.23,7.58 -25.13,12.91 -36.57,19.7 3.94,56.2 18.64,50.6 39.13,82.72 29.68,-0.81 36.55,5.7 48.09,-15.1 29.34,5.02 9.78,7.23 30.01,16.54 52.4,24.09 68.02,-24.22 113.86,-39.55 31.95,20.34 29.41,42.16 81.67,10.04l13.47 19.28c-16.84,30.17 -62.57,146.48 -62.15,177.9 0,0.06 -7.38,9.03 9.53,30.99 16.74,-6.62 9.04,-0.53 18.73,-13.82 4.57,-6.25 6.47,-15.66 9.47,-25.69 4.34,-14.53 10.23,-30.95 16.01,-45.65 8.86,-22.58 33.92,-61.49 30.93,-82.21l28.17 115.85c10.43,30.56 4.7,25.3 26.89,29.25 16.19,-20.9 -2.99,-127.83 -8.14,-157.65 4.92,18.74 68.16,73.21 92.09,98.35 19.05,20.02 15.96,23.96 53.25,27.88 -3.98,-55.12 -35.22,-61.94 -64.42,-96.71 -16.33,-19.45 -48.41,-67.56 -68.3,-75.66l6.4 -26.48c86.43,4.61 129.56,-53.11 208.19,-96.93 66.98,-37.31 153.17,-29.3 119.23,-199.99 -15.29,-76.94 -99.11,-247.66 -215.4,-190.35 -74.49,36.7 -220.38,103.24 -268.1,154.36 -39.17,41.95 19.77,41.52 -117.45,94.13z"/>
   <path class="fil4" d="M3402.44 5085.88c-56.78,-40.29 -60.5,-32.75 -101.36,-125.59 -17.42,-39.6 -40.66,-147.46 -7.79,-186.38l-171.1 104.36c-39.84,21.51 -39.76,15.99 -39.6,63.74 0.46,138.26 119.61,239.6 155.05,228.53l148.81 -82.35c13.67,-5.37 12.52,-4.01 15.99,-2.31z"/>
   <path class="fil4" d="M3679.34 2616.62l-206.76 20.94 53.91 46.41 -216.44 251.38 98.02 76.83c34.12,-40.18 176.93,-215.28 208.03,-226.18 14.55,-0.57 -2.62,-4.69 15.18,3.09l49.85 36.64c10.21,-33.44 5.66,-182.55 -1.79,-209.11z"/>
   <path class="fil2" d="M1267.07 2530.68c18.4,-19.34 8.95,-67.23 23.02,-140.11 50.81,-263.17 263.49,-450.46 544.88,-449.99 48.96,0.08 126.08,20.5 157.11,15.87 22.16,-27.35 37.31,-95.35 31.93,-136.4 -84.97,-66.23 -293.42,-64.79 -403.64,-32.45 -304.34,89.29 -465.64,381.73 -512.52,680.73 -7.58,48.35 -8.51,64.1 43.34,66.48 30.31,1.39 93.91,5.56 115.88,-4.13z"/>
   <path class="fil2" d="M1489.46 2532.1c21.93,-46.11 49.24,-314.24 270.97,-356.11 82.79,-15.64 135.68,17.73 183.65,11.02 18.33,-27.73 43.73,-114.98 42.7,-156.92 -28.06,-7.37 -32.77,-16.61 -60.61,-26.64 -80.09,-28.86 -153.42,-26.99 -231.91,-1.18 -89.47,29.42 -167.81,95.17 -210.24,145.5 -52.22,61.95 -99.61,123.92 -131.26,222.98 -9.37,29.33 -35.29,119.74 -22.08,148.75 11.32,24.84 127.91,23.62 158.78,12.6z"/>
   <path class="fil4" d="M1155.56 2498.24l81.19 2.69c21.69,-117.37 12.92,-161.23 64.22,-269.2 72.13,-151.8 202.27,-276.55 363.11,-319.74 124.7,-33.49 182.24,-31.54 306.94,-6.91l13.86 -57.63c-347.95,-103.15 -616.47,68.55 -749.74,353.49 -22.6,48.31 -94.23,242.57 -79.58,297.3z"/>
   <path class="fil2" d="M1543.48 2541.98c34.04,3.29 98.06,8.91 127.56,-7.18 39.59,-21.61 25.82,-120.96 119.66,-166.92 83.68,-40.98 117.47,32.04 137.27,-61.02 5.06,-23.77 11.47,-38.77 10.4,-62.88 -151.9,-111.97 -458.92,87.47 -394.89,298z"/>
   <path class="fil4" d="M1362.99 2491.92l94.58 0.13c22.61,-42.16 35.37,-191.12 140.07,-286.54 82.01,-74.73 187.08,-106.6 322.38,-70.1l18.95 -73.7c-86.2,-13.06 -135.89,-34.88 -227.71,-8.53 -180.33,51.74 -350.62,280.09 -348.27,438.74z"/>
   <path class="fil2" d="M1840.83 2433.76c-176.88,49.41 -114.78,273.85 33.81,241.05 157.03,-34.66 121.15,-284.33 -33.81,-241.05z"/>
   <path class="fil4" d="M1572.99 2505.68l82.62 0.21c67.84,-137.45 40.72,-166.99 234.98,-195.32l8.22 -38.73c-69.07,-36.11 -177.54,10.6 -223.86,43.46 -52.71,37.4 -108.61,92.59 -101.96,190.38z"/>
   <path class="fil4" d="M1843.49 2479.4c-86.17,18.94 -77.98,162.79 22.43,138.63 80.97,-19.48 77.15,-160.52 -22.43,-138.63z"/>
   <path class="fil7" d="M2244.96 3653.48c0,0 0,0 0,0z"/>
   <path class="fil2" d="M1456.37 633.17c0,0 0,0 0,0z"/>
   <path class="fil8" d="M1698.18 3850.31c-24.91,-66.76 -51.56,-146.37 -114.06,-168.38 -60.01,-21.12 -293.03,1.72 -194.5,176.33 89.51,158.61 78,320.41 133.47,356.68 45.01,29.44 115.81,-7.94 157.57,-47.09 37,-34.68 69.55,-81.54 73.1,-127.78 2.9,-37.82 -39.75,-147.34 -55.58,-189.76z"/>
   <path class="fil9" d="M1176.27 3800.17c-120.74,86.69 -45.9,230.4 -11.08,314.58 25.47,61.58 65.14,272.42 239.2,169.88 110.44,-65.06 30.24,-249.93 8.4,-315.9 -37.97,-114.73 -108.51,-260.47 -236.52,-168.56z"/>
   <path class="fil9" d="M893.03 3901.98c-107.26,63.57 -67.11,184.66 -27.78,306.77 39.22,121.75 98.77,257.31 236.46,182.08 31.37,-17.14 40.59,-32.16 49.83,-56.86 39.96,-106.87 17.81,-115.26 -27.05,-251.7 -38.28,-116.4 -100.66,-257.8 -231.46,-180.29z"/>
   <path class="fil8" d="M820.54 4157.28c-25.64,1.39 -108.08,14.52 -119.73,45.08 -4.24,11.13 10.59,106.59 79.34,115.26 9.49,27.09 8.25,58.74 0.74,74.85 -53.76,12.81 -69.08,-65.11 -83.15,-115.2 -14.82,-52.73 -59.32,-112.08 -50.71,-162.45 46.9,-8.62 28.81,58.53 82.09,60.31 14.87,-0.06 65.28,-25.22 76.09,-42.3 15.81,-25 -11.39,-67.52 -30.75,-91.47 -94.82,-117.36 -251.87,-8.49 -257.65,90.26 -3.7,63.26 30.25,138.25 51.8,199.79 21.45,61.23 45.35,133.83 95.53,167.76 108.48,73.38 239.08,-25.25 221.04,-152.9 -7.05,-49.87 -37.75,-153.62 -64.64,-188.99z"/>
   <path class="fil10" d="M1570.2 4168.6c38.54,-0.63 109.26,-41.79 133.48,-68.94 30.03,-33.67 32.09,-69.84 12.75,-124.88 -52.62,-149.76 -75.44,-351.46 -286.67,-253.85 -46.9,21.67 5.79,88.26 22.52,131.78 18.2,47.34 101.1,299.16 117.92,315.89z"/>
   <path class="fil10" d="M890.55 3931.36c-68.36,73.59 -5.73,177.78 31.29,280.15 34.36,95.01 97.23,208.18 200.06,117.55 66.08,-58.24 2.02,-186.54 -29.6,-276.49 -16.76,-47.67 -37.44,-99.88 -74.03,-129.58 -26.8,-21.76 -87.29,-35.16 -127.72,8.37z"/>
   <path class="fil10" d="M1180.96 3821.73c-70.83,60.16 -4.25,185.6 28.99,276.32 35.15,95.95 92.4,209.83 196.8,126.39 73.31,-58.59 8.16,-185.83 -22.61,-274.81 -32.13,-92.95 -102.29,-213.58 -203.18,-127.9z"/>
   <path class="fil10" d="M812.43 4181.57c-27.09,-3.07 -65.19,13.27 -92.83,28.99l17.43 42.46c18.39,1.99 29.57,0.18 41.56,2.82 28.57,46.15 57.17,145.95 -0.67,161.37 -59.86,15.97 -85.54,-79.04 -101.48,-131.77 -16.09,-53.16 -67.52,-132.9 -53.84,-184.07 7.08,-26.46 34.56,-44.31 65.4,-33.96 35.12,11.79 28.92,42.79 49.59,72.38 82.45,2.44 41.29,-62.48 8.55,-96.7 -26.98,-28.19 -73.31,-45.01 -123.09,-14.44 -91.77,56.36 -33.78,170.28 6.89,267.97 38.29,91.96 76.66,218.59 189.46,154.37 40.33,-22.96 50.05,-67.01 42.15,-115.14 -5.46,-33.3 -33.32,-125.38 -49.12,-154.28z"/>
   <path class="fil11" d="M1476.25 3766.34c-1,32.32 69.83,203.07 86.49,247.72 14.19,38.04 19.26,63.91 38.46,87.71 133.08,-29.32 80.49,-83.42 45.36,-178.57 -45.52,-123.23 -49.61,-228.39 -170.31,-156.86z"/>
   <path class="fil11" d="M1071.17 4149.83l-58.55 -156.89c-12.61,-33.79 -32.15,-49.09 -66.61,-34.81 -67.32,27.9 -30.37,105.7 -10.68,147.08 16.14,33.9 21.39,60.27 32.37,95.15 18.26,57.99 49.51,122.28 106.73,101.18 59.36,-21.89 15.45,-101.58 -3.26,-151.71z"/>
   <path class="fil11" d="M1203.52 3945.54l72.21 193.49c33.91,90.89 153.21,75.44 107.82,-46.19 -12.73,-34.11 -30.91,-66.52 -44.58,-102.52 -13.21,-34.8 -25.28,-70.31 -38.63,-105.02 -3.07,-7.98 -5.87,-16.11 -10.19,-22.7 -1.02,-1.56 -4.06,-5.74 -5.29,-6.99 -17.28,-17.44 -42.83,-10.76 -61.46,0.84 -29.59,18.44 -34.34,50.34 -19.88,89.09z"/>
   <path class="fil12" d="M1615.27 768.54c-50.94,-3.18 -69.19,38.38 -106.27,86.03 -90.17,115.87 -185.77,250.49 -277.13,363.72 -82.07,101.72 -122.23,163.86 -34.91,256.95 39.45,42.07 218.43,159.87 279.05,156.45 45.16,-2.55 72.51,-47.13 104.47,-85.67l282.62 -348.04c46.28,-58.43 94.37,-129 71.31,-206.98 -17.53,-59.27 -274.97,-219.7 -319.14,-222.46z"/>
   <path class="fil10" d="M1240.61 1249.03l167.25 103.57c27.9,18.06 55.41,37.56 82.74,55.16l60.86 39.68c25.89,14.79 12.04,7.03 20.11,4.27 8.71,-3.54 123.5,-159.8 142.85,-184.86 48.54,-62.86 109.37,-125.54 152.61,-186.74 -40.02,-21.7 -282.59,-201.68 -304.94,-233.14 -15.67,-12.64 -60.95,57.92 -80.92,85.26l-240.56 316.8z"/>
   <path class="fil13" d="M3048.49 4556.34c40.13,-1.01 24.96,-11.24 49.02,-26.48 48.04,-30.42 57.2,-0.75 124.01,-123.82 34.97,-64.4 340.47,-628.9 352.98,-637.36 16.06,31.5 -44.23,116.41 -62.26,149.18 -19.05,34.64 -109.65,155.14 -40.47,184.39 31.1,13.15 35.92,-8.29 35.93,-8.31 -37.97,-49.35 -84.85,35.91 28.08,-171.73 17.11,-31.47 32.69,-58.37 50.5,-89.33 9.04,-15.72 17.8,-29.86 17.29,-49.59 -0.78,-30.12 -11.72,-23.43 -20.02,-44.21 64.25,-106.25 -84.38,-182.84 -177.41,-47.43 -79.69,115.99 -133.48,303.91 -193.74,420.45 -54.87,106.13 -162.61,260.57 -156.73,355.3 4.86,78.18 -14.07,34.37 -7.18,88.94z"/>
   <path class="fil11" d="M1544.96 1028.96c-34.75,-29.9 -16.13,-46.38 -100.82,57.04l-69.69 81.98c-19.89,12.88 -16.97,-5.44 -30.54,12.61 21.93,24.23 150.32,101.81 196.06,135.78l46.02 34.77c14.96,6.82 -8.86,-0.6 9.96,3.49 16.71,3.62 3.2,3.88 17.94,0.33 -6.35,-23.52 -35.35,-37.26 -68.07,-62.24 44.55,-50.34 152.03,-155.46 179.8,-204.37l-43.85 -33.31 -57.57 61.54 -27.94 -19.84c-10.79,15.04 -19.62,22.67 -32.02,35.5 -7.45,7.7 -21.92,23.05 -32.85,35.09 -22.58,24.87 -40.85,45.84 -64.88,70.22l-16.52 -7.68c29.99,-48.43 139.67,-139.71 159.18,-183.37l-4.28 -9.59c-11.37,-18.89 -16.14,-19.21 -36.08,-29.72 -7.06,5.2 -17.47,14.39 -23.85,21.77z"/>
   <path class="fil10" d="M1552.53 1479.02c-47.64,-38.14 -274.53,-182.9 -330.67,-209.55 -53.01,94.78 -95.98,69.64 105.83,202.1 28.4,18.64 100.58,72.85 126.56,83.11 43.06,17 83.59,-35.03 98.28,-75.66z"/>
   <path class="fil10" d="M3270.58 4049.53c34.89,11.64 56.89,31.81 101.14,37.76 18.37,-21.89 160.9,-296.35 161.29,-311.96l-121.81 218.67c-7.44,14.53 -11.92,23.71 -19.03,37.84 -13.43,26.68 -11.73,27.81 -26.79,36.53 -10.1,-17.72 1.58,-27.34 23.7,-71.04l118.2 -220.23 -91.2 -50.59c-28.19,30.38 -137.72,267.6 -145.5,323.02z"/>
   <path class="fil10" d="M1571.06 814.41c-2.65,15.65 125.47,110.99 144.85,125.68 28.23,21.4 145.48,117.14 170.46,118.78 50.53,-73.78 -9.26,-105.55 -102.12,-169.45 -28.49,-19.6 -136.18,-93.47 -167.41,-95.79 -23.2,-1.72 -29.37,12.15 -45.78,20.78z"/>
   <path class="fil14" d="M3264.4 4277.71c-16.83,-8.2 -33.46,-7.25 -52.76,-17.23 -16.18,-8.36 -23.96,-18.95 -41.83,-25.83 -14.21,27.85 -157.21,274.85 -67.02,267.92 57.15,-4.39 146.64,-186.61 161.61,-224.86z"/>
   <path class="fil10" d="M3429.31 3701.05c11.38,19.11 46.8,42.08 78.32,48.54 38.47,7.88 66.34,-23.35 68.45,-55.4 4.44,-67.4 -107.63,-72.4 -146.77,6.86z"/>
  </g>
 </g>
</svg>
